<?xml version="1.0" encoding="UTF-8"?>
<svg version="1.1" xmlns="http://www.w3.org/2000/svg" width="1024" height="1024">
<path d="M0 0 C0.33 0.66 0.66 1.32 1 2 C1.57294296 1.97036163 2.14588593 1.94072327 2.7361908 1.91018677 C26.64351325 0.73837321 50.56025453 0.84616578 74.48999023 0.86962891 C79.20679992 0.87419235 83.92357117 0.87418794 88.64038086 0.86962891 C133.32218774 0.82644385 133.32218774 0.82644385 150.02734375 1.3203125 C151.50709435 1.35328934 151.50709435 1.35328934 153.01673889 1.38693237 C167.46757631 1.94287266 181.94002188 6.54662923 193 16 C193.64324219 16.52335937 194.28648437 17.04671875 194.94921875 17.5859375 C209.85609121 30.0620233 219.151956 45.68363455 222 65 C222.08814685 67.05031693 222.12899474 69.10302016 222.13142776 71.15522957 C222.13526891 72.37548053 222.13911005 73.59573149 222.1430676 74.85295975 C222.14228746 76.19869564 222.1414087 77.54443147 222.14044189 78.89016724 C222.14302719 80.32634939 222.14604081 81.76253083 222.1494453 83.19871128 C222.15749929 87.1411407 222.15930397 91.0835519 222.16004276 95.02598858 C222.16189611 99.27973606 222.16944489 103.53347415 222.17617798 107.78721619 C222.18975059 117.08695551 222.19578439 126.38669051 222.20018864 135.68643808 C222.20295295 141.49546684 222.20719066 147.30449394 222.21169281 153.11352158 C222.22388423 169.20331022 222.2341837 185.29309754 222.2375679 201.3828907 C222.23778747 202.41235756 222.23800703 203.44182441 222.23823325 204.50248723 C222.23845153 205.53438997 222.23866981 206.56629271 222.2388947 207.62946522 C222.23933816 209.72042473 222.23978473 211.81138424 222.24023438 213.90234375 C222.2404558 214.93952757 222.24067723 215.97671139 222.24090537 217.04532503 C222.24485231 233.84659237 222.26230374 250.64781631 222.2855939 267.44906689 C222.30932343 284.7068659 222.32177049 301.96464314 222.32293582 319.22245872 C222.32385169 328.9087478 222.32958194 338.59498033 222.34775543 348.28125381 C222.36317805 356.53029659 222.36826415 364.77926534 222.36001733 373.02831979 C222.35611844 377.23435735 222.35700309 381.44024593 222.37107468 385.64626503 C222.38385935 389.50302171 222.38257634 393.35951817 222.37048396 397.21627472 C222.36761739 399.25905356 222.37942802 401.30183708 222.39190602 403.34457982 C222.29303135 421.88810716 215.8891724 437.59193983 203 451 C187.30694694 466.31881491 167.74844854 472.18412858 146.26124191 472.12584114 C145.31770467 472.12729458 144.37416743 472.12874802 143.40203816 472.13024551 C140.24642295 472.13388933 137.09085654 472.13042657 133.9352417 472.12698364 C131.64747475 472.1281361 129.35970799 472.12972447 127.07194161 472.13171089 C120.78949527 472.13588715 114.50706412 472.13382116 108.22461772 472.13072467 C102.1435601 472.12869607 96.06250613 472.13135907 89.981449 472.13387203 C76.77649065 472.13913583 63.57153714 472.13868208 50.36657833 472.13579312 C38.80814897 472.13327685 27.24972139 472.1326212 15.69129181 472.13381577 C14.92437462 472.13389215 14.15745744 472.13396854 13.36730034 472.13404724 C10.25403253 472.13435858 7.14076473 472.13467698 4.02749692 472.135007 C-25.17754097 472.13806594 -54.38257579 472.13529286 -83.58761321 472.1299101 C-109.5224404 472.12516641 -135.45726269 472.12558754 -161.39208984 472.13037109 C-190.53792482 472.13572894 -219.68375707 472.13784709 -248.82959247 472.13475883 C-251.93840456 472.13443812 -255.04721665 472.13412528 -258.15602875 472.13381577 C-258.92148226 472.13373669 -259.68693578 472.13365761 -260.47558485 472.13357614 C-272.02267713 472.13243981 -283.56976743 472.13376685 -295.11685944 472.13629532 C-308.25268672 472.13915735 -321.38850841 472.13843393 -334.524335 472.13301457 C-341.22559335 472.1303409 -347.9268405 472.12935428 -354.62809944 472.13266373 C-360.76566355 472.1356489 -366.90320849 472.13399684 -373.04077086 472.12868617 C-375.25808032 472.12757145 -377.47539141 472.12813217 -379.69269982 472.13056196 C-410.90214866 472.16213181 -410.90214866 472.16213181 -420.125 468.375 C-420.7967627 468.10921143 -421.46852539 467.84342285 -422.16064453 467.56958008 C-436.05603648 461.86094248 -447.46797805 452.32636095 -456 440 C-456.53496094 439.24203125 -457.06992187 438.4840625 -457.62109375 437.703125 C-466.27877873 424.48990004 -467.15079945 409.62544901 -467.14044189 394.31384277 C-467.14302896 392.92415806 -467.14604306 391.53447408 -467.1494453 390.14479113 C-467.1574786 386.34002003 -467.15930281 382.53526783 -467.16004276 378.73048925 C-467.16189976 374.62121422 -467.16945036 370.51194885 -467.17617798 366.40267944 C-467.18973613 357.42302775 -467.1957822 348.44338054 -467.20018864 339.46372032 C-467.20295555 333.85130596 -467.20719374 328.23889331 -467.21169281 322.6264801 C-467.22388262 307.07190815 -467.23418222 291.51733755 -467.2375679 275.96276093 C-467.23778747 274.96801428 -467.23800703 273.97326764 -467.23823325 272.94837716 C-467.23845153 271.95131689 -467.23866981 270.95425662 -467.2388947 269.9269824 C-467.23933816 267.90672525 -467.23978472 265.88646809 -467.24023438 263.86621094 C-467.2404558 262.86410412 -467.24067723 261.86199731 -467.24090537 260.82952362 C-467.24485072 244.60337255 -467.262298 228.37726647 -467.2855939 212.15113276 C-467.30934611 195.47181742 -467.32177153 178.7925246 -467.32293582 162.11319208 C-467.32385045 152.75656336 -467.32954917 143.39999325 -467.34775543 134.04338074 C-467.36320879 126.07374131 -467.36824617 118.1041786 -467.36001733 110.13452703 C-467.35612917 106.07379711 -467.35694988 102.01322145 -467.37107468 97.95251083 C-467.38392473 94.22391799 -467.3825203 90.49559355 -467.37048396 86.7670005 C-467.3676387 84.8028284 -467.37937801 82.83865117 -467.39190602 80.87451696 C-467.27129619 58.83276131 -460.89456022 38.77599289 -445.640625 22.484375 C-437.30440925 14.64142646 -427.94016033 8.53123324 -417 5 C-416.25363848 4.75596373 -415.50727695 4.51192745 -414.73829842 4.26049614 C-407.39814436 2.04170129 -400.61907745 1.53149618 -392.97998047 1.49267578 C-391.68010822 1.47501537 -390.38023598 1.45735497 -389.04097366 1.43915939 C-385.39025128 1.39103025 -381.73959915 1.36240213 -378.08865213 1.33770514 C-375.70434532 1.320032 -373.32015107 1.29690325 -370.93590927 1.27200699 C-320.27327311 0.74351374 -269.6034883 0.84878247 -218.93861184 0.870536 C-208.36222831 0.87500243 -197.78585598 0.87419006 -187.20947266 0.86962891 C-124.80106086 0.84340857 -62.40057525 0.87972505 0 2 C0 1.34 0 0.68 0 0 Z M-426 50 C-426.33 50.99 -426.66 51.98 -427 53 C-420.81515724 58.22556103 -414.53108767 63.11772609 -407.90454102 67.77050781 C-402.26958741 71.75309525 -396.79025672 75.92974351 -391.3125 80.125 C-385.07382954 84.9022659 -378.82392663 89.64146579 -372.4453125 94.23046875 C-368.149674 97.33897393 -363.92370364 100.54056838 -359.68798828 103.72998047 C-356.54494962 106.09476021 -353.39709803 108.45312692 -350.25 110.8125 C-346.19462215 113.85282729 -342.1398702 116.89395238 -338.08984375 119.94140625 C-330.86072686 125.37752086 -323.60289529 130.77128546 -316.3125 136.125 C-310.91378745 140.09015915 -305.54232784 144.0812694 -300.25 148.1875 C-295.0651009 152.20629092 -289.80425212 156.10551987 -284.50585938 159.97216797 C-280.73345645 162.72586702 -276.98091867 165.50260309 -273.25 168.3125 C-265.70501239 173.98891638 -258.09328903 179.57450083 -250.48779297 185.16943359 C-245.69930094 188.69289907 -240.91346277 192.2199718 -236.12890625 195.7487793 C-232.16285549 198.67317096 -228.19297655 201.59206038 -224.21484375 204.5 C-215.62785698 210.78589881 -207.1482473 217.17929947 -198.77368164 223.74560547 C-192.59345581 228.57608024 -186.306988 233.24933115 -179.97583008 237.87963867 C-175.51502377 241.1421977 -171.08685461 244.44046592 -166.69140625 247.79052734 C-151.10748348 259.62656226 -136.71418727 270.076546 -116 268 C-100.2833184 265.59884031 -88.86622382 256.1835638 -76.51708984 246.88769531 C-72.47102624 243.85334383 -68.38973446 240.86724794 -64.3125 237.875 C-54.83000821 230.89511601 -45.41248486 223.83029212 -36.0078125 216.74609375 C-31.61206985 213.44015433 -27.20799778 210.14818091 -22.7734375 206.89453125 C-14.29047012 200.67052244 -5.85555253 194.394398 2.5 188 C10.005686 182.2563322 17.56687518 176.59794189 25.1875 171.0078125 C30.14798328 167.36846296 35.08471288 163.70014111 40 160 C46.61129983 155.02469984 53.26703851 150.11187217 59.93359375 145.2109375 C64.97607335 141.50058784 69.99769576 137.76430943 75 134 C81.61139541 129.02482518 88.26703682 124.11187341 94.93359375 119.2109375 C99.97607335 115.50058784 104.99769576 111.76430943 110 108 C116.61139541 103.02482518 123.26703682 98.11187341 129.93359375 93.2109375 C134.97607457 89.50058694 139.99762336 85.76421446 145 82 C157.57350974 72.5416421 170.25325606 63.22348663 183 54 C181.37159701 50.59780091 179.51714616 47.83178943 177 45 C176.34 45 175.68 45 175 45 C175 44.34 175 43.68 175 43 C173.36717408 41.53458331 173.36717408 41.53458331 171.1875 40.125 C170.47980469 39.63257813 169.77210938 39.14015625 169.04296875 38.6328125 C157.06092771 32.20342463 146.02779334 32.43376093 132.72596741 32.49206543 C130.43988267 32.48745386 128.1538009 32.48109922 125.86772531 32.47315645 C119.59919264 32.45647536 113.33090391 32.46470419 107.06237042 32.47710133 C100.99202783 32.48522407 94.92174344 32.4745588 88.85140868 32.46451186 C75.67275636 32.44347121 62.49418171 32.44526562 49.31552205 32.45682751 C37.78193332 32.46689625 26.24837303 32.46951351 14.71478081 32.46473694 C13.94924232 32.4644314 13.18370384 32.46412586 12.39496722 32.46381106 C9.28725774 32.46256567 6.17954828 32.46129206 3.07183883 32.459972 C-26.07223633 32.44774007 -55.21626208 32.45882317 -84.36032961 32.48035959 C-110.24179244 32.49933966 -136.12317653 32.49764463 -162.00463867 32.47851562 C-191.09445626 32.4570871 -220.1842302 32.44860951 -249.27405459 32.46096468 C-252.37635806 32.46224751 -255.47866155 32.46349888 -258.58096504 32.46473694 C-259.72673222 32.4652114 -259.72673222 32.4652114 -260.89564621 32.46569545 C-272.42008145 32.4702414 -283.94448508 32.46493155 -295.46891594 32.45481873 C-308.57620857 32.44337415 -321.6834115 32.44625697 -334.79069298 32.4679417 C-341.47771766 32.47864043 -348.16456271 32.48257643 -354.85159683 32.46934509 C-360.97494706 32.4574124 -367.09798973 32.46399882 -373.22131211 32.4852553 C-375.43450345 32.48971758 -377.64772086 32.48746357 -379.86089539 32.47775215 C-398.80527325 32.40101132 -413.26496053 34.7548658 -426 50 Z M-434 88 C-437.61430861 91.61430861 -436.12084055 102.65706576 -436.13374341 107.51025754 C-436.13151268 108.55470413 -436.12928196 109.59915071 -436.12698364 110.67524719 C-436.12854363 111.81080825 -436.13010362 112.9463693 -436.13171089 114.11634129 C-436.13568198 117.90089785 -436.13254618 121.68541389 -436.12939453 125.4699707 C-436.13020059 128.19283124 -436.13249557 130.91569009 -436.13470459 133.6385498 C-436.13914208 140.25902057 -436.13819401 146.87947996 -436.13529195 153.49995116 C-436.13302635 158.89420145 -436.13273041 164.28844857 -436.13381577 169.6826992 C-436.133969 170.45284785 -436.13412223 171.22299649 -436.13428011 172.01648298 C-436.13459987 173.58165843 -436.13492409 175.14683388 -436.1352527 176.71200933 C-436.13810252 191.38264037 -436.13483016 206.05326515 -436.12945233 220.72389515 C-436.12500166 233.25107323 -436.12574679 245.77824202 -436.13037109 258.30541992 C-436.13575501 272.89690703 -436.13781016 287.48838863 -436.13475883 302.0798766 C-436.13444034 303.64485149 -436.13412597 305.20982637 -436.13381577 306.77480125 C-436.13366149 307.54448571 -436.13350721 308.31417017 -436.13334826 309.10717839 C-436.13249322 314.47126251 -436.13392425 319.83534308 -436.13629532 325.19942665 C-436.13913691 331.77205662 -436.13826591 338.3446747 -436.13301457 344.91730336 C-436.13043252 348.25659103 -436.12983818 351.59584321 -436.13266373 354.93513298 C-436.14316528 368.62693212 -436.01587058 382.30944643 -435.61691284 395.99552917 C-435.58655603 397.22541197 -435.55619921 398.45529477 -435.52492249 399.72244674 C-435.48683751 400.86508442 -435.44875254 402.0077221 -435.40951347 403.18498516 C-435.37891614 404.18962014 -435.3483188 405.19425512 -435.31679428 406.22933358 C-434.98569615 409.12510071 -434.2047962 411.35826459 -433 414 C-429.65750371 413.40312566 -427.53563658 412.26396123 -425 410 C-425 409.34 -425 408.68 -425 408 C-424.195625 407.6596875 -424.195625 407.6596875 -423.375 407.3125 C-419.2788557 405.04884131 -415.97367792 401.97532264 -412.6875 398.68359375 C-409.83780018 395.83803593 -406.90412463 393.09699165 -403.9375 390.375 C-403.37313232 389.85574951 -402.80876465 389.33649902 -402.22729492 388.80151367 C-400.48584203 387.19994041 -398.74295626 385.59993685 -397 384 C-395.94525742 383.03000781 -394.89056791 382.0599579 -393.8359375 381.08984375 C-389.26619601 376.89004766 -384.68324473 372.70626462 -380.0625 368.5625 C-376.22083558 365.11422201 -372.41536496 361.62938399 -368.625 358.125 C-368.07827637 357.61952637 -367.53155273 357.11405273 -366.96826172 356.59326172 C-365.86147866 355.56983744 -364.75470784 354.54639993 -363.64794922 353.52294922 C-351.07825316 341.90668788 -351.07825316 341.90668788 -346.0625 337.5625 C-342.47041409 334.45035876 -338.98448008 331.23127914 -335.5 328 C-331.41294221 324.20992966 -327.29295251 320.47625301 -323.078125 316.828125 C-318.83288796 313.09359317 -314.69631994 309.23681982 -310.53466797 305.40966797 C-304.42193268 299.79482012 -298.28264163 294.21626879 -292.01953125 288.76953125 C-287.97334911 285.22423046 -283.99256813 281.60541001 -280 278 C-274.71670028 273.22902025 -269.42215589 268.47638408 -264.05078125 263.8046875 C-261.73911203 261.77041859 -259.4646857 259.6977769 -257.1875 257.625 C-252.78487903 253.64843912 -248.23955573 249.88414966 -243.62890625 246.15234375 C-240.00849313 243.18823137 -236.4929259 240.11260732 -233 237 C-241.17618661 230.39958754 -249.67176473 224.2163507 -258.18359375 218.05859375 C-262.34735838 215.01517633 -266.45660059 211.90091269 -270.56640625 208.78515625 C-272.85058117 207.00452873 -272.85058117 207.00452873 -275 206 C-276.21545397 205.09351685 -277.41500106 204.1656188 -278.60546875 203.2265625 C-279.33403076 202.65462158 -280.06259277 202.08268066 -280.81323242 201.4934082 C-281.59674072 200.8768335 -282.38024902 200.26025879 -283.1875 199.625 C-291.34036416 193.2461575 -299.61883652 187.07389987 -308 181 C-317.41752786 174.16415128 -326.71413529 167.186797 -335.95727539 160.11669922 C-342.5549298 155.07887934 -349.21132146 150.12833404 -355.90527344 145.21948242 C-362.47814001 140.39641951 -369.0008901 135.50893913 -375.51538086 130.60742188 C-381.18938206 126.34349806 -386.89889211 122.13107866 -392.625 117.9375 C-400.48636838 112.17325694 -408.19104683 106.2253232 -415.87109375 100.22265625 C-419.5651231 97.33602762 -423.26774213 94.462069 -427 91.625 C-427.928125 90.91601562 -428.85625 90.20703125 -429.8125 89.4765625 C-431.83641571 87.81350905 -431.83641571 87.81350905 -434 88 Z M184 91.1875 C183.37915527 91.6323877 182.75831055 92.07727539 182.11865234 92.53564453 C175.74247183 97.13565977 169.51315417 101.92236256 163.28125 106.71484375 C152.55949433 114.9569515 141.68006812 122.98813447 130.78564453 130.99975586 C125.56156854 134.84299301 120.36423215 138.71944791 115.18359375 142.62109375 C111.95830239 145.03115809 108.71518096 147.41542902 105.46875 149.796875 C96.85317269 156.11869471 88.32390332 162.54246783 79.83813477 169.03735352 C73.3360592 174.00509017 66.76819656 178.87487104 60.16625977 183.70874023 C54.20041389 188.08782606 48.31118241 192.56077261 42.4375 197.0625 C36.02601268 201.9742242 29.56952977 206.80172425 23 211.5 C16.10447959 216.434173 9.31180526 221.49257143 2.5625 226.625 C1.2022168 227.65657227 1.2022168 227.65657227 -0.18554688 228.70898438 C-1.03052734 229.35416016 -1.87550781 229.99933594 -2.74609375 230.6640625 C-3.49560303 231.23592285 -4.2451123 231.8077832 -5.01733398 232.39697266 C-6.80438994 233.84184513 -8.41385002 235.34011208 -10 237 C-5.57291843 241.53304895 -1.06894277 245.88754332 3.734375 250.01953125 C6.53317359 252.46606726 9.2665147 254.98117294 12 257.5 C17.29305182 262.36515484 17.29305182 262.36515484 22.625 267.1875 C23.23601562 267.73792969 23.84703125 268.28835938 24.4765625 268.85546875 C25.94892434 270.2002186 25.94892434 270.2002186 28 270 C28.33 270.99 28.66 271.98 29 273 C30.65557029 274.47798317 32.37446586 275.88582353 34.125 277.25 C38.1175118 280.43370618 41.80046606 283.67580494 45.34765625 287.33984375 C47.04363594 289.04384226 48.80489696 290.61714083 50.625 292.1875 C54.23576059 295.30334939 57.75124619 298.50986091 61.25 301.75 C61.80405518 302.26288574 62.35811035 302.77577148 62.92895508 303.30419922 C64.05936645 304.35094286 65.18965568 305.39781841 66.31982422 306.44482422 C72.77350254 312.41836838 79.23861307 318.37083042 85.8828125 324.1328125 C89.10888518 326.97794671 92.2673544 329.89632879 95.43310547 332.80810547 C101.01747459 337.9424908 106.65554349 343.01649664 112.31640625 348.06640625 C118.11220948 353.25111985 123.810713 358.53262048 129.47143555 363.86401367 C132.57616895 366.77858476 135.71253295 369.63937901 138.9296875 372.4296875 C143.97638728 376.81668797 148.79941484 381.43223051 153.64453125 386.0390625 C157.72551959 389.90369131 161.86926488 393.66683063 166.11621094 397.34814453 C167.88577686 398.8998401 169.61745558 400.48194692 171.3359375 402.08984375 C171.84253906 402.56357422 172.34914063 403.03730469 172.87109375 403.52539062 C173.89980247 404.49130803 174.92571934 405.46020508 175.94921875 406.43164062 C178.54042887 409.16039443 178.54042887 409.16039443 182 410 C182 410.66 182 411.32 182 412 C184.68509208 414.19067819 184.68509208 414.19067819 187.0625 414 C189.29512023 413.11304677 189.29512023 413.11304677 190.10571277 410.29599035 C190.97107727 407.10659779 191.24867234 404.55457658 191.24609566 401.26415443 C191.25007775 400.13752156 191.25405985 399.01088868 191.25816262 397.85011542 C191.25233693 396.62248901 191.24651125 395.39486261 191.24050903 394.1300354 C191.24221788 392.8181721 191.24392673 391.50630879 191.24568737 390.15469205 C191.25015458 386.51970018 191.24216585 382.88482639 191.23213124 379.24984956 C191.22349001 375.32762806 191.22641738 371.40541316 191.22793579 367.48318481 C191.22898422 360.68974862 191.22271205 353.89635087 191.21146011 347.10292435 C191.19520233 337.28078938 191.18999682 327.45867299 191.18748413 317.63652603 C191.18310747 301.70054458 191.16979913 285.76458361 191.15087891 269.82861328 C191.13251937 254.34879662 191.11836322 238.86898551 191.10986328 223.38916016 C191.10907511 221.95776679 191.10907511 221.95776679 191.10827102 220.49745639 C191.10566093 215.71017743 191.10313352 210.92289843 191.10064721 206.1356194 C191.0799156 166.42373193 191.04469084 126.71186732 191 87 C188.6158722 87 185.9345484 89.79683006 184 91.1875 Z M-208 255 C-215.90507579 261.21230488 -223.24408999 267.87954603 -230.5546875 274.76953125 C-233.68043182 277.7128424 -236.86873161 280.56830219 -240.12109375 283.37109375 C-244.13576169 286.8515855 -248.05673094 290.43910854 -252 294 C-261.49538934 302.57462432 -261.49538934 302.57462432 -265.8125 306.3125 C-270.03143491 309.98374356 -274.11940112 313.79243726 -278.21972656 317.59472656 C-281.73177118 320.84586479 -285.28983958 324.02969216 -288.91015625 327.16015625 C-291.64370638 329.56670226 -294.32110702 332.03306703 -297 334.5 C-300.95857261 338.14419551 -304.95176903 341.73913842 -309.015625 345.265625 C-312.18764318 348.03801884 -315.30998903 350.86511205 -318.4375 353.6875 C-320.91265331 355.92117493 -323.39368312 358.14817716 -325.875 360.375 C-329.64738232 363.76777152 -333.39083468 367.19036352 -337.125 370.625 C-340.36217216 373.60218281 -343.61137729 376.55952856 -346.9375 379.4375 C-350.52958789 382.54964295 -354.01548282 385.76875835 -357.5 389 C-361.63143154 392.83045076 -365.79109651 396.61262654 -370.05078125 400.30078125 C-374.08094091 403.81404669 -378.03206068 407.41683056 -382 411 C-391.4849537 419.56520062 -391.4849537 419.56520062 -396 423.5 C-396.6290625 424.05042969 -397.258125 424.60085938 -397.90625 425.16796875 C-399.50783826 426.56935848 -401.11259573 427.96712703 -402.71875 429.36328125 C-403.6365625 430.17152344 -404.554375 430.97976563 -405.5 431.8125 C-406.3559375 432.56144531 -407.211875 433.31039062 -408.09375 434.08203125 C-410.23497888 435.78573281 -410.23497888 435.78573281 -410 438 C-400.60824022 440.37621216 -391.28542912 440.27415829 -381.67236328 440.20581055 C-378.97809548 440.18734991 -376.28416875 440.18530278 -373.58984375 440.18554688 C-371.87239285 440.18063776 -370.15494428 440.17481211 -368.4375 440.16796875 C-367.63441406 440.16685593 -366.83132813 440.1657431 -366.00390625 440.16459656 C-362.74899217 440.13672583 -360.10933107 440.03644369 -357 439 C-356.34 439.33 -355.68 439.66 -355 440 C-352.30823204 440.09773574 -349.64234754 440.13375481 -346.95029736 440.12584114 C-346.10432083 440.12729458 -345.25834431 440.12874802 -344.38673213 440.13024551 C-341.52083992 440.1339267 -338.65500019 440.13040928 -335.78910828 440.12698364 C-333.72599711 440.12813464 -331.66288614 440.12972202 -329.59977561 440.13171089 C-323.90579673 440.1359075 -318.21183449 440.13381198 -312.51785553 440.13072467 C-306.38602258 440.12847198 -300.2541926 440.13194963 -294.12236023 440.13470459 C-282.79332169 440.13890545 -271.46428997 440.13852542 -260.13525159 440.13579312 C-249.66386011 440.13328005 -239.19247059 440.13261968 -228.72107887 440.13381577 C-228.02715689 440.13389215 -227.33323491 440.13396854 -226.61828499 440.13404724 C-223.80148617 440.13435857 -220.98468735 440.13467697 -218.16788853 440.135007 C-191.71811975 440.13806905 -165.26835437 440.13528838 -138.81858611 440.1299101 C-115.32851847 440.12516993 -91.83845626 440.12558394 -68.34838867 440.13037109 C-41.96437602 440.13573003 -15.58036638 440.13784615 10.80364674 440.13475883 C13.61879965 440.13443812 16.43395255 440.13412528 19.24910545 440.13381577 C20.28886352 440.13369715 20.28886352 440.13369715 21.34962679 440.13357614 C31.80584753 440.13243987 42.26206608 440.13376682 52.71828651 440.13629532 C64.61910778 440.13915878 76.51992266 440.13833517 88.42074368 440.13301457 C94.49209565 440.1303896 100.56343663 440.12935205 106.63478851 440.13266373 C112.19715112 440.13565179 117.7594926 440.1339921 123.3218533 440.12868617 C125.33008668 440.12757263 127.33832186 440.12812951 129.34655408 440.13056196 C147.26206502 441.25123432 147.26206502 441.25123432 164 437 C157.0422102 428.30276275 148.51075563 421.13456699 140.11328125 413.8671875 C137.95548135 411.96066559 135.84085271 410.01112622 133.72924805 408.05371094 C129.32155533 403.96917922 124.87208601 400.02083434 120.1875 396.25 C116.44156873 393.233935 112.99828074 390.11644332 109.65625 386.6640625 C107.31064845 384.3073968 104.79684117 382.16820997 102.28125 379.99609375 C99.58897851 377.6403562 96.94696049 375.23236395 94.3125 372.8125 C93.8079126 372.34908203 93.3033252 371.88566406 92.78344727 371.40820312 C90.05769849 368.90117938 87.33780926 366.38790148 84.62109375 363.87109375 C79.48904665 359.11842986 74.3488311 354.39398695 69.0625 349.8125 C63.02087484 344.50319304 57.12980724 339.01687802 51.28125 333.49609375 C44.82968683 327.41373168 38.35167898 321.55126723 31.421875 316.015625 C28.37857183 313.4828114 25.64072508 310.72669704 22.8828125 307.890625 C20.43177845 305.42942069 17.8309379 303.17868527 15.19921875 300.9140625 C12.59608118 298.64845431 10.04841276 296.32696448 7.5 294 C3.59539273 290.43657201 -0.3498622 286.93087073 -4.34765625 283.47265625 C-5.74448586 282.22772774 -7.06923188 280.90263043 -8.375 279.5625 C-9.86455501 277.76896376 -9.86455501 277.76896376 -12 278 C-12 277.34 -12 276.68 -12 276 C-13.37957416 274.56532984 -13.37957416 274.56532984 -15.25 273.0625 C-17.8932609 270.82444487 -20.49477106 268.56119951 -23.02734375 266.19921875 C-23.81093262 265.46916626 -23.81093262 265.46916626 -24.61035156 264.72436523 C-25.64250591 263.75947667 -26.67192105 262.7916475 -27.69824219 261.82055664 C-30.61445163 259.10731925 -33.50694339 256.91575317 -37 255 C-37.87398437 255.71542969 -38.74796875 256.43085937 -39.6484375 257.16796875 C-47.42197177 263.48349632 -55.34254699 269.51968157 -63.49755859 275.3347168 C-67.90196125 278.47535889 -72.2224587 281.68888652 -76.5 285 C-93.61636283 297.84314193 -114.38150191 301.1437826 -135.328125 298.73193359 C-151.21068229 296.13263544 -164.62159094 287.88577053 -177 278 C-178.95397315 276.53582977 -180.91237365 275.07755064 -182.875 273.625 C-188.05558442 269.74809361 -193.14527424 265.76519106 -198.19287109 261.71728516 C-201.33975661 259.21497555 -204.49780576 256.97693955 -208 255 Z " fill="#0F1214" transform="translate(636,274)"/>
<path d="M0 0 C10.8811834 0.00740909 21.76236567 0.00867209 32.64355123 0.00979571 C52.02359007 0.01194563 71.40362453 0.01849082 90.78366101 0.02809832 C109.52845246 0.03738081 128.2732427 0.04440742 147.01803601 0.04860613 C148.18761278 0.04886885 149.35718956 0.04913158 150.56220806 0.04940226 C156.43385565 0.05070798 162.30550324 0.05197153 168.17715085 0.05321417 C216.33244892 0.0634593 264.48774224 0.08096121 312.64303601 0.10353777 C312.64303601 0.43353777 312.64303601 0.76353777 312.64303601 1.10353777 C311.91720318 1.11384524 311.19137036 1.1241527 310.4435426 1.13477251 C303.58761451 1.23294034 296.73176411 1.33548135 289.87597477 1.44287703 C286.35174421 1.49793124 282.82750513 1.55132212 279.30319226 1.60085222 C275.24711579 1.65792976 271.19118428 1.72234879 267.13522351 1.78713152 C265.87563824 1.80384402 264.61605298 1.82055651 263.31829846 1.83777544 C261.54714169 1.86769327 261.54714169 1.86769327 259.74020398 1.89821551 C258.18799649 1.92153193 258.18799649 1.92153193 256.60443127 1.94531939 C253.66902773 2.03832007 253.66902773 2.03832007 250.92478466 2.60573593 C247.29223329 3.15675033 243.84818431 3.22765315 240.1736623 3.2265856 C239.07174412 3.22831637 239.07174412 3.22831637 237.94756496 3.2300821 C235.48471447 3.23273006 233.02192929 3.2282416 230.55908215 3.22379229 C228.77611471 3.22422836 226.99314732 3.22510394 225.21018028 3.22638145 C220.30964989 3.22861931 215.40914132 3.22461479 210.50861371 3.21960339 C205.22441622 3.21528893 199.94021999 3.21674603 194.65602124 3.21750567 C185.50041549 3.21803027 176.34481687 3.21489011 167.18921292 3.20926783 C153.95171076 3.20114422 140.71421206 3.19853672 127.47670768 3.19727984 C106.00024746 3.19509068 84.52379104 3.18843426 63.04733288 3.17897722 C42.18372631 3.1697996 21.32012076 3.16272048 0.45651257 3.15846941 C-0.82930618 3.15820669 -2.11512494 3.15794397 -3.43990789 3.15767328 C-9.89041879 3.15636825 -16.3409297 3.15510454 -22.79144061 3.15386138 C-76.31328436 3.14349299 -129.83512399 3.12587835 -183.35696399 3.10353777 C-183.35696399 2.44353777 -183.35696399 1.78353777 -183.35696399 1.10353777 C-122.23605868 0.34159668 -61.12550961 -0.04283335 0 0 Z " fill="#1D1D1D" transform="translate(487.35696399211884,742.8964622281492)"/>
<path d="M0 0 C0.33 0 0.66 0 1 0 C1.06058594 0.92683594 1.12117187 1.85367187 1.18359375 2.80859375 C1.26738281 4.00613281 1.35117188 5.20367187 1.4375 6.4375 C1.51871094 7.63246094 1.59992188 8.82742188 1.68359375 10.05859375 C1.67656114 12.88570244 1.67656114 12.88570244 3 14 C3.09721248 15.66810152 3.1237154 17.34035321 3.12304783 19.01128483 C3.12503888 20.10357869 3.12702993 21.19587256 3.12908131 22.32126623 C3.12616847 23.53622021 3.12325563 24.75117418 3.12025452 26.00294495 C3.12153615 27.92145442 3.12153615 27.92145442 3.12284368 29.87872165 C3.12509105 33.44516609 3.12106408 37.01158077 3.11606562 40.57802141 C3.11176475 44.41784885 3.11320728 48.25767449 3.1139679 52.09750366 C3.11449336 58.75569115 3.1113442 65.41386888 3.10573006 72.07205391 C3.09761812 81.6987836 3.09500015 91.32550855 3.09374207 100.95224129 C3.09155106 116.56931914 3.08488967 132.18639178 3.07543945 147.8034668 C3.06626658 162.9779457 3.05918514 178.15242319 3.05493164 193.3269043 C3.05466892 194.26157119 3.05440619 195.19623808 3.05413551 196.15922821 C3.05283051 200.84797187 3.05156679 205.53671554 3.05032361 210.22545922 C3.03994949 249.15030979 3.02232986 288.07515455 3 327 C2.34 326.67 1.68 326.34 1 326 C0.00683673 322.44325917 -0.12448243 319.04846464 -0.12304783 315.37158489 C-0.12503888 314.24345967 -0.12702993 313.11533445 -0.12908131 311.95302361 C-0.12616847 310.71859342 -0.12325563 309.48416322 -0.12025452 308.21232605 C-0.12110894 306.89723362 -0.12196337 305.58214119 -0.12284368 304.22719747 C-0.12508007 300.57857801 -0.12107904 296.92998791 -0.11606562 293.28137219 C-0.11174905 289.34618132 -0.1132084 285.41099213 -0.1139679 281.47579956 C-0.11449236 274.65834854 -0.1113536 267.84090709 -0.10573006 261.02345848 C-0.09760464 251.16656008 -0.09499877 241.3096663 -0.09374207 231.45276491 C-0.09155319 215.46077619 -0.08489754 199.46879258 -0.07543945 183.47680664 C-0.0662611 167.94165065 -0.05918233 152.40649604 -0.05493164 136.87133789 C-0.05466892 135.91382593 -0.05440619 134.95631396 -0.05413551 133.96978649 C-0.05283048 129.1662528 -0.05156677 124.36271909 -0.05032361 119.55918539 C-0.03995611 79.70612002 -0.02234224 39.85306035 0 0 Z " fill="#18191A" transform="translate(198,359)"/>
<path d="M0 0 C1.01191406 0.0721875 2.02382812 0.144375 3.06640625 0.21875 C13.87678699 0.91933049 24.67029245 1.11120759 35.5 1.125 C36.19497589 1.12749756 36.88995178 1.12999512 37.60598755 1.13256836 C39.60189968 1.13845887 41.59783141 1.13579612 43.59375 1.1328125 C44.75583984 1.13168457 45.91792969 1.13055664 47.11523438 1.12939453 C50.06993678 1.12857675 50.06993678 1.12857675 53 0 C53.66 0.33 54.32 0.66 55 1 C56.8454542 1.09144195 58.69427822 1.11751682 60.54199219 1.11352539 C62.30875305 1.11341965 62.30875305 1.11341965 64.11120605 1.11331177 C65.40997681 1.10814545 66.70874756 1.10297913 68.046875 1.09765625 C69.42321723 1.09573787 70.79956015 1.0942737 72.17590332 1.0932312 C75.14320155 1.09006575 78.11047146 1.08379052 81.07775879 1.07516479 C85.76635529 1.06167328 90.45494228 1.05575485 95.14355469 1.05102539 C105.09571573 1.03991214 115.04785426 1.0203766 125 1 C135.74284708 0.97800447 146.4856849 0.95741829 157.22854996 0.94658184 C161.89283479 0.94158772 166.55707654 0.93171059 171.22134399 0.91815186 C174.11895168 0.91071155 177.01655336 0.90738046 179.91416931 0.9051857 C181.90571847 0.90240983 183.89725861 0.89461027 185.88879395 0.88668823 C187.65555481 0.88658249 187.65555481 0.88658249 189.45800781 0.88647461 C190.99995819 0.88314369 190.99995819 0.88314369 192.57305908 0.87974548 C195 1 195 1 197 2 C197.33 1.34 197.66 0.68 198 0 C198 0.66 198 1.32 198 2 C198.76840525 1.83748025 199.53681049 1.6749605 200.32850075 1.50751591 C205.15297102 0.84062338 209.8795366 0.86571269 214.74398804 0.87974548 C215.82717241 0.87889106 216.91035678 0.87803663 218.02636492 0.87715632 C221.65610255 0.87550913 225.28579397 0.88101048 228.91552734 0.88647461 C231.51736449 0.88675667 234.11920172 0.88659838 236.72103882 0.8860321 C242.32273207 0.88550821 247.92441366 0.88864094 253.52610397 0.89426994 C261.62516838 0.90240319 269.72422715 0.90500204 277.82329519 0.90625793 C290.96406848 0.90844558 304.10483555 0.91509789 317.24560547 0.92456055 C330.00927703 0.93374208 342.7729469 0.94081929 355.53662109 0.94506836 C356.32361159 0.94533108 357.11060208 0.94559381 357.92144077 0.94586449 C361.86961176 0.94716955 365.81778277 0.94843325 369.76595378 0.94967639 C402.51064038 0.96004007 435.25531936 0.97765059 468 1 C468 1.66 468 2.32 468 3 C313.89 3 159.78 3 1 3 C0.67 2.01 0.34 1.02 0 0 Z " fill="#2B2B2D" transform="translate(226,712)"/>
<path d="M0 0 C5.55193756 1.29114827 7.51595529 3.62261049 11 8 C11.804375 8.474375 12.60875 8.94875 13.4375 9.4375 C16.51703889 11.31526761 18.26009824 13.59271686 20.51953125 16.36328125 C22.40691028 18.44985596 24.56699386 19.61910462 27 21 C28.8125 23.1875 28.8125 23.1875 30 25 C29.67 25.66 29.34 26.32 29 27 C28.55720703 26.58226318 28.11441406 26.16452637 27.65820312 25.73413086 C25.60685083 23.80044849 23.55343683 21.86896851 21.5 19.9375 C20.45585938 18.95233398 20.45585938 18.95233398 19.390625 17.94726562 C15.24877832 14.05469676 11.04926219 10.25052583 6.74414062 6.5390625 C4.38579483 4.4580138 2.18901635 2.25742311 0 0 Z " fill="#28292A" transform="translate(731,648)"/>
<path d="M0 0 C3.53594598 1.49260022 5.72527089 3.49823799 8.3125 6.3125 C9.03050781 7.07175781 9.74851562 7.83101563 10.48828125 8.61328125 C12 11 12 11 11.8046875 13.68359375 C10.88675859 16.32598135 10.30317498 17.41160346 8 19 C4.8125 19.6875 4.8125 19.6875 2 20 C6.75 15.125 6.75 15.125 9 14 C7.82674357 11.12018877 6.62061333 9.62061333 4.375 7.375 C3.59125 6.59125 2.8075 5.8075 2 5 C2 4.34 2 3.68 2 3 C1.01 2.67 0.02 2.34 -1 2 C-0.67 1.34 -0.34 0.68 0 0 Z " fill="#1F2021" transform="translate(809,314)"/>
<path d="M0 0 C0.66 0.33 1.32 0.66 2 1 C-0.20705421 3.52030487 -2.44395897 6.0121573 -4.6875 8.5 C-5.31333984 9.21542969 -5.93917969 9.93085937 -6.58398438 10.66796875 C-7.19951172 11.34472656 -7.81503906 12.02148438 -8.44921875 12.71875 C-9.00955811 13.34716797 -9.56989746 13.97558594 -10.1472168 14.62304688 C-12.54030636 16.40154538 -14.08832527 16.26211625 -17 16 C-13.33090512 12.27644731 -9.55325121 8.7056624 -5.6875 5.1875 C-5.13771484 4.68541016 -4.58792969 4.18332031 -4.02148438 3.66601562 C-2.68194761 2.44296032 -1.34111008 1.22132992 0 0 Z " fill="#232425" transform="translate(392,519)"/>
<path d="M0 0 C6.00073223 4.31660302 11.54006063 9.02033308 17 14 C15.140625 14.625 15.140625 14.625 13 15 C10.75 13 10.75 13 9.50390625 11.6015625 C7.08734868 9.02808561 4.30485998 6.87938652 1.57421875 4.6484375 C0 3 0 3 0 0 Z " fill="#212122" transform="translate(630,515)"/>
<path d="M0 0 C6.25322296 4.03576801 12.186102 8.35437938 18 13 C15 14 15 14 12.30078125 12.671875 C10.82158203 11.72054688 10.82158203 11.72054688 9.3125 10.75 C8.31863281 10.12609375 7.32476562 9.5021875 6.30078125 8.859375 C5.54152344 8.24578125 4.78226563 7.6321875 4 7 C4 6.01 4 5.02 4 4 C2.68 3.67 1.36 3.34 0 3 C0 2.01 0 1.02 0 0 Z " fill="#222323" transform="translate(244,353)"/>
<path d="M0 0 C1.19496094 0.72316406 1.19496094 0.72316406 2.4140625 1.4609375 C3.47367187 2.09257813 4.53328125 2.72421875 5.625 3.375 C7.19121094 4.31472656 7.19121094 4.31472656 8.7890625 5.2734375 C11.82241736 6.90451153 14.70622076 8.02076833 18 9 C16.3125 10.13671875 16.3125 10.13671875 14 11 C11.5625 10.20703125 11.5625 10.20703125 9 8.8125 C8.154375 8.36519531 7.30875 7.91789063 6.4375 7.45703125 C4.13234388 6.0791094 2.00181247 4.79329034 0 3 C0 2.01 0 1.02 0 0 Z " fill="#242525" transform="translate(481,530)"/>
<path d="M0 0 C0.6015625 1.8671875 0.6015625 1.8671875 1 4 C-0.93066967 6.52472187 -2.46505442 7.7942517 -5.4375 8.9375 C-8.7375383 10.30580857 -10.60252344 12.39702545 -13 15 C-13.66 14.67 -14.32 14.34 -15 14 C-10.20922972 9.0744893 -5.22325977 4.46351289 0 0 Z " fill="#222324" transform="translate(374,535)"/>
<path d="M0 0 C0.66 0.33 1.32 0.66 2 1 C0.35446591 2.69393215 -1.30419392 4.35732623 -3 6 C-3.50402344 6.48855469 -4.00804687 6.97710937 -4.52734375 7.48046875 C-6.0625 8.875 -6.0625 8.875 -9 11 C-10.32 10.67 -11.64 10.34 -13 10 C-8.71 6.7 -4.42 3.4 0 0 Z " fill="#222324" transform="translate(589,498)"/>
<path d="M0 0 C1.134375 0.16371094 2.26875 0.32742188 3.4375 0.49609375 C7.9744311 1.06321014 12.43375665 1.11393948 17 1.0625 C17.77472656 1.05798828 18.54945313 1.05347656 19.34765625 1.04882812 C21.23180524 1.03719758 23.11591365 1.01926906 25 1 C21.94628262 4.05371738 18.29706713 3.54953331 14.1875 3.75 C13.37990234 3.80542969 12.57230469 3.86085938 11.74023438 3.91796875 C7.31794033 4.15701167 4.02841357 4.12451832 0 2 C0 1.34 0 0.68 0 0 Z " fill="#333435" transform="translate(499,540)"/>
<path d="M0 0 C0.43570313 0.37511719 0.87140625 0.75023437 1.3203125 1.13671875 C5.18607599 4.45859777 9.07657648 7.74642927 13 11 C10 12 10 12 7.625 10.9375 C4.39677543 8.55476282 2.36782963 6.2473092 0 3 C0 2.01 0 1.02 0 0 Z " fill="#212122" transform="translate(800,669)"/>
<path d="M0 0 C5.17609824 3.28157862 9.85989729 6.45924219 14 11 C9.86485386 10.45648168 7.45329082 9.19213905 4.1875 6.625 C3.39730469 6.01914062 2.60710937 5.41328125 1.79296875 4.7890625 C1.20128906 4.19867188 0.60960937 3.60828125 0 3 C0 2.01 0 1.02 0 0 Z " fill="#1F1F20" transform="translate(405,473)"/>
<path d="M0 0 C1.53271273 4.58798777 0.02911182 6.77944742 -2 11 C-2.66 11 -3.32 11 -4 11 C-4.33 11.99 -4.66 12.98 -5 14 C-5.68359375 12.328125 -5.68359375 12.328125 -6 10 C-4.78515625 7.421875 -4.78515625 7.421875 -3.0625 4.75 C-2.49660156 3.85796875 -1.93070313 2.9659375 -1.34765625 2.046875 C-0.90292969 1.37140625 -0.45820313 0.6959375 0 0 Z " fill="#1D1F20" transform="translate(182,307)"/>
<path d="M0 0 C4.18423892 3.50897269 8.19588166 7.08060535 12 11 C7.34921955 10.71813452 4.79882021 8.52396815 1.35546875 5.66796875 C0 4 0 4 0 0 Z " fill="#202122" transform="translate(719,595)"/>
<path d="M0 0 C0.66 0.33 1.32 0.66 2 1 C-1.53566168 6.09135282 -5.47778403 8.91624124 -11.4375 10.75 C-12.2109375 10.87375 -12.2109375 10.87375 -13 11 C-9.0299782 6.78185183 -4.69159716 3.38772897 0 0 Z " fill="#242525" transform="translate(574,509)"/>
<path d="M0 0 C0.99 0.33 1.98 0.66 3 1 C0.69 3.64 -1.62 6.28 -4 9 C-5.32 8.67 -6.64 8.34 -8 8 C-5.36 5.36 -2.72 2.72 0 0 Z " fill="#191A1B" transform="translate(251,646)"/>
<path d="M0 0 C9.59453303 6.15034169 9.59453303 6.15034169 13 10 C9.20696275 8.99806563 6.28463659 8.18975773 3 6 C3 5.34 3 4.68 3 4 C2.01 3.67 1.02 3.34 0 3 C0 2.01 0 1.02 0 0 Z " fill="#272829" transform="translate(465,518)"/>
<path d="M0 0 C9.59453303 6.15034169 9.59453303 6.15034169 13 10 C10.625 10.125 10.625 10.125 8 10 C7.34 9.34 6.68 8.68 6 8 C4.96875 7.195625 3.9375 6.39125 2.875 5.5625 C1.92625 4.716875 0.9775 3.87125 0 3 C0 2.01 0 1.02 0 0 Z " fill="#222323" transform="translate(221,336)"/>
<path d="M0 0 C6.51791392 -0.3540919 11.17521449 -0.03901852 17 3 C17 3.33 17 3.66 17 4 C11.147205 3.48517081 5.6702363 2.54642808 0 1 C0 0.67 0 0.34 0 0 Z " fill="#1C1D1E" transform="translate(796,278)"/>
<path d="M0 0 C1.16161779 2.86578759 0.9946154 4.01630163 0.00390625 7.015625 C-0.70958984 8.61664062 -0.70958984 8.61664062 -1.4375 10.25 C-1.91058594 11.32765625 -2.38367188 12.4053125 -2.87109375 13.515625 C-3.24363281 14.33546875 -3.61617187 15.1553125 -4 16 C-4.66 15.67 -5.32 15.34 -6 15 C-6 14.34 -6 13.68 -6 13 C-5.34 13 -4.68 13 -4 13 C-4.33 12.01 -4.66 11.02 -5 10 C-4.07796291 7.63477442 -3.08301035 5.29598193 -2 3 C-1.34 3 -0.68 3 0 3 C0 2.01 0 1.02 0 0 Z " fill="#252728" transform="translate(855,693)"/>
<path d="M0 0 C3.66060821 0.58536753 5.54535164 2.083239 8.25 4.5625 C8.95640625 5.20316406 9.6628125 5.84382812 10.390625 6.50390625 C10.92171875 6.99761719 11.4528125 7.49132812 12 8 C9 9 9 9 6.5625 7.9375 C3.55310202 5.66210152 1.92995308 3.21658847 0 0 Z " fill="#1B1C1C" transform="translate(687,568)"/>
<path d="M0 0 C1.485 0.99 1.485 0.99 3 2 C3 2.66 3 3.32 3 4 C3.63474075 5.34882408 4.29848848 6.6846659 5 8 C5.66 8 6.32 8 7 8 C6.67 9.32 6.34 10.64 6 12 C4.8001722 10.57277341 3.6154424 9.13284224 2.4375 7.6875 C1.77621094 6.88699219 1.11492187 6.08648438 0.43359375 5.26171875 C-0.27603516 4.14216797 -0.27603516 4.14216797 -1 3 C-0.67 2.01 -0.34 1.02 0 0 Z " fill="#202123" transform="translate(181,711)"/>
<path d="M0 0 C2.475 0.495 2.475 0.495 5 1 C5 1.66 5 2.32 5 3 C6.98 3.66 8.96 4.32 11 5 C10.67 5.99 10.34 6.98 10 8 C4.98886765 6.5682479 3.05530451 4.01554307 0 0 Z " fill="#1F2121" transform="translate(813,683)"/>
<path d="M0 0 C0.33 0 0.66 0 1 0 C1 9.9 1 19.8 1 30 C0.67 30 0.34 30 0 30 C0 20.1 0 10.2 0 0 Z " fill="#373939" transform="translate(825,520)"/>
<path d="M0 0 C5.44208234 0.34013015 8.93668198 3.70296528 13 7 C11.234375 7.64453125 11.234375 7.64453125 9 8 C7.078125 7.07421875 7.078125 7.07421875 5.25 5.6875 C4.63640625 5.23761719 4.0228125 4.78773438 3.390625 4.32421875 C2.93171875 3.88722656 2.4728125 3.45023437 2 3 C2 2.34 2 1.68 2 1 C1.34 0.67 0.68 0.34 0 0 Z " fill="#202021" transform="translate(269,374)"/>
<path d="M0 0 C0.99 0 1.98 0 3 0 C3.09152344 0.60328125 3.18304688 1.2065625 3.27734375 1.828125 C4.17720492 4.53257263 5.20702019 5.2082314 7.5625 6.75 C8.20316406 7.17796875 8.84382812 7.6059375 9.50390625 8.046875 C9.99761719 8.36140625 10.49132812 8.6759375 11 9 C9 10 9 10 7.08984375 9.43359375 C4.89420697 8.41746421 2.94260915 7.44735055 1 6 C0 2.75 0 2.75 0 0 Z " fill="#252627" transform="translate(207,324)"/>
<path d="M0 0 C-1.45855647 3.68646141 -3.30229045 5.16143971 -6.625 7.25 C-7.44226563 7.77078125 -8.25953125 8.2915625 -9.1015625 8.828125 C-10.04128906 9.40820312 -10.04128906 9.40820312 -11 10 C-10.62207203 7.32543283 -10.20233084 6.19388186 -8.22265625 4.296875 C-7.50980469 3.78640625 -6.79695312 3.2759375 -6.0625 2.75 C-5.35222656 2.22921875 -4.64195312 1.7084375 -3.91015625 1.171875 C-2 0 -2 0 0 0 Z " fill="#1B1B1C" transform="translate(655,487)"/>
<path d="M0 0 C6.35945776 1.24086981 9.18350306 5.14469324 13 10 C10 10 10 10 8.28125 8.57421875 C7.6934375 7.95160156 7.105625 7.32898438 6.5 6.6875 C5.61828125 5.76517578 5.61828125 5.76517578 4.71875 4.82421875 C4.1515625 4.22222656 3.584375 3.62023437 3 3 C2.00340326 1.99660828 1.00458358 0.99539531 0 0 Z " fill="#2B2D2D" transform="translate(731,648)"/>
<path d="M0 0 C0.99 0.33 1.98 0.66 3 1 C-0.3 3.64 -3.6 6.28 -7 9 C-7.66 8.67 -8.32 8.34 -9 8 C-2.92207792 1.75324675 -2.92207792 1.75324675 0 0 Z " fill="#222223" transform="translate(571,548)"/>
<path d="M0 0 C1.48285242 0.95262034 2.96118201 1.91228405 4.4375 2.875 C5.67306641 3.67550781 5.67306641 3.67550781 6.93359375 4.4921875 C9 6 9 6 10 8 C8.3125 8.8125 8.3125 8.8125 6 9 C2.616114 6.24567419 0.8302317 4.26063959 0 0 Z " fill="#252525" transform="translate(339,424)"/>
<path d="M0 0 C1.46300982 0.93018526 2.92025579 1.86944027 4.375 2.8125 C5.18710937 3.33457031 5.99921875 3.85664063 6.8359375 4.39453125 C9 6 9 6 11 9 C8.625 8.75 8.625 8.75 6 8 C5.30062468 6.68352881 4.63270867 5.34977849 4 4 C1.94999129 3.19471111 1.94999129 3.19471111 0 3 C0 2.01 0 1.02 0 0 Z " fill="#262727" transform="translate(323,412)"/>
<path d="M0 0 C0.53625 0.268125 1.0725 0.53625 1.625 0.8125 C-2.25064767 4.42389896 -2.25064767 4.42389896 -4.375 5.8125 C-6.75 5.625 -6.75 5.625 -8.375 4.8125 C-2.95961538 -0.23365385 -2.95961538 -0.23365385 0 0 Z " fill="#1E2021" transform="translate(706.375,412.1875)"/>
<path d="M0 0 C1.48285242 0.95262034 2.96118201 1.91228405 4.4375 2.875 C5.67306641 3.67550781 5.67306641 3.67550781 6.93359375 4.4921875 C9 6 9 6 10 8 C5.61999924 7.49942848 3.15830185 6.06806466 0 3 C0 2.01 0 1.02 0 0 Z " fill="#242525" transform="translate(824,287)"/>
<path d="M0 0 C1.31611677 0.95336021 2.62778961 1.91285774 3.9375 2.875 C4.66839844 3.40867187 5.39929688 3.94234375 6.15234375 4.4921875 C8 6 8 6 9 8 C2.25 6.375 2.25 6.375 0 3 C0 2.01 0 1.02 0 0 Z " fill="#252627" transform="translate(668,549)"/>
<path d="M0 0 C2.70931419 0.15481795 4.46584039 0.48172081 6.4453125 2.40234375 C7.67679642 3.89771708 8.8429837 5.4462924 10 7 C6.06830895 7 4.83572772 5.60580385 2 3 C2 2.34 2 1.68 2 1 C1.34 0.67 0.68 0.34 0 0 Z " fill="#1C1D1E" transform="translate(622,549)"/>
<path d="M0 0 C4.83256305 0.41421969 6.82679218 2.46413986 10 6 C5.16743695 5.58578031 3.17320782 3.53586014 0 0 Z " fill="#202122" transform="translate(375,453)"/>
<path d="M0 0 C0.99 0.33 1.98 0.66 3 1 C-1.455 4.465 -1.455 4.465 -6 8 C-6.33 7.01 -6.66 6.02 -7 5 C-5.90554162 4.13342884 -4.79902219 3.28207276 -3.6875 2.4375 C-3.07261719 1.96183594 -2.45773437 1.48617188 -1.82421875 0.99609375 C-1.22222656 0.66738281 -0.62023437 0.33867187 0 0 Z " fill="#222224" transform="translate(793,383)"/>
<path d="M0 0 C4.31320068 1.75722991 7.9031084 4.8062168 10 9 C6.55729549 7.46990911 3.81074178 5.5068778 1 3 C0.67 2.01 0.34 1.02 0 0 Z " fill="#1E1F20" transform="translate(227,378)"/>
<path d="M0 0 C0.53625 0.268125 1.0725 0.53625 1.625 0.8125 C-2.25064767 4.42389896 -2.25064767 4.42389896 -4.375 5.8125 C-6.75 5.625 -6.75 5.625 -8.375 4.8125 C-2.95961538 -0.23365385 -2.95961538 -0.23365385 0 0 Z " fill="#1D1E1F" transform="translate(772.375,363.1875)"/>
<path d="M0 0 C2 3 2 3 1.3125 6.5625 C0 10 0 10 -3 12 C-2.49202991 7.6822542 -1.80317221 3.96697886 0 0 Z " fill="#252627" transform="translate(175,320)"/>
<path d="M0 0 C8.97478992 -0.29915966 8.97478992 -0.29915966 12 2 C12.33 2.99 12.66 3.98 13 5 C11.58208592 4.54554036 10.16571954 4.08625056 8.75 3.625 C7.96109375 3.36976563 7.1721875 3.11453125 6.359375 2.8515625 C4.13372042 2.04826333 2.09068328 1.10288338 0 0 Z " fill="#2B2C2D" transform="translate(791,307)"/>
<path d="M0 0 C0 0.66 0 1.32 0 2 C0.99 2.66 1.98 3.32 3 4 C3 4.66 3 5.32 3 6 C-0.93673644 4.68775452 -3.22719294 3.08089673 -6 0 C-3 -1 -3 -1 0 0 Z " fill="#212223" transform="translate(200,729)"/>
<path d="M0 0 C4.37859255 0.50522222 6.81651224 3.17827222 10 6 C8.3125 6.8125 8.3125 6.8125 6 7 C3.48814606 4.8386373 1.49018781 2.98037561 0 0 Z " fill="#1C1C1D" transform="translate(648,533)"/>
<path d="M0 0 C4.41889613 1.35021826 6.34345343 3.26115668 9 7 C5.0480185 7 3.85351584 5.62823828 1 3 C0.67 2.01 0.34 1.02 0 0 Z " fill="#1E1E1F" transform="translate(338,461)"/>
<path d="M0 0 C4.55015893 1.51671964 6.50057264 5.16891053 9 9 C4.71930097 7.41455592 2.70478088 4.5312417 0 1 C0 0.67 0 0.34 0 0 Z " fill="#1E1F1F" transform="translate(743,657)"/>
<path d="M0 0 C0.33 0 0.66 0 1 0 C1 6.93 1 13.86 1 21 C0.67 21 0.34 21 0 21 C0 14.07 0 7.14 0 0 Z " fill="#373939" transform="translate(825,600)"/>
<path d="M0 0 C4.31392226 0.4793247 6.16569547 1.7457985 9 5 C4.68607774 4.5206753 2.83430453 3.2542015 0 0 Z " fill="#1E2020" transform="translate(309,404)"/>
<path d="M0 0 C1.48828125 1.14453125 1.48828125 1.14453125 3 3 C3.29296875 5.69921875 3.29296875 5.69921875 3.1875 8.6875 C3.16042969 9.68136719 3.13335937 10.67523437 3.10546875 11.69921875 C3.07066406 12.45847656 3.03585938 13.21773437 3 14 C0.81005752 10.71508627 0.64722661 9.16904361 0.375 5.3125 C0.30023438 4.31863281 0.22546875 3.32476563 0.1484375 2.30078125 C0.09945312 1.54152344 0.05046875 0.78226563 0 0 Z " fill="#383A3A" transform="translate(170,684)"/>
<path d="M0 0 C0.66 0.33 1.32 0.66 2 1 C0.515 3.475 0.515 3.475 -1 6 C-1.625 4.125 -1.625 4.125 -2 2 C-1.34 1.34 -0.68 0.68 0 0 Z M-4 6 C-3.34 6.33 -2.68 6.66 -2 7 C-2.99 7.99 -3.98 8.98 -5 10 C-5.66 9.67 -6.32 9.34 -7 9 C-6.01 8.01 -5.02 7.02 -4 6 Z " fill="#1A1B1C" transform="translate(219,675)"/>
<path d="M0 0 C0.66 0.33 1.32 0.66 2 1 C0.71451591 2.33929505 -0.57858155 3.67128643 -1.875 5 C-2.59429687 5.7425 -3.31359375 6.485 -4.0546875 7.25 C-6 9 -6 9 -8 9 C-6.90101298 5.70303895 -6.05402613 4.95329411 -3.4375 2.8125 C-2.79683594 2.28269531 -2.15617188 1.75289062 -1.49609375 1.20703125 C-0.75552734 0.60955078 -0.75552734 0.60955078 0 0 Z " fill="#2E2F30" transform="translate(229,666)"/>
<path d="M0 0 C3.67420866 0.30618405 4.78135513 0.75771784 7.3125 3.5625 C8.1478125 4.7690625 8.1478125 4.7690625 9 6 C4.58763974 6 3.21615077 3.9302707 0 1 C0 0.67 0 0.34 0 0 Z " fill="#1B1C1D" transform="translate(684,605)"/>
<path d="M0 0 C3.11743233 1.50098594 6.15501823 3.02431822 9 5 C9 5.99 9 6.98 9 8 C7.68388323 7.04663979 6.37221039 6.08714226 5.0625 5.125 C4.33160156 4.59132813 3.60070312 4.05765625 2.84765625 3.5078125 C1 2 1 2 0 0 Z " fill="#2B2C2C" transform="translate(633,559)"/>
<path d="M0 0 C2.31 1.65 4.62 3.3 7 5 C3.37673261 6.2077558 2.35853631 5.54311128 -1 4 C-0.67 2.68 -0.34 1.36 0 0 Z " fill="#222324" transform="translate(457,512)"/>
<path d="M0 0 C0.66 0.33 1.32 0.66 2 1 C1.1875 2.9375 1.1875 2.9375 0 5 C-0.99 5.33 -1.98 5.66 -3 6 C-3.66 5.34 -4.32 4.68 -5 4 C-3.35 2.68 -1.7 1.36 0 0 Z " fill="#212323" transform="translate(617,477)"/>
<path d="M0 0 C2.78211944 0.37596209 4.5879284 0.67318459 6.8125 2.4375 C8 4 8 4 8 6 C4.63408134 4.55746343 2.48952921 2.66735273 0 0 Z " fill="#252626" transform="translate(284,422)"/>
<path d="M0 0 C-5.2734375 3.22265625 -5.2734375 3.22265625 -7 4 C-7.66 3.67 -8.32 3.34 -9 3 C-5.83583464 -0.30799106 -4.50236011 -1.35070803 0 0 Z " fill="#282A2B" transform="translate(824,736)"/>
<path d="M0 0 C2.31 1.98 4.62 3.96 7 6 C6.01 6.66 5.02 7.32 4 8 C0 3.375 0 3.375 0 0 Z " fill="#1C1D1D" transform="translate(789,659)"/>
<path d="M0 0 C2.31 1.65 4.62 3.3 7 5 C5.68 5.33 4.36 5.66 3 6 C2.01 5.34 1.02 4.68 0 4 C0 2.68 0 1.36 0 0 Z " fill="#242526" transform="translate(441,500)"/>
<path d="M0 0 C2.64 1.98 5.28 3.96 8 6 C7.01 6.495 7.01 6.495 6 7 C3.4375 5.8125 3.4375 5.8125 1 4 C0.67 2.68 0.34 1.36 0 0 Z " fill="#272829" transform="translate(766,638)"/>
<path d="M0 0 C2.31 1.98 4.62 3.96 7 6 C6.01 6.33 5.02 6.66 4 7 C2 5.1875 2 5.1875 0 3 C0 2.01 0 1.02 0 0 Z " fill="#1A1A1C" transform="translate(699,577)"/>
<path d="M0 0 C-1.39332574 3.36720387 -2.9789286 4.9859524 -6 7 C-6 4 -6 4 -4.125 1.8125 C-2 0 -2 0 0 0 Z " fill="#18191B" transform="translate(391,560)"/>
<path d="M0 0 C2.31 1.65 4.62 3.3 7 5 C5.68 5.33 4.36 5.66 3 6 C1.25 4.75 1.25 4.75 0 3 C0 2.01 0 1.02 0 0 Z " fill="#252526" transform="translate(405,473)"/>
<path d="M0 0 C2.31 1.65 4.62 3.3 7 5 C5.68 5.33 4.36 5.66 3 6 C1.25 4.75 1.25 4.75 0 3 C0 2.01 0 1.02 0 0 Z " fill="#262728" transform="translate(393,464)"/>
<path d="M0 0 C0.66 0.33 1.32 0.66 2 1 C0.68 2.65 -0.64 4.3 -2 6 C-3.32 5.67 -4.64 5.34 -6 5 C-4.02 3.35 -2.04 1.7 0 0 Z " fill="#28292A" transform="translate(649,453)"/>
<path d="M0 0 C0.66 0.33 1.32 0.66 2 1 C1.375 2.9375 1.375 2.9375 0 5 C-3.125 5.75 -3.125 5.75 -6 6 C-4 4 -2 2 0 0 Z " fill="#2A2C2D" transform="translate(665,441)"/>
<path d="M0 0 C0.66 0.33 1.32 0.66 2 1 C0.29374499 3.78388975 -0.47626739 4.85384206 -3.6875 5.75 C-4.8321875 5.87375 -4.8321875 5.87375 -6 6 C-4 4 -2 2 0 0 Z " fill="#2A2B2C" transform="translate(743,383)"/>
<path d="M0 0 C2.1875 0.3125 2.1875 0.3125 4 1 C2.35 2.32 0.7 3.64 -1 5 C-1.66 4.34 -2.32 3.68 -3 3 C-1.75 1.4375 -1.75 1.4375 0 0 Z " fill="#1F2021" transform="translate(193,294)"/>
<path d="M0 0 C-3.18762365 2.12508244 -5.26512223 2.5020163 -9 3 C-8.34 2.67 -7.68 2.34 -7 2 C-7 1.34 -7 0.68 -7 0 C-4.3333581 -1.33332095 -2.83319697 -0.67102033 0 0 Z " fill="#29292B" transform="translate(541,569)"/>
<path d="M0 0 C0.99 0.33 1.98 0.66 3 1 C0.69 2.65 -1.62 4.3 -4 6 C-3 2 -3 2 0 0 Z " fill="#252626" transform="translate(691,459)"/>
<path d="M0 0 C0.66 0.33 1.32 0.66 2 1 C0.35 2.98 -1.3 4.96 -3 7 C-3.99 6.34 -4.98 5.68 -6 5 C-4.02 3.35 -2.04 1.7 0 0 Z " fill="#282928" transform="translate(790,348)"/>
<path d="M0 0 C0.33 0 0.66 0 1 0 C1 3.3 1 6.6 1 10 C0.67 10 0.34 10 0 10 C0 6.7 0 3.4 0 0 Z " fill="#383939" transform="translate(825,475)"/>
<path d="M0 0 C0.33 0 0.66 0 1 0 C1 2.31 1 4.62 1 7 C0.67 7 0.34 7 0 7 C0 4.69 0 2.38 0 0 Z " fill="#373839" transform="translate(825,591)"/>
<path d="M0 0 C0.33 0 0.66 0 1 0 C1 2.31 1 4.62 1 7 C0.67 7 0.34 7 0 7 C0 4.69 0 2.38 0 0 Z " fill="#393A3C" transform="translate(825,498)"/>
<path d="M0 0 C0.33 0 0.66 0 1 0 C1 2.31 1 4.62 1 7 C0.67 7 0.34 7 0 7 C0 4.69 0 2.38 0 0 Z " fill="#39393A" transform="translate(825,490)"/>
<path d="M0 0 C0.33 0 0.66 0 1 0 C1 1.98 1 3.96 1 6 C0.67 6 0.34 6 0 6 C0 4.02 0 2.04 0 0 Z " fill="#38383A" transform="translate(825,623)"/>
<path d="M0 0 C0.33 0 0.66 0 1 0 C1 1.98 1 3.96 1 6 C0.67 6 0.34 6 0 6 C0 4.02 0 2.04 0 0 Z " fill="#393A3B" transform="translate(825,551)"/>
<path d="M0 0 C0.33 0 0.66 0 1 0 C1 1.65 1 3.3 1 5 C0.67 5 0.34 5 0 5 C0 3.35 0 1.7 0 0 Z " fill="#383839" transform="translate(825,571)"/>
<path d="M0 0 C0.33 0 0.66 0 1 0 C1 1.65 1 3.3 1 5 C0.67 5 0.34 5 0 5 C0 3.35 0 1.7 0 0 Z " fill="#343537" transform="translate(825,363)"/>
<path d="M0 0 C0.99 0.495 0.99 0.495 2 1 C1.67 1.66 1.34 2.32 1 3 C0.67 2.01 0.34 1.02 0 0 Z " fill="#363737" transform="translate(232,658)"/>
<path d="M0 0 C1 4 1 4 1 4 Z " fill="#363939" transform="translate(825,650)"/>
<path d="M0 0 C1 4 1 4 1 4 Z " fill="#373939" transform="translate(825,634)"/>
<path d="M0 0 C1 4 1 4 1 4 Z " fill="#37393B" transform="translate(825,586)"/>
<path d="M0 0 C1 4 1 4 1 4 Z " fill="#383A3B" transform="translate(825,578)"/>
<path d="M0 0 C4 1 4 1 4 1 Z " fill="#38393A" transform="translate(508,575)"/>
<path d="M0 0 C0.99 0.33 1.98 0.66 3 1 C2.01 1 1.02 1 0 1 C0 0.67 0 0.34 0 0 Z " fill="#343435" transform="translate(309,400)"/>
<path d="M0 0 C1 4 1 4 1 4 Z " fill="#3D3D3E" transform="translate(168,336)"/>
<path d="" fill="#3D3F3F" transform="translate(0,0)"/>
<path d="" fill="#404042" transform="translate(0,0)"/>
<path d="" fill="#3D3E3F" transform="translate(0,0)"/>
<path d="M0 0 C0.99 0.495 0.99 0.495 2 1 C1.01 1.495 1.01 1.495 0 2 C0 1.34 0 0.68 0 0 Z " fill="#333436" transform="translate(217,674)"/>
<path d="" fill="#363839" transform="translate(0,0)"/>
<path d="" fill="#363738" transform="translate(0,0)"/>
<path d="M0 0 C3 1 3 1 3 1 Z " fill="#333537" transform="translate(235,657)"/>
<path d="" fill="#373939" transform="translate(0,0)"/>
<path d="M0 0 C3 1 3 1 3 1 Z " fill="#373739" transform="translate(517,575)"/>
<path d="" fill="#37393B" transform="translate(0,0)"/>
<path d="" fill="#383A3B" transform="translate(0,0)"/>
<path d="M0 0 C0.66 0.66 1.32 1.32 2 2 C1.34 2 0.68 2 0 2 C0 1.34 0 0.68 0 0 Z " fill="#373638" transform="translate(608,538)"/>
<path d="" fill="#393A3A" transform="translate(0,0)"/>
<path d="" fill="#383839" transform="translate(0,0)"/>
<path d="" fill="#383939" transform="translate(0,0)"/>
<path d="" fill="#38393A" transform="translate(0,0)"/>
<path d="M0 0 C0.33 0.66 0.66 1.32 1 2 C0.34 1.67 -0.32 1.34 -1 1 C-0.67 0.67 -0.34 0.34 0 0 Z " fill="#373939" transform="translate(329,458)"/>
<path d="" fill="#38393A" transform="translate(0,0)"/>
<path d="M0 0 C0.33 0.66 0.66 1.32 1 2 C0.34 1.67 -0.32 1.34 -1 1 C-0.67 0.67 -0.34 0.34 0 0 Z " fill="#373839" transform="translate(313,446)"/>
<path d="" fill="#383939" transform="translate(0,0)"/>
<path d="" fill="#373839" transform="translate(0,0)"/>
<path d="M0 0 C0.33 0.66 0.66 1.32 1 2 C0.34 1.67 -0.32 1.34 -1 1 C-0.67 0.67 -0.34 0.34 0 0 Z " fill="#363738" transform="translate(281,422)"/>
<path d="" fill="#373839" transform="translate(0,0)"/>
<path d="" fill="#363738" transform="translate(0,0)"/>
<path d="" fill="#363738" transform="translate(0,0)"/>
<path d="" fill="#353738" transform="translate(0,0)"/>
<path d="M0 0 C3 1 3 1 3 1 Z " fill="#353638" transform="translate(792,344)"/>
<path d="M0 0 C0.66 0 1.32 0 2 0 C1.67 0.66 1.34 1.32 1 2 C0.67 1.34 0.34 0.68 0 0 Z " fill="#36373A" transform="translate(812,328)"/>
<path d="M0 0 C3 1 3 1 3 1 Z " fill="#393A3B" transform="translate(785,308)"/>
<path d="M0 0 C2 1 2 1 2 1 Z " fill="#3E3E3E" transform="translate(397,747)"/>
<path d="M0 0 C2 1 2 1 2 1 Z " fill="#3E3E3D" transform="translate(341,747)"/>
<path d="M0 0 C2 1 2 1 2 1 Z " fill="#3D3D3E" transform="translate(171,702)"/>
<path d="" fill="#3D3E40" transform="translate(0,0)"/>
<path d="" fill="#343535" transform="translate(0,0)"/>
<path d="" fill="#373837" transform="translate(0,0)"/>
<path d="" fill="#38383A" transform="translate(0,0)"/>
<path d="M0 0 C2 1 2 1 2 1 Z " fill="#363537" transform="translate(290,608)"/>
<path d="" fill="#363637" transform="translate(0,0)"/>
<path d="" fill="#37393C" transform="translate(0,0)"/>
<path d="M0 0 C2 1 2 1 2 1 Z " fill="#3C3D3E" transform="translate(524,575)"/>
<path d="M0 0 C2 1 2 1 2 1 Z " fill="#3D3C3F" transform="translate(521,575)"/>
<path d="M0 0 C2 1 2 1 2 1 Z " fill="#3B3C3D" transform="translate(504,575)"/>
<path d="" fill="#383838" transform="translate(0,0)"/>
<path d="" fill="#363838" transform="translate(0,0)"/>
<path d="M0 0 C2 1 2 1 2 1 Z " fill="#39383A" transform="translate(474,565)"/>
<path d="" fill="#38393A" transform="translate(0,0)"/>
<path d="M0 0 C2 1 2 1 2 1 Z " fill="#373639" transform="translate(583,543)"/>
<path d="M0 0 C2 1 2 1 2 1 Z " fill="#3C3D3D" transform="translate(521,539)"/>
<path d="" fill="#37373A" transform="translate(0,0)"/>
<path d="" fill="#393B39" transform="translate(0,0)"/>
<path d="" fill="#3A3B3C" transform="translate(0,0)"/>
<path d="" fill="#373939" transform="translate(0,0)"/>
<path d="M0 0 C2 1 2 1 2 1 Z " fill="#383A3A" transform="translate(599,488)"/>
<path d="M0 0 C2 1 2 1 2 1 Z " fill="#373B3A" transform="translate(420,481)"/>
<path d="" fill="#373739" transform="translate(0,0)"/>
<path d="M0 0 C2 1 2 1 2 1 Z " fill="#393B3A" transform="translate(631,464)"/>
<path d="M0 0 C2 1 2 1 2 1 Z " fill="#363838" transform="translate(398,464)"/>
<path d="M0 0 C2 1 2 1 2 1 Z " fill="#373939" transform="translate(299,438)"/>
<path d="" fill="#383839" transform="translate(0,0)"/>
<path d="M0 0 C2 1 2 1 2 1 Z " fill="#363739" transform="translate(342,424)"/>
<path d="" fill="#393A3A" transform="translate(0,0)"/>
<path d="M0 0 C2 1 2 1 2 1 Z " fill="#393839" transform="translate(696,416)"/>
<path d="" fill="#353637" transform="translate(0,0)"/>
<path d="" fill="#343737" transform="translate(0,0)"/>
<path d="" fill="#383839" transform="translate(0,0)"/>
<path d="M0 0 C2 1 2 1 2 1 Z " fill="#3C3E3F" transform="translate(501,311)"/>
<path d="M0 0 C2 1 2 1 2 1 Z " fill="#393A3A" transform="translate(792,309)"/>
<path d="M0 0 C2 1 2 1 2 1 Z " fill="#404243" transform="translate(180,305)"/>
<path d="" fill="#545554" transform="translate(0,0)"/>
<path d="" fill="#40403F" transform="translate(0,0)"/>
<path d="" fill="#3F413F" transform="translate(0,0)"/>
<path d="" fill="#3F413E" transform="translate(0,0)"/>
<path d="" fill="#3F3F3F" transform="translate(0,0)"/>
<path d="" fill="#3E3F3E" transform="translate(0,0)"/>
<path d="" fill="#3F3F3E" transform="translate(0,0)"/>
<path d="" fill="#3E3D3E" transform="translate(0,0)"/>
<path d="" fill="#3F403F" transform="translate(0,0)"/>
<path d="" fill="#404040" transform="translate(0,0)"/>
<path d="" fill="#3F3D3F" transform="translate(0,0)"/>
<path d="" fill="#3E403F" transform="translate(0,0)"/>
<path d="" fill="#3F3F3E" transform="translate(0,0)"/>
<path d="" fill="#403F3F" transform="translate(0,0)"/>
<path d="" fill="#3F403D" transform="translate(0,0)"/>
<path d="" fill="#3F3F3E" transform="translate(0,0)"/>
<path d="" fill="#3E3D3E" transform="translate(0,0)"/>
<path d="" fill="#3E3E3F" transform="translate(0,0)"/>
<path d="" fill="#3F3F3F" transform="translate(0,0)"/>
<path d="" fill="#403E40" transform="translate(0,0)"/>
<path d="" fill="#3E3F3D" transform="translate(0,0)"/>
<path d="" fill="#3E3F3F" transform="translate(0,0)"/>
<path d="" fill="#3E4040" transform="translate(0,0)"/>
<path d="" fill="#3E3F3F" transform="translate(0,0)"/>
<path d="" fill="#3E3F3F" transform="translate(0,0)"/>
<path d="" fill="#403F3E" transform="translate(0,0)"/>
<path d="" fill="#3F3E3F" transform="translate(0,0)"/>
<path d="" fill="#403F3F" transform="translate(0,0)"/>
<path d="" fill="#3F4040" transform="translate(0,0)"/>
<path d="" fill="#3E3D3E" transform="translate(0,0)"/>
<path d="" fill="#3F3F3D" transform="translate(0,0)"/>
<path d="" fill="#403F3F" transform="translate(0,0)"/>
<path d="" fill="#3D3F3F" transform="translate(0,0)"/>
<path d="" fill="#3E3F3F" transform="translate(0,0)"/>
<path d="" fill="#3F3F3F" transform="translate(0,0)"/>
<path d="" fill="#414142" transform="translate(0,0)"/>
<path d="" fill="#424142" transform="translate(0,0)"/>
<path d="" fill="#434243" transform="translate(0,0)"/>
<path d="" fill="#403E3F" transform="translate(0,0)"/>
<path d="" fill="#3E3F40" transform="translate(0,0)"/>
<path d="" fill="#414043" transform="translate(0,0)"/>
<path d="" fill="#3F3F41" transform="translate(0,0)"/>
<path d="" fill="#3E3F3E" transform="translate(0,0)"/>
<path d="" fill="#3D3E3F" transform="translate(0,0)"/>
<path d="" fill="#3E3F41" transform="translate(0,0)"/>
<path d="" fill="#3A3A3B" transform="translate(0,0)"/>
<path d="" fill="#3B3D3E" transform="translate(0,0)"/>
<path d="" fill="#3F4040" transform="translate(0,0)"/>
<path d="" fill="#3D3F3E" transform="translate(0,0)"/>
<path d="" fill="#3E3E3E" transform="translate(0,0)"/>
<path d="" fill="#3E3F3F" transform="translate(0,0)"/>
<path d="" fill="#3F4041" transform="translate(0,0)"/>
<path d="" fill="#333133" transform="translate(0,0)"/>
<path d="" fill="#323334" transform="translate(0,0)"/>
<path d="" fill="#333434" transform="translate(0,0)"/>
<path d="" fill="#3D3F41" transform="translate(0,0)"/>
<path d="" fill="#3D3F40" transform="translate(0,0)"/>
<path d="" fill="#373939" transform="translate(0,0)"/>
<path d="" fill="#373639" transform="translate(0,0)"/>
<path d="" fill="#3A393A" transform="translate(0,0)"/>
<path d="" fill="#3A3A3B" transform="translate(0,0)"/>
<path d="" fill="#303234" transform="translate(0,0)"/>
<path d="" fill="#373839" transform="translate(0,0)"/>
<path d="" fill="#343536" transform="translate(0,0)"/>
<path d="" fill="#363538" transform="translate(0,0)"/>
<path d="" fill="#323337" transform="translate(0,0)"/>
<path d="" fill="#353537" transform="translate(0,0)"/>
<path d="" fill="#343538" transform="translate(0,0)"/>
<path d="" fill="#363837" transform="translate(0,0)"/>
<path d="" fill="#383637" transform="translate(0,0)"/>
<path d="" fill="#363637" transform="translate(0,0)"/>
<path d="" fill="#363736" transform="translate(0,0)"/>
<path d="" fill="#373839" transform="translate(0,0)"/>
<path d="" fill="#3A3A3B" transform="translate(0,0)"/>
<path d="" fill="#3B393A" transform="translate(0,0)"/>
<path d="" fill="#3B393B" transform="translate(0,0)"/>
<path d="" fill="#38393A" transform="translate(0,0)"/>
<path d="" fill="#3A3A3B" transform="translate(0,0)"/>
<path d="" fill="#383A38" transform="translate(0,0)"/>
<path d="" fill="#383939" transform="translate(0,0)"/>
<path d="" fill="#353738" transform="translate(0,0)"/>
<path d="" fill="#373738" transform="translate(0,0)"/>
<path d="" fill="#363937" transform="translate(0,0)"/>
<path d="" fill="#373538" transform="translate(0,0)"/>
<path d="" fill="#373938" transform="translate(0,0)"/>
<path d="" fill="#373A37" transform="translate(0,0)"/>
<path d="" fill="#313234" transform="translate(0,0)"/>
<path d="" fill="#38383A" transform="translate(0,0)"/>
<path d="" fill="#393838" transform="translate(0,0)"/>
<path d="" fill="#333737" transform="translate(0,0)"/>
<path d="" fill="#383838" transform="translate(0,0)"/>
<path d="" fill="#373737" transform="translate(0,0)"/>
<path d="" fill="#393B3A" transform="translate(0,0)"/>
<path d="" fill="#353537" transform="translate(0,0)"/>
<path d="" fill="#353636" transform="translate(0,0)"/>
<path d="" fill="#37383A" transform="translate(0,0)"/>
<path d="" fill="#363939" transform="translate(0,0)"/>
<path d="" fill="#38393A" transform="translate(0,0)"/>
<path d="" fill="#343736" transform="translate(0,0)"/>
<path d="" fill="#353435" transform="translate(0,0)"/>
<path d="" fill="#3A3A3B" transform="translate(0,0)"/>
<path d="" fill="#373939" transform="translate(0,0)"/>
<path d="" fill="#373736" transform="translate(0,0)"/>
<path d="" fill="#39393A" transform="translate(0,0)"/>
<path d="" fill="#39393A" transform="translate(0,0)"/>
<path d="" fill="#383739" transform="translate(0,0)"/>
<path d="" fill="#3A383B" transform="translate(0,0)"/>
<path d="" fill="#393839" transform="translate(0,0)"/>
<path d="" fill="#393A3C" transform="translate(0,0)"/>
<path d="" fill="#3A393A" transform="translate(0,0)"/>
<path d="" fill="#38383A" transform="translate(0,0)"/>
<path d="" fill="#383A3B" transform="translate(0,0)"/>
<path d="" fill="#38393A" transform="translate(0,0)"/>
<path d="" fill="#393A3A" transform="translate(0,0)"/>
<path d="" fill="#373637" transform="translate(0,0)"/>
<path d="" fill="#363739" transform="translate(0,0)"/>
<path d="" fill="#393739" transform="translate(0,0)"/>
<path d="" fill="#383937" transform="translate(0,0)"/>
<path d="" fill="#373B3B" transform="translate(0,0)"/>
<path d="" fill="#373638" transform="translate(0,0)"/>
<path d="" fill="#37393B" transform="translate(0,0)"/>
<path d="" fill="#333A3B" transform="translate(0,0)"/>
<path d="" fill="#363837" transform="translate(0,0)"/>
<path d="" fill="#393B3D" transform="translate(0,0)"/>
<path d="" fill="#37383A" transform="translate(0,0)"/>
<path d="" fill="#393B3A" transform="translate(0,0)"/>
<path d="" fill="#3D3F40" transform="translate(0,0)"/>
<path d="" fill="#3D4040" transform="translate(0,0)"/>
<path d="" fill="#383839" transform="translate(0,0)"/>
<path d="" fill="#3B3D3C" transform="translate(0,0)"/>
<path d="" fill="#3B3B3D" transform="translate(0,0)"/>
<path d="" fill="#3A3A3D" transform="translate(0,0)"/>
<path d="" fill="#3B3A3D" transform="translate(0,0)"/>
<path d="" fill="#343637" transform="translate(0,0)"/>
<path d="" fill="#383738" transform="translate(0,0)"/>
<path d="" fill="#393C3C" transform="translate(0,0)"/>
<path d="" fill="#3A3A3C" transform="translate(0,0)"/>
<path d="" fill="#343536" transform="translate(0,0)"/>
<path d="" fill="#393939" transform="translate(0,0)"/>
<path d="" fill="#393B3C" transform="translate(0,0)"/>
<path d="" fill="#38373A" transform="translate(0,0)"/>
<path d="" fill="#363838" transform="translate(0,0)"/>
<path d="" fill="#343435" transform="translate(0,0)"/>
<path d="" fill="#363737" transform="translate(0,0)"/>
<path d="" fill="#373637" transform="translate(0,0)"/>
<path d="" fill="#3A3D40" transform="translate(0,0)"/>
<path d="" fill="#383839" transform="translate(0,0)"/>
<path d="" fill="#393B3C" transform="translate(0,0)"/>
<path d="" fill="#38383A" transform="translate(0,0)"/>
<path d="" fill="#373839" transform="translate(0,0)"/>
<path d="" fill="#3A3A3B" transform="translate(0,0)"/>
<path d="" fill="#3A3C3D" transform="translate(0,0)"/>
<path d="" fill="#363536" transform="translate(0,0)"/>
<path d="" fill="#373737" transform="translate(0,0)"/>
<path d="" fill="#373738" transform="translate(0,0)"/>
<path d="" fill="#363639" transform="translate(0,0)"/>
<path d="" fill="#353438" transform="translate(0,0)"/>
<path d="" fill="#39383C" transform="translate(0,0)"/>
<path d="" fill="#3A3A3C" transform="translate(0,0)"/>
<path d="" fill="#3A3A3C" transform="translate(0,0)"/>
<path d="" fill="#37383A" transform="translate(0,0)"/>
<path d="" fill="#3A3839" transform="translate(0,0)"/>
<path d="" fill="#3A3939" transform="translate(0,0)"/>
<path d="" fill="#3A3B3A" transform="translate(0,0)"/>
<path d="" fill="#383839" transform="translate(0,0)"/>
<path d="" fill="#353537" transform="translate(0,0)"/>
<path d="" fill="#353839" transform="translate(0,0)"/>
<path d="" fill="#323236" transform="translate(0,0)"/>
<path d="" fill="#3C3A3D" transform="translate(0,0)"/>
<path d="" fill="#38393B" transform="translate(0,0)"/>
<path d="" fill="#35383C" transform="translate(0,0)"/>
<path d="" fill="#343537" transform="translate(0,0)"/>
<path d="" fill="#3A3C3C" transform="translate(0,0)"/>
<path d="" fill="#39393A" transform="translate(0,0)"/>
<path d="" fill="#363637" transform="translate(0,0)"/>
<path d="" fill="#38383B" transform="translate(0,0)"/>
<path d="" fill="#353637" transform="translate(0,0)"/>
<path d="" fill="#3B3B3D" transform="translate(0,0)"/>
<path d="" fill="#3D3C3B" transform="translate(0,0)"/>
<path d="" fill="#343637" transform="translate(0,0)"/>
<path d="" fill="#383A3C" transform="translate(0,0)"/>
<path d="" fill="#414243" transform="translate(0,0)"/>
<path d="" fill="#3B3C3A" transform="translate(0,0)"/>
<path d="" fill="#3B3B3C" transform="translate(0,0)"/>
<path d="" fill="#37393C" transform="translate(0,0)"/>
<path d="" fill="#373938" transform="translate(0,0)"/>
<path d="" fill="#3A3A39" transform="translate(0,0)"/>
<path d="" fill="#3A3C3B" transform="translate(0,0)"/>
<path d="" fill="#353735" transform="translate(0,0)"/>
<path d="" fill="#353437" transform="translate(0,0)"/>
<path d="" fill="#393A3A" transform="translate(0,0)"/>
<path d="" fill="#363839" transform="translate(0,0)"/>
<path d="" fill="#383637" transform="translate(0,0)"/>
<path d="" fill="#37383A" transform="translate(0,0)"/>
<path d="" fill="#3A3A3A" transform="translate(0,0)"/>
<path d="" fill="#37393B" transform="translate(0,0)"/>
<path d="" fill="#373C3C" transform="translate(0,0)"/>
<path d="" fill="#39393A" transform="translate(0,0)"/>
<path d="" fill="#323332" transform="translate(0,0)"/>
<path d="" fill="#39393B" transform="translate(0,0)"/>
<path d="" fill="#363638" transform="translate(0,0)"/>
<path d="" fill="#353737" transform="translate(0,0)"/>
<path d="" fill="#383939" transform="translate(0,0)"/>
<path d="" fill="#3C3B3E" transform="translate(0,0)"/>
<path d="" fill="#383B3C" transform="translate(0,0)"/>
<path d="" fill="#383939" transform="translate(0,0)"/>
<path d="" fill="#363538" transform="translate(0,0)"/>
<path d="" fill="#3A3A3C" transform="translate(0,0)"/>
<path d="" fill="#38393C" transform="translate(0,0)"/>
<path d="" fill="#3A3C3D" transform="translate(0,0)"/>
<path d="" fill="#3C3B3F" transform="translate(0,0)"/>
<path d="" fill="#353337" transform="translate(0,0)"/>
<path d="" fill="#383938" transform="translate(0,0)"/>
<path d="" fill="#383A3B" transform="translate(0,0)"/>
<path d="" fill="#36383A" transform="translate(0,0)"/>
<path d="" fill="#3D3C3D" transform="translate(0,0)"/>
<path d="" fill="#363939" transform="translate(0,0)"/>
<path d="" fill="#3A3B3C" transform="translate(0,0)"/>
<path d="" fill="#36373A" transform="translate(0,0)"/>
<path d="" fill="#39393A" transform="translate(0,0)"/>
<path d="" fill="#383739" transform="translate(0,0)"/>
<path d="" fill="#3A383A" transform="translate(0,0)"/>
<path d="" fill="#383B39" transform="translate(0,0)"/>
<path d="" fill="#383939" transform="translate(0,0)"/>
<path d="" fill="#383839" transform="translate(0,0)"/>
<path d="" fill="#383739" transform="translate(0,0)"/>
<path d="" fill="#3D3C3E" transform="translate(0,0)"/>
<path d="" fill="#393739" transform="translate(0,0)"/>
<path d="" fill="#39393A" transform="translate(0,0)"/>
<path d="" fill="#343737" transform="translate(0,0)"/>
<path d="" fill="#3B3C3C" transform="translate(0,0)"/>
<path d="" fill="#3A393C" transform="translate(0,0)"/>
<path d="" fill="#353635" transform="translate(0,0)"/>
<path d="" fill="#373B3A" transform="translate(0,0)"/>
<path d="" fill="#393B3B" transform="translate(0,0)"/>
<path d="" fill="#3C3C3D" transform="translate(0,0)"/>
<path d="" fill="#3B3A3C" transform="translate(0,0)"/>
<path d="" fill="#373839" transform="translate(0,0)"/>
<path d="" fill="#373738" transform="translate(0,0)"/>
<path d="" fill="#3A3B3A" transform="translate(0,0)"/>
<path d="" fill="#363639" transform="translate(0,0)"/>
<path d="" fill="#393838" transform="translate(0,0)"/>
<path d="" fill="#363738" transform="translate(0,0)"/>
<path d="" fill="#383839" transform="translate(0,0)"/>
<path d="" fill="#3B3B3C" transform="translate(0,0)"/>
<path d="" fill="#353637" transform="translate(0,0)"/>
<path d="" fill="#3A393A" transform="translate(0,0)"/>
<path d="" fill="#383A3A" transform="translate(0,0)"/>
<path d="" fill="#363939" transform="translate(0,0)"/>
<path d="" fill="#363939" transform="translate(0,0)"/>
<path d="" fill="#393A3A" transform="translate(0,0)"/>
<path d="" fill="#3A3B3D" transform="translate(0,0)"/>
<path d="" fill="#353738" transform="translate(0,0)"/>
<path d="" fill="#39393A" transform="translate(0,0)"/>
<path d="" fill="#3A3B3D" transform="translate(0,0)"/>
<path d="" fill="#3C3D3E" transform="translate(0,0)"/>
<path d="" fill="#39393E" transform="translate(0,0)"/>
<path d="" fill="#353739" transform="translate(0,0)"/>
<path d="" fill="#353536" transform="translate(0,0)"/>
<path d="" fill="#383739" transform="translate(0,0)"/>
<path d="" fill="#363536" transform="translate(0,0)"/>
<path d="" fill="#39393C" transform="translate(0,0)"/>
<path d="" fill="#3A3A3D" transform="translate(0,0)"/>
<path d="" fill="#39393A" transform="translate(0,0)"/>
<path d="" fill="#363639" transform="translate(0,0)"/>
<path d="" fill="#393838" transform="translate(0,0)"/>
<path d="" fill="#3A3939" transform="translate(0,0)"/>
<path d="" fill="#383938" transform="translate(0,0)"/>
<path d="" fill="#353435" transform="translate(0,0)"/>
<path d="" fill="#343538" transform="translate(0,0)"/>
<path d="" fill="#3A3A3B" transform="translate(0,0)"/>
<path d="" fill="#363437" transform="translate(0,0)"/>
<path d="" fill="#353538" transform="translate(0,0)"/>
<path d="" fill="#3C3B3B" transform="translate(0,0)"/>
<path d="" fill="#373439" transform="translate(0,0)"/>
<path d="" fill="#363838" transform="translate(0,0)"/>
<path d="" fill="#383739" transform="translate(0,0)"/>
<path d="" fill="#393A3C" transform="translate(0,0)"/>
<path d="" fill="#3A393B" transform="translate(0,0)"/>
<path d="" fill="#38383A" transform="translate(0,0)"/>
<path d="" fill="#373A3B" transform="translate(0,0)"/>
<path d="" fill="#39393C" transform="translate(0,0)"/>
<path d="" fill="#383A3B" transform="translate(0,0)"/>
<path d="" fill="#373839" transform="translate(0,0)"/>
<path d="" fill="#3B3A3E" transform="translate(0,0)"/>
<path d="" fill="#393A39" transform="translate(0,0)"/>
<path d="" fill="#333536" transform="translate(0,0)"/>
<path d="" fill="#353739" transform="translate(0,0)"/>
<path d="" fill="#383738" transform="translate(0,0)"/>
<path d="" fill="#36383B" transform="translate(0,0)"/>
<path d="" fill="#353437" transform="translate(0,0)"/>
<path d="" fill="#3A3A3B" transform="translate(0,0)"/>
<path d="" fill="#383938" transform="translate(0,0)"/>
<path d="" fill="#373839" transform="translate(0,0)"/>
<path d="" fill="#343535" transform="translate(0,0)"/>
<path d="" fill="#37393B" transform="translate(0,0)"/>
<path d="" fill="#3B3B3B" transform="translate(0,0)"/>
<path d="" fill="#353636" transform="translate(0,0)"/>
<path d="" fill="#343436" transform="translate(0,0)"/>
<path d="" fill="#373939" transform="translate(0,0)"/>
<path d="" fill="#393B39" transform="translate(0,0)"/>
<path d="" fill="#3A3A3B" transform="translate(0,0)"/>
<path d="" fill="#323233" transform="translate(0,0)"/>
<path d="" fill="#363737" transform="translate(0,0)"/>
<path d="" fill="#3A3A3A" transform="translate(0,0)"/>
<path d="" fill="#373738" transform="translate(0,0)"/>
<path d="" fill="#3D3D3D" transform="translate(0,0)"/>
<path d="" fill="#3B393C" transform="translate(0,0)"/>
<path d="" fill="#383A3C" transform="translate(0,0)"/>
<path d="" fill="#37393A" transform="translate(0,0)"/>
<path d="" fill="#343335" transform="translate(0,0)"/>
<path d="" fill="#363739" transform="translate(0,0)"/>
<path d="" fill="#373739" transform="translate(0,0)"/>
<path d="" fill="#373939" transform="translate(0,0)"/>
<path d="" fill="#383A3A" transform="translate(0,0)"/>
<path d="" fill="#3C3E3F" transform="translate(0,0)"/>
<path d="" fill="#34363A" transform="translate(0,0)"/>
<path d="" fill="#37363A" transform="translate(0,0)"/>
<path d="" fill="#3D3E40" transform="translate(0,0)"/>
<path d="" fill="#393A3B" transform="translate(0,0)"/>
<path d="" fill="#3D3D40" transform="translate(0,0)"/>
<path d="" fill="#3F4040" transform="translate(0,0)"/>
<path d="" fill="#3E4041" transform="translate(0,0)"/>
<path d="" fill="#37393A" transform="translate(0,0)"/>
<path d="" fill="#3F4041" transform="translate(0,0)"/>
<path d="" fill="#3F3F41" transform="translate(0,0)"/>
<path d="" fill="#3D3D3F" transform="translate(0,0)"/>
<path d="" fill="#40403F" transform="translate(0,0)"/>
<path d="" fill="#3D3E3F" transform="translate(0,0)"/>
<path d="" fill="#3D3E3F" transform="translate(0,0)"/>
<path d="" fill="#3B3B3D" transform="translate(0,0)"/>
<path d="" fill="#3E3E3F" transform="translate(0,0)"/>
<path d="" fill="#3E3D3F" transform="translate(0,0)"/>
<path d="" fill="#3E3D3E" transform="translate(0,0)"/>
<path d="" fill="#3E3F40" transform="translate(0,0)"/>
<path d="" fill="#3D3F3F" transform="translate(0,0)"/>
<path d="" fill="#3F403F" transform="translate(0,0)"/>
<path d="" fill="#3E4241" transform="translate(0,0)"/>
<path d="" fill="#424246" transform="translate(0,0)"/>
<path d="" fill="#3F4343" transform="translate(0,0)"/>
<path d="" fill="#434544" transform="translate(0,0)"/>
<path d="" fill="#404243" transform="translate(0,0)"/>
<path d="" fill="#454546" transform="translate(0,0)"/>
<path d="" fill="#424242" transform="translate(0,0)"/>
<path d="" fill="#434242" transform="translate(0,0)"/>
<path d="" fill="#413F3E" transform="translate(0,0)"/>
<path d="" fill="#454645" transform="translate(0,0)"/>
<path d="" fill="#474644" transform="translate(0,0)"/>
<path d="" fill="#454645" transform="translate(0,0)"/>
<path d="" fill="#454644" transform="translate(0,0)"/>
<path d="" fill="#454442" transform="translate(0,0)"/>
<path d="" fill="#464548" transform="translate(0,0)"/>
<path d="" fill="#454446" transform="translate(0,0)"/>
<path d="" fill="#474647" transform="translate(0,0)"/>
<path d="" fill="#484849" transform="translate(0,0)"/>
<path d="" fill="#474647" transform="translate(0,0)"/>
<path d="" fill="#474845" transform="translate(0,0)"/>
<path d="" fill="#4A474A" transform="translate(0,0)"/>
<path d="" fill="#494B4B" transform="translate(0,0)"/>
</svg>
