<?xml version="1.0" encoding="UTF-8"?>
<svg version="1.1" xmlns="http://www.w3.org/2000/svg" width="1024" height="1024">
<path d="M0 0 C14.06281488 11.18844464 14.06281488 11.18844464 16 17 C16.66 17 17.32 17 18 17 C19.48046875 18.50390625 19.48046875 18.50390625 21.1875 20.5625 C23.53279758 23.3253868 25.90829405 25.96679757 28.5 28.5 C30.86868619 30.82324879 33.09464163 33.21132224 35.2578125 35.7265625 C38.86365046 39.87394355 42.59854353 43.8832772 46.375 47.875 C51.18887496 52.98507725 55.94850379 58.13105454 60.62109375 63.37109375 C63.74860769 66.8272791 66.93714135 70.22453423 70.125 73.625 C74.39028476 78.17505225 78.61792896 82.73973736 82.66796875 87.484375 C84.00844122 89.05761586 84.00844122 89.05761586 85.67578125 90.578125 C87 92 87 92 87 94 C87.99 94.33 88.98 94.66 90 95 C91.4375 96.390625 91.4375 96.390625 93 98.25 C93.6084375 98.971875 94.216875 99.69375 94.84375 100.4375 C95.5553125 101.283125 96.266875 102.12875 97 103 C97.88351772 104.00167815 98.7690489 105.00158281 99.65625 106 C110.75830639 118.60706161 119 131.69101459 119 149 C117.50371936 168.35813074 107.43679791 181.69709982 94.51953125 195.3359375 C92.45602869 197.51781153 90.46025282 199.72629386 88.5 202 C85.56155249 205.39051636 82.5385638 208.69941179 79.5 212 C75.26394059 216.60854666 71.04634073 221.22306997 67 226 C66.319375 226.80179688 65.63875 227.60359375 64.9375 228.4296875 C57.00667641 238.02248515 52.83173529 246.37945025 54 259 C58.78953149 278.45918222 73.66685004 296.62138008 86.2890625 311.7421875 C88 314 88 314 88 316 C88.66 316 89.32 316 90 316 C91.13976455 317.324555 92.20954389 318.70937233 93.25 320.11328125 C98.38095547 326.68558139 104.20791581 332.47350677 110.12695312 338.33276367 C112.00191583 340.1893971 113.86867902 342.05398118 115.734375 343.91992188 C121.65580006 349.82367721 127.61627525 355.59257499 134 361 C135.60768373 362.45445517 137.21239715 363.91220895 138.8125 365.375 C151.77513502 377.0394045 165.57206582 387.86374171 180.4375 397 C181.1581665 397.44456543 181.87883301 397.88913086 182.62133789 398.34716797 C193.93733164 405.15262716 203.63318708 408.67336258 217 406 C217.33 405.34 217.66 404.68 218 404 C219.10214844 403.53078125 220.20429687 403.0615625 221.33984375 402.578125 C227.86743267 399.42998539 232.58056133 393.87707482 237.5625 388.75 C238.57398894 387.7269929 239.58635369 386.70485097 240.59960938 385.68359375 C245.36476187 380.85938821 249.99837387 375.9545452 254.41918945 370.81005859 C266.02371657 357.52265102 280.60402811 343.20751663 299 341 C318.99521174 339.71590383 334.97170336 346.09304455 350 359 C351.00546875 359.84691406 352.0109375 360.69382812 353.046875 361.56640625 C355.28012806 363.44799984 357.50512434 365.33885587 359.7265625 367.234375 C362.69046004 369.75394927 365.71392451 372.19273784 368.75 374.625 C373.01756866 378.09085778 376.85124244 381.80396624 380.6796875 385.7421875 C384.05923578 389.03070417 387.73415517 391.91257367 391.4140625 394.85546875 C394.3259737 397.27033166 396.96559851 399.84362043 399.5625 402.58984375 C401.14973012 404.23465305 401.14973012 404.23465305 404 406 C404 406.66 404 407.32 404 408 C404.59151855 408.2693335 405.18303711 408.53866699 405.79248047 408.81616211 C407.99752985 409.99867532 409.51641559 411.22062222 411.3203125 412.94140625 C411.93261719 413.52019531 412.54492188 414.09898437 413.17578125 414.6953125 C413.81902344 415.31148437 414.46226562 415.92765625 415.125 416.5625 C416.48112096 417.84573922 417.83789152 419.12829229 419.1953125 420.41015625 C419.85176758 421.03164551 420.50822266 421.65313477 421.18457031 422.29345703 C423.42439256 424.39893814 425.70438852 426.45559179 428 428.5 C432.94028855 432.91156202 437.7645286 437.44277651 442.59570312 441.97290039 C445.85089958 445.01820484 449.1228059 448.02680547 452.5 450.9375 C464.47475351 461.33798634 476.06968038 474.6602522 478 491 C478.97782675 505.33452411 474.70971479 519.12073064 465.42578125 530.265625 C463.00931993 532.90964546 460.52579647 535.46102546 458 538 C457.10850188 539.06979774 456.2297527 540.15062111 455.375 541.25 C452.8630393 544.15858608 450.19088314 546.55801023 447.265625 549.0390625 C445.70161608 550.39273918 444.17176524 551.78654509 442.671875 553.2109375 C430.24310311 564.99158325 415.95650372 574.71251549 401 583 C400.16903809 583.4626123 399.33807617 583.92522461 398.48193359 584.40185547 C351.1613236 610.50421313 298.84572493 620.31837576 245.33251953 612.2734375 C242.73377669 611.91982861 242.73377669 611.91982861 239.02734375 612.03125 C236 612 236 612 233 610 C228.42021599 608.61062732 223.7993507 607.69036447 219 608 C219 607.34 219 606.68 219 606 C218.36400879 605.90710693 217.72801758 605.81421387 217.07275391 605.71850586 C209.20480937 604.44294729 201.88804932 602.19143336 194.375 599.5625 C193.74949249 599.34513184 193.12398499 599.12776367 192.47952271 598.90380859 C139.80456929 580.53081948 91.56395565 550.42150128 47.70019531 516.32080078 C46.56285156 515.43725257 45.42416809 514.55542631 44.28417969 513.67529297 C31.9706598 504.16725319 20.18567457 494.13457336 8.77734375 483.55859375 C6.3186859 481.29358546 3.82365072 479.08125552 1.3125 476.875 C-3.5068192 472.54856572 -8.10104843 468.0076893 -12.6875 463.4375 C-13.40059326 462.72899902 -14.11368652 462.02049805 -14.84838867 461.29052734 C-18.83845578 457.28886795 -22.64671844 453.18871286 -26.33618164 448.90893555 C-28.93577934 445.92635969 -31.66078062 443.06533665 -34.375 440.1875 C-39.85459791 434.32520498 -44.98834157 428.26873554 -50 422 C-50.96962354 420.82019014 -51.94109711 419.64189917 -52.9140625 418.46484375 C-66.74943097 401.68523356 -79.98575868 384.29958679 -91.60546875 365.8984375 C-92.22736084 364.91496338 -92.22736084 364.91496338 -92.86181641 363.91162109 C-93.64377634 362.66665438 -94.41858614 361.4171587 -95.18505859 360.16259766 C-96.07187741 358.74160091 -97.02944567 357.36517532 -98 356 C-98.66 356 -99.32 356 -100 356 C-100.1546875 354.9171875 -100.1546875 354.9171875 -100.3125 353.8125 C-101.30003444 349.77258639 -103.07173897 346.92826103 -106 344 C-107.03161608 342.01612292 -108.03523618 340.01723344 -109 338 C-109.66 338.66 -110.32 339.32 -111 340 C-111.09474609 339.14341797 -111.09474609 339.14341797 -111.19140625 338.26953125 C-112.44946836 329.93983581 -115.96068237 321.03931763 -122 315 C-122.36871088 313.34080104 -122.69595322 311.67225729 -123 310 C-123.87050779 306.80376352 -123.87050779 306.80376352 -125 304 C-125.66 303.67 -126.32 303.34 -127 303 C-127.964296 300.77966239 -128.81387929 298.58918084 -129.625 296.3125 C-129.87862305 295.62148193 -130.13224609 294.93046387 -130.39355469 294.21850586 C-131.99225401 289.84882321 -133.54594745 285.46328916 -135.1015625 281.078125 C-135.45782715 280.08127686 -135.8140918 279.08442871 -136.18115234 278.05737305 C-136.88889401 276.07430611 -137.58984355 274.08880088 -138.28369141 272.10083008 C-138.60772949 271.19228271 -138.93176758 270.28373535 -139.265625 269.34765625 C-139.55211914 268.53304932 -139.83861328 267.71844238 -140.13378906 266.87915039 C-140.84755609 264.81577687 -140.84755609 264.81577687 -143 264 C-142.71817871 262.92069214 -142.71817871 262.92069214 -142.43066406 261.81958008 C-141.95836298 258.72740029 -142.28897264 256.88641924 -143.109375 253.88671875 C-143.36823486 252.89857178 -143.62709473 251.9104248 -143.89379883 250.89233398 C-144.17634521 249.83473877 -144.4588916 248.77714355 -144.75 247.6875 C-151.20548611 222.09830311 -152.4536906 196.22871464 -151.6875 169.9375 C-151.65301758 168.65858887 -151.61853516 167.37967773 -151.58300781 166.06201172 C-151.36219038 160.02176836 -150.90370047 154.77207402 -149 149 C-148.6207518 147.26072512 -148.26360907 145.5165642 -147.921875 143.76953125 C-141.95303682 113.36248376 -131.44192854 86.38287474 -116.125 59.5 C-115.64828857 58.65566406 -115.17157715 57.81132812 -114.68041992 56.94140625 C-114.23158447 56.16667969 -113.78274902 55.39195312 -113.3203125 54.59375 C-112.92086426 53.89958984 -112.52141602 53.20542969 -112.10986328 52.49023438 C-111.7436084 51.99845703 -111.37735352 51.50667969 -111 51 C-110.34 51 -109.68 51 -109 51 C-108.61521484 50.16855469 -108.61521484 50.16855469 -108.22265625 49.3203125 C-104.11034745 41.51612264 -98.091064 34.76380776 -92.13671875 28.32421875 C-90.27699872 26.30130574 -88.51062364 24.23340115 -86.75 22.125 C-78.08495805 12.24206045 -68.1005873 3.9936676 -57 -3 C-56.30648437 -3.44085938 -55.61296875 -3.88171875 -54.8984375 -4.3359375 C-37.59343073 -14.12983495 -15.90394096 -10.86193069 0 0 Z M-74.734375 57.05859375 C-75.48203125 58.02925781 -76.2296875 58.99992187 -77 60 C-77.41572266 60.52867676 -77.83144531 61.05735352 -78.25976562 61.60205078 C-89.70074911 76.20837303 -98.68861975 91.97996585 -105.625 109.1875 C-106.24580444 110.72736572 -106.24580444 110.72736572 -106.87915039 112.29833984 C-108.99575438 117.76292931 -110.60888641 123.04685981 -111.57592773 128.83105469 C-112.0035848 131.01833471 -112.64767567 132.98153377 -113.4375 135.0625 C-114.98385798 139.46608794 -115.82094649 143.91515246 -116.625 148.5 C-116.80953735 149.55006226 -116.80953735 149.55006226 -116.99780273 150.62133789 C-118.36086733 158.70283405 -119.1570521 166.70217371 -119.23828125 174.8984375 C-119.25297203 176.13481209 -119.25297203 176.13481209 -119.26795959 177.39616394 C-119.449213 196.63056776 -118.98253001 215.1014201 -115 234 C-114.79632813 234.9909668 -114.59265625 235.98193359 -114.3828125 237.00292969 C-102.16761829 294.70464183 -69.99696967 344.31856641 -34 390 C-33.2575 390.94875 -32.515 391.8975 -31.75 392.875 C-20.6366185 406.95194989 -8.72234633 420.48907251 4.08374023 433.04980469 C5.87720204 434.87502738 7.53451607 436.75494794 9.1875 438.70703125 C13.1021498 443.2089045 17.3345678 447.30105292 21.6875 451.375 C22.80608398 452.44041016 22.80608398 452.44041016 23.94726562 453.52734375 C24.66978516 454.20667969 25.39230469 454.88601563 26.13671875 455.5859375 C26.78342529 456.1948584 27.43013184 456.8037793 28.09643555 457.43115234 C29.98244132 458.98552879 31.82377543 459.91831933 34 461 C34.6711185 462.33109811 35.33724912 463.66471595 36 465 C38.24740541 467.08803216 38.24740541 467.08803216 40.9375 469.125 C44.86938204 472.25008027 48.63794129 475.4512272 52.3125 478.875 C58.58810894 484.63504899 65.23020687 489.84014994 72 495 C72.96993896 495.73935791 72.96993896 495.73935791 73.95947266 496.49365234 C105.0097786 520.09067048 138.10418176 541.4817205 174 557 C174.80888672 557.35771484 175.61777344 557.71542969 176.45117188 558.08398438 C232.72046692 582.88400724 296.02774753 592.33393728 354.67871094 569.97900391 C382.32945524 558.95345577 406.45773087 543.52233387 428 523 C428.76441406 522.2884375 429.52882813 521.576875 430.31640625 520.84375 C436.03578817 515.37398058 443.16255123 507.81345252 444.3359375 499.66796875 C444.34882812 498.84941406 444.36171875 498.03085937 444.375 497.1875 C444.40335938 496.37667969 444.43171875 495.56585937 444.4609375 494.73046875 C443.02869883 486.24627528 436.11669286 480.72986038 430.25 475 C429.38117187 474.13632812 428.51234375 473.27265625 427.6171875 472.3828125 C423.13606511 467.9555174 418.57956335 463.66903466 413.80517578 459.56005859 C411.08239799 457.20699529 408.44816667 454.76216935 405.8125 452.3125 C405.2656958 451.80630127 404.7188916 451.30010254 404.15551758 450.77856445 C401.85966871 448.65314262 399.56616399 446.52519792 397.27246094 444.39746094 C389.78179994 437.41901812 389.78179994 437.41901812 382.125 430.625 C378.19497753 427.22786193 374.41519338 423.67617638 370.625 420.125 C362.22444981 412.25472742 353.6986988 404.53985023 345 397 C344.49452637 396.5575293 343.98905273 396.11505859 343.46826172 395.65917969 C327.03244914 379.71102301 327.03244914 379.71102301 306.05078125 373.671875 C296.40292742 375.21553161 289.45943625 382.13160594 283 389 C282.67 389.99 282.34 390.98 282 392 C281.01 392.33 280.02 392.66 279 393 C277.52516919 394.44049106 277.52516919 394.44049106 276.06640625 396.28515625 C271.47190337 401.69137471 266.54565738 406.74890026 261.55981445 411.7902832 C260.4853239 412.88126706 259.41621384 413.97757848 258.3527832 415.0793457 C245.91338093 427.96156836 230.99353106 439.80795133 212.3503418 440.34375 C185.2833608 440.66903153 161.83105412 425.48069206 141.75 408.328125 C140.10062737 406.79848596 140.10062737 406.79848596 138 407 C136.30699944 405.36009005 134.64555729 403.68751201 133 402 C130.97349025 400.22613205 128.93992014 398.47739109 126.875 396.75 C126.30442871 396.26893799 125.73385742 395.78787598 125.14599609 395.29223633 C121.67658344 392.37532402 118.16298774 389.52106803 114.625 386.6875 C106.21211169 379.84353506 98.21758604 372.36734087 90.67578125 364.57421875 C88.37861717 361.7689007 88.37861717 361.7689007 86 362 C85.67 361.01 85.34 360.02 85 359 C84.34 359 83.68 359 83 359 C82.76410156 358.43410156 82.52820313 357.86820313 82.28515625 357.28515625 C80.70585684 354.47697948 78.77313994 352.65617519 76.4375 350.4375 C71.17234232 345.2702637 66.58079886 339.77255141 62 334 C61.06529787 332.85424687 60.12902489 331.70977391 59.19140625 330.56640625 C49.25865335 318.39972223 39.77789955 305.87695314 32.3046875 292.02734375 C31.87414062 291.35832031 31.44359375 290.68929688 31 290 C30.34 290 29.68 290 29 290 C28.938125 289.113125 28.87625 288.22625 28.8125 287.3125 C28.29049805 283.52030933 26.9867292 280.23131737 25.5625 276.6875 C20.03854944 262.65411115 18.61170638 247.38091879 24 233 C30.40990118 218.57772235 40.06041439 206.94853457 50.72265625 195.4609375 C52.75902154 193.26040554 54.73261853 191.02271297 56.6875 188.75 C58.87269387 186.23216538 61.12431461 183.83881222 63.5 181.5 C78.81434927 166.8058743 78.81434927 166.8058743 85.375 147.625 C85.06583231 138.34996924 79.23997858 132.72811804 73.14453125 126.3203125 C71 124 71 124 70 122 C69.34 122 68.68 122 68 122 C67.73574219 121.40703125 67.47148437 120.8140625 67.19921875 120.203125 C65.95629575 117.91970946 64.69598354 116.52573277 62.8125 114.75 C60.26329151 112.2797959 57.87180507 109.75845477 55.5625 107.0625 C53.14382221 104.25423653 50.64100317 101.60029407 48 99 C44.78985998 95.83299046 41.79189823 92.55042984 38.84765625 89.13671875 C33.64400047 83.11896037 28.3224136 77.25975624 22.65234375 71.6796875 C21.00620209 70.00630473 19.46841607 68.27906955 17.9375 66.5 C13.8914124 61.80835685 9.64806032 57.30793101 5.41162109 52.7890625 C2.0686493 49.22133071 -1.25707067 45.64014168 -4.5480957 42.02441406 C-5.89885592 40.54239916 -7.25790747 39.06795458 -8.6171875 37.59375 C-10.05688453 36.02660438 -11.48311543 34.44672258 -12.8828125 32.84375 C-17.99843652 27.22846037 -24.39560744 23.97345352 -32.0625 23.5 C-49.56164967 25.72211424 -64.31317191 43.88214452 -74.734375 57.05859375 Z " fill="#272727" transform="translate(351,196)"/>
<path d="M0 0 C1.08992064 3.26976193 0.90632736 4.48245286 0.2578125 7.7890625 C0.07863281 8.73136719 -0.10054687 9.67367188 -0.28515625 10.64453125 C-0.47980469 11.62808594 -0.67445313 12.61164063 -0.875 13.625 C-2.19601579 20.41228804 -3.33277182 27.11477301 -4 34 C-4.33 34 -4.66 34 -5 34 C-5.33 32.02 -5.66 30.04 -6 28 C-6.33 28 -6.66 28 -7 28 C-7 25.36 -7 22.72 -7 20 C-6.67 20 -6.34 20 -6 20 C-4.68 14.06 -3.36 8.12 -2 2 C-1.34 2 -0.68 2 0 2 C0 1.34 0 0.68 0 0 Z " fill="#353535" transform="translate(237,328)"/>
<path d="M0 0 C0.66 0.33 1.32 0.66 2 1 C1.01 1.8971875 1.01 1.8971875 0 2.8125 C-2.3373846 4.87501834 -2.3373846 4.87501834 -2 8 C-3.171875 9.60546875 -3.171875 9.60546875 -4.75 11.1875 C-5.26046875 11.71730469 -5.7709375 12.24710938 -6.296875 12.79296875 C-8 14 -8 14 -12 14 C-13.9792785 15.2832557 -13.9792785 15.2832557 -15.75 17 C-16.36359375 17.556875 -16.9771875 18.11375 -17.609375 18.6875 C-18.06828125 19.120625 -18.5271875 19.55375 -19 20 C-15.77924123 12.66382725 -8.52434924 7.46612391 -2.56640625 2.34765625 C-1.68751602 1.59150381 -0.81982149 0.81982149 0 0 Z " fill="#383837" transform="translate(281,202)"/>
<path d="M0 0 C-0.66 0 -1.32 0 -2 0 C-2 0.66 -2 1.32 -2 2 C-3.98 2.33 -5.96 2.66 -8 3 C-8 3.66 -8 4.32 -8 5 C-9.64559756 5.33449533 -11.29148498 5.66756499 -12.9375 6 C-14.31228516 6.2784375 -14.31228516 6.2784375 -15.71484375 6.5625 C-19.01527011 7.1943765 -21.67568254 6.56584127 -25 6 C-20.7984102 3.78014725 -16.49730246 2.58373961 -11.9375 1.3125 C-11.12216797 1.07466797 -10.30683594 0.83683594 -9.46679688 0.59179688 C-8.68240234 0.37201172 -7.89800781 0.15222656 -7.08984375 -0.07421875 C-6.37691162 -0.27619873 -5.66397949 -0.47817871 -4.92944336 -0.6862793 C-3 -1 -3 -1 0 0 Z " fill="#363635" transform="translate(700,769)"/>
<path d="M0 0 C12.21 0 24.42 0 37 0 C32.77673199 3.16745101 32.30705959 3.36598034 27.421875 3.109375 C25.80345703 3.03396484 25.80345703 3.03396484 24.15234375 2.95703125 C23.02957031 2.88871094 21.90679688 2.82039062 20.75 2.75 C19.64269531 2.69714844 18.53539062 2.64429688 17.39453125 2.58984375 C11.55355693 2.29119703 5.79075645 1.81918018 0 1 C0 0.67 0 0.34 0 0 Z " fill="#4B4A49" transform="translate(616,778)"/>
<path d="M0 0 C0.66 0.66 1.32 1.32 2 2 C-3.91781337 4.06189931 -9.20418214 4.24167838 -15.4375 4.125 C-16.35982422 4.11597656 -17.28214844 4.10695313 -18.23242188 4.09765625 C-20.48855809 4.0742766 -22.74413684 4.04150916 -25 4 C-25 3.67 -25 3.34 -25 3 C-19.06 3 -13.12 3 -7 3 C-7 2.34 -7 1.68 -7 1 C-7.99 0.67 -8.98 0.34 -10 0 C-3.42391304 -1.3451087 -3.42391304 -1.3451087 0 0 Z " fill="#403F3F" transform="translate(575,633)"/>
<path d="M0 0 C0 3.88218153 -1.15725514 4.63184726 -3.75 7.4375 C-4.44609375 8.19933594 -5.1421875 8.96117187 -5.859375 9.74609375 C-7.87313025 11.86641634 -9.9206858 13.9441015 -12 16 C-12.66 15.67 -13.32 15.34 -14 15 C-10.50199264 8.79898696 -5.35675031 4.60026267 0 0 Z " fill="#242323" transform="translate(604,570)"/>
<path d="M0 0 C0.66 0.66 1.32 1.32 2 2 C2.66 1.34 3.32 0.68 4 0 C4.86343824 2.12124966 5.71550648 4.24713072 6.5625 6.375 C7.27599609 8.15003906 7.27599609 8.15003906 8.00390625 9.9609375 C9 13 9 13 8 15 C7.01 15 6.02 15 5 15 C4 11.125 4 11.125 4 10 C3.34 9.01 2.68 8.02 2 7 C0.4832681 4.30358773 0 3.17246935 0 0 Z " fill="#333232" transform="translate(245,471)"/>
<path d="M0 0 C1.4606285 2.64738916 2 3.89448334 2 7 C1.34 7 0.68 7 0 7 C-0.020625 7.7425 -0.04125 8.485 -0.0625 9.25 C-1.14587926 12.42791249 -1.74474412 12.72751232 -4.5625 14.3125 C-5.696875 14.869375 -6.83125 15.42625 -8 16 C-6.30506881 12.4682364 -4.2717622 9.26748441 -2.12109375 6 C-0.99566877 3.99227321 -0.44649157 2.24750812 0 0 Z " fill="#363535" transform="translate(435,348)"/>
<path d="M0 0 C4.9723422 1.49170266 9.41845739 3.60457417 14 6 C11 8 11 8 8.5 7.75 C6 7 6 7 3 5 C3 4.34 3 3.68 3 3 C2.34 3 1.68 3 1 3 C0.67 2.01 0.34 1.02 0 0 Z " fill="#2B2B2A" transform="translate(496,739)"/>
<path d="M0 0 C5.54193741 1.91836295 8.30123694 3.49002541 11 9 C10.59375 11.19140625 10.59375 11.19140625 10 13 C8.32722165 11.21371169 6.66175557 9.4214925 5 7.625 C4.28457031 6.86316406 4.28457031 6.86316406 3.5546875 6.0859375 C0 2.2265625 0 2.2265625 0 0 Z " fill="#353433" transform="translate(421,318)"/>
<path d="M0 0 C0.66 0.66 1.32 1.32 2 2 C0.42210402 3.15330947 -1.1625482 4.29737927 -2.75 5.4375 C-3.63171875 6.07558594 -4.5134375 6.71367188 -5.421875 7.37109375 C-7.72699125 8.8275081 -9.34349572 9.55931821 -12 10 C-11.375 7.625 -11.375 7.625 -10 5 C-7.125 3.875 -7.125 3.875 -4 3 C-1.69833325 1.48446847 -1.69833325 1.48446847 0 0 Z " fill="#302F2E" transform="translate(594,622)"/>
<path d="M0 0 C0 3.83764027 -1.26535335 5.11486085 -3.5 8.1875 C-4.1496875 9.08855469 -4.799375 9.98960937 -5.46875 10.91796875 C-5.9740625 11.60503906 -6.479375 12.29210937 -7 13 C-8.32 12.34 -9.64 11.68 -11 11 C-7.37 7.37 -3.74 3.74 0 0 Z M-10 13 C-8 14 -8 14 -8 14 Z " fill="#31302F" transform="translate(616,556)"/>
<path d="M0 0 C0.33 0 0.66 0 1 0 C0.75648872 6.94007154 -1.06708042 10.17267808 -6 15 C-6.99 14.67 -7.98 14.34 -9 14 C-7.35 11.03 -5.7 8.06 -4 5 C-3.34 5.66 -2.68 6.32 -2 7 C-1.34 4.69 -0.68 2.38 0 0 Z " fill="#30302F" transform="translate(798,693)"/>
<path d="M0 0 C0.99 0.33 1.98 0.66 3 1 C3 1.66 3 2.32 3 3 C3.9075 3.28875 4.815 3.5775 5.75 3.875 C10.82914573 5.63316583 10.82914573 5.63316583 13 7 C13.33 7.99 13.66 8.98 14 10 C9.0276578 8.50829734 4.58154261 6.39542583 0 4 C0 2.66666667 0 1.33333333 0 0 Z " fill="#313030" transform="translate(491,768)"/>
<path d="M0 0 C0.33 0 0.66 0 1 0 C1.19392201 5.52677733 0.7479503 9.75614911 -1 15 C-1.99 14.34 -2.98 13.68 -4 13 C-3.25 6.25 -3.25 6.25 -1 4 C-0.3574765 1.93125966 -0.3574765 1.93125966 0 0 Z " fill="#373637" transform="translate(468,346)"/>
<path d="M0 0 C0 0.33 0 0.66 0 1 C-7.51094816 1.8388516 -14.50824535 2.0773541 -22 1 C-22 0.67 -22 0.34 -22 0 C-14.56151161 -1.26612568 -7.43411812 -1.52494731 0 0 Z " fill="#494746" transform="translate(331,187)"/>
<path d="M0 0 C0.33 0 0.66 0 1 0 C1.33695862 2.72876308 1.66968429 5.45793163 2 8.1875 C2.09539062 8.95642578 2.19078125 9.72535156 2.2890625 10.51757812 C2.75192894 14.36928811 3.12467468 18.11170851 3 22 C2.67 21.01 2.34 20.02 2 19 C1.34 19 0.68 19 0 19 C0 12.73 0 6.46 0 0 Z " fill="#151414" transform="translate(372,443)"/>
<path d="M0 0 C0.85938064 2.57814191 1.37542976 4.82449826 1.75 7.5 C1.86859375 8.2734375 1.9871875 9.046875 2.109375 9.84375 C2 12 2 12 0.515625 13.78125 C0.01546875 14.1834375 -0.4846875 14.585625 -1 15 C-1.36504603 13.41913952 -1.71660506 11.83516093 -2.0625 10.25 C-2.25972656 9.36828125 -2.45695313 8.4865625 -2.66015625 7.578125 C-2.99825872 5.01320972 -2.81158635 3.42908361 -2 1 C-1.67 1.33 -1.34 1.66 -1 2 C-0.67 1.34 -0.34 0.68 0 0 Z " fill="#373736" transform="translate(207,429)"/>
<path d="M0 0 C0.33 0.66 0.66 1.32 1 2 C1.66 2 2.32 2 3 2 C2.01 5.63 1.02 9.26 0 13 C-0.99 12.01 -1.98 11.02 -3 10 C-2.75896128 6.22372667 -1.88638485 3.26973374 0 0 Z " fill="#303030" transform="translate(376,425)"/>
<path d="M0 0 C1.89551022 -0.05441656 3.7914792 -0.09298035 5.6875 -0.125 C6.74324219 -0.14820313 7.79898437 -0.17140625 8.88671875 -0.1953125 C12.07409401 0.00464831 14.20031343 0.47656695 17 2 C17.33 2.99 17.66 3.98 18 5 C16.906875 4.67 15.81375 4.34 14.6875 4 C9.47109568 2.67014468 4.34751531 2.82306016 -1 3 C-0.67 2.01 -0.34 1.02 0 0 Z " fill="#403F3F" transform="translate(313,218)"/>
<path d="M0 0 C5.98808129 1.31445687 9.03429323 4.61191026 13 9 C12.67 9.99 12.34 10.98 12 12 C8 8 4 4 0 0 Z " fill="#2E2E2D" transform="translate(768,659)"/>
<path d="M0 0 C0.33 0 0.66 0 1 0 C1.33910994 2.04071515 1.67102704 4.08262621 2 6.125 C2.185625 7.26195312 2.37125 8.39890625 2.5625 9.5703125 C2.96956049 12.76137602 3.07809902 15.78817791 3 19 C2.67 18.01 2.34 17.02 2 16 C1.34 16 0.68 16 0 16 C0 10.72 0 5.44 0 0 Z " fill="#191918" transform="translate(203,414)"/>
<path d="M0 0 C5.28189167 2.26366786 8.4032202 5.93627939 11 11 C11 11.99 11 12.98 11 14 C9.16056628 12.04709472 7.32840869 10.08818082 5.5 8.125 C4.97535156 7.56941406 4.45070313 7.01382812 3.91015625 6.44140625 C0 2.2265625 0 2.2265625 0 0 Z " fill="#1C1C1B" transform="translate(406,256)"/>
<path d="M0 0 C0.33 0 0.66 0 1 0 C1.33 3.3 1.66 6.6 2 10 C2.66 10 3.32 10 4 10 C4 13.3 4 16.6 4 20 C0.10160709 14.15241063 -0.29973431 6.89388918 0 0 Z " fill="#131413" transform="translate(233,420)"/>
<path d="M0 0 C0.66 1.32 1.32 2.64 2 4 C2.66 4 3.32 4 4 4 C4 5.98 4 7.96 4 10 C3.67 10 3.34 10 3 10 C2.67 12.31 2.34 14.62 2 17 C1.67 17 1.34 17 1 17 C0.00749455 11.29309366 -0.10477512 5.78591511 0 0 Z " fill="#434342" transform="translate(201,406)"/>
<path d="M0 0 C2.1723491 3.25852365 4.07119658 6.59244728 6 10 C2.18315774 8.44499019 -0.19195732 5.96404505 -3 3 C-2.01 2.01 -1.02 1.02 0 0 Z " fill="#323131" transform="translate(494,600)"/>
<path d="M0 0 C4.13621084 3.3810038 7.81316569 6.66590534 11 11 C5.33764586 9.68317346 3.21572253 7.63442365 0 3 C0 2.01 0 1.02 0 0 Z " fill="#1E1E1D" transform="translate(429,546)"/>
<path d="M0 0 C0.33 0 0.66 0 1 0 C1.66 5.94 2.32 11.88 3 18 C2.34 18.33 1.68 18.66 1 19 C-1.16205669 14.68413875 -1.06986614 11.44756775 -0.625 6.6875 C-0.51414062 5.43324219 -0.40328125 4.17898438 -0.2890625 2.88671875 C-0.14597656 1.45779297 -0.14597656 1.45779297 0 0 Z " fill="#393938" transform="translate(403,444)"/>
<path d="M0 0 C0 0.33 0 0.66 0 1 C-5.70690634 1.99250545 -11.21408489 2.10477512 -17 2 C-17 1.34 -17 0.68 -17 0 C-11.1314592 -1.14819277 -5.9114744 -0.77313045 0 0 Z " fill="#383736" transform="translate(673,807)"/>
<path d="M0 0 C1.86551426 3.58752742 3.42535928 7.27812193 5 11 C4.34 11.66 3.68 12.32 3 13 C2.10565843 11.59546357 1.23506808 10.17578131 0.375 8.75 C-0.11226562 7.96109375 -0.59953125 7.1721875 -1.1015625 6.359375 C-2 4 -2 4 -1.1484375 1.703125 C-0.76945313 1.14109375 -0.39046875 0.5790625 0 0 Z " fill="#313130" transform="translate(236,515)"/>
<path d="M0 0 C1 3 1 3 0.14453125 4.75390625 C-4.27862595 10.75954198 -4.27862595 10.75954198 -8 12 C-6.59023295 8.96147295 -4.91129772 6.4060405 -2.875 3.75 C-2.06675781 2.69039063 -2.06675781 2.69039063 -1.2421875 1.609375 C-0.83226562 1.07828125 -0.42234375 0.5471875 0 0 Z " fill="#2E2E2D" transform="translate(390,404)"/>
<path d="M0 0 C2.26171875 0.4609375 2.26171875 0.4609375 4.6875 1.375 C5.49574219 1.67148437 6.30398438 1.96796875 7.13671875 2.2734375 C7.75160156 2.51320313 8.36648438 2.75296875 9 3 C9 3.66 9 4.32 9 5 C9.66 5.33 10.32 5.66 11 6 C6.16371695 5.00956295 1.52381127 4.04301154 -3 2 C-2.01 1.34 -1.02 0.68 0 0 Z " fill="#393838" transform="translate(539,790)"/>
<path d="M0 0 C-2.05233685 2.2477975 -3.00667261 3.0022242 -6 4 C-8.33299825 4.03954234 -10.66708189 4.04401732 -13 4 C-4.66666667 -1.55555556 -4.66666667 -1.55555556 0 0 Z " fill="#363635" transform="translate(713,764)"/>
<path d="M0 0 C0.66 0.99 1.32 1.98 2 3 C1.34 3 0.68 3 0 3 C-0.20625 3.5775 -0.4125 4.155 -0.625 4.75 C-2.49750888 7.81410544 -4.96958519 9.15539968 -8 11 C-6.63629701 8.00779732 -5.05091917 5.70973471 -2.875 3.25 C-2.33617187 2.63640625 -1.79734375 2.0228125 -1.2421875 1.390625 C-0.62730469 0.70226562 -0.62730469 0.70226562 0 0 Z " fill="#333332" transform="translate(399,393)"/>
<path d="M0 0 C0.33 0 0.66 0 1 0 C1 5.28 1 10.56 1 16 C0.67 16 0.34 16 0 16 C-0.33 14.02 -0.66 12.04 -1 10 C-1.33 10 -1.66 10 -2 10 C-2.1953125 3.9453125 -2.1953125 3.9453125 -2 2 C-1.34 1.34 -0.68 0.68 0 0 Z " fill="#2E2F2E" transform="translate(232,346)"/>
<path d="M0 0 C4.05281712 1.22527029 7.44360764 2.69880494 11 5 C10.67 5.99 10.34 6.98 10 8 C9.34 8 8.68 8 8 8 C7 7 6 6 5 5 C4.29875 4.67 3.5975 4.34 2.875 4 C1 3 1 3 0 0 Z " fill="#323131" transform="translate(338,190)"/>
<path d="M0 0 C1.48819457 0.9019361 2.96532813 1.82214129 4.4375 2.75 C5.26121094 3.26046875 6.08492188 3.7709375 6.93359375 4.296875 C9.21744593 6.1792182 9.65514457 7.1157546 10 10 C8 10 8 10 5.5625 7.6875 C4.716875 6.800625 3.87125 5.91375 3 5 C2.401875 4.443125 1.80375 3.88625 1.1875 3.3125 C0 2 0 2 0 0 Z " fill="#1E1E1E" transform="translate(459,535)"/>
<path d="M0 0 C-1.28650706 0.69710731 -2.57940665 1.38242876 -3.875 2.0625 C-4.95394531 2.63677734 -4.95394531 2.63677734 -6.0546875 3.22265625 C-6.69664062 3.47917969 -7.33859375 3.73570312 -8 4 C-8.66 3.67 -9.32 3.34 -10 3 C-9.3125 1.0625 -9.3125 1.0625 -8 -1 C-4.19973591 -2.36419737 -3.46462908 -2.30975272 0 0 Z " fill="#323232" transform="translate(741,785)"/>
<path d="M0 0 C5.35048061 0.37328935 7.50912907 1.9957657 11 6 C7.61121488 6 6.60242783 5.35638802 3.8125 3.5625 C2.73935547 2.88380859 2.73935547 2.88380859 1.64453125 2.19140625 C1.10183594 1.79824219 0.55914062 1.40507813 0 1 C0 0.67 0 0.34 0 0 Z " fill="#302F2F" transform="translate(434,737)"/>
<path d="M0 0 C0.66 0.33 1.32 0.66 2 1 C-0.31 3.64 -2.62 6.28 -5 9 C-5.99 8.67 -6.98 8.34 -8 8 C-5.36 5.36 -2.72 2.72 0 0 Z " fill="#20201F" transform="translate(641,575)"/>
<path d="M0 0 C1.13643966 3.40931897 0.86747764 4.00335456 -0.4375 7.1875 C-0.72496094 7.90292969 -1.01242188 8.61835938 -1.30859375 9.35546875 C-1.53675781 9.89816406 -1.76492187 10.44085938 -2 11 C-3.61949011 8.42786866 -4.04408751 7.32330841 -3.625 4.25 C-3.41875 3.5075 -3.2125 2.765 -3 2 C-2.01 2 -1.02 2 0 2 C0 1.34 0 0.68 0 0 Z " fill="#353434" transform="translate(244,306)"/>
<path d="M0 0 C1.32 0 2.64 0 4 0 C2.5140084 4.59306496 0.14985318 7.43569245 -3 11 C-3.33 9.68 -3.66 8.36 -4 7 C-3.34 6.5875 -2.68 6.175 -2 5.75 C-1.34 5.1725 -0.68 4.595 0 4 C0 2.68 0 1.36 0 0 Z " fill="#353535" transform="translate(269,257)"/>
<path d="M0 0 C0.99 0.33 1.98 0.66 3 1 C3 1.66 3 2.32 3 3 C4.32 3.66 5.64 4.32 7 5 C7 5.99 7 6.98 7 8 C6.01 8.495 6.01 8.495 5 9 C4.67 8.01 4.34 7.02 4 6 C3.319375 5.319375 2.63875 4.63875 1.9375 3.9375 C1.298125 3.298125 0.65875 2.65875 0 2 C0 1.34 0 0.68 0 0 Z " fill="#333231" transform="translate(752,601)"/>
<path d="M0 0 C2.93200474 2.85276137 5.64315404 5.65079784 8 9 C7.34 9 6.68 9 6 9 C5.67 9.66 5.34 10.32 5 11 C4.16151196 9.54462432 3.32936066 8.08559627 2.5 6.625 C1.80390625 5.40683594 1.80390625 5.40683594 1.09375 4.1640625 C0 2 0 2 0 0 Z " fill="#343432" transform="translate(324,595)"/>
<path d="M0 0 C0.33 0.66 0.66 1.32 1 2 C-2.44615385 7.78461538 -2.44615385 7.78461538 -5.25 8.875 C-5.8275 8.91625 -6.405 8.9575 -7 9 C-5.44499019 5.18315774 -2.96404505 2.80804268 0 0 Z " fill="#212120" transform="translate(631,585)"/>
<path d="M0 0 C0.99 0.33 1.98 0.66 3 1 C-2.14285714 7.57142857 -2.14285714 7.57142857 -6 9 C-4.47291037 5.56404834 -2.40072955 2.88087546 0 0 Z " fill="#302F2E" transform="translate(257,226)"/>
<path d="M0 0 C3.63 0 7.26 0 11 0 C7 3 7 3 4.859375 3.07421875 C2.90625 2.71614583 0.953125 2.35807292 -1 2 C-0.67 1.34 -0.34 0.68 0 0 Z " fill="#3A3939" transform="translate(642,778)"/>
<path d="M0 0 C-2.96178773 1.67110042 -5.37071192 2.32682752 -8.75 2.625 C-9.54921875 2.69976563 -10.3484375 2.77453125 -11.171875 2.8515625 C-11.77515625 2.90054688 -12.3784375 2.94953125 -13 3 C-12.01 2.67 -11.02 2.34 -10 2 C-10 1.34 -10 0.68 -10 0 C-6.42355152 -1.2380014 -3.66305234 -0.74926071 0 0 Z " fill="#3B3A3A" transform="translate(696,802)"/>
<path d="M0 0 C3.26460973 1.80412643 4.88929795 2.83394693 7 6 C6.625 8.1875 6.625 8.1875 6 10 C4.99421411 8.71283353 3.99553202 7.42011342 3 6.125 C2.443125 5.40570312 1.88625 4.68640625 1.3125 3.9453125 C0 2 0 2 0 0 Z " fill="#201F1E" transform="translate(292,555)"/>
<path d="M0 0 C0.99 0 1.98 0 3 0 C3 0.99 3 1.98 3 3 C0.46815512 5.35723489 -0.47190093 6 -4 6 C-2.84826645 3.53199953 -1.95216435 1.95216435 0 0 Z " fill="#383837" transform="translate(422,368)"/>
<path d="M0 0 C0.66 0.33 1.32 0.66 2 1 C2 1.99 2 2.98 2 4 C0.68 4.33 -0.64 4.66 -2 5 C-2.33 4.01 -2.66 3.02 -3 2 C-2.01 1.34 -1.02 0.68 0 0 Z M-4 5 C-3.34 5.33 -2.68 5.66 -2 6 C-2.99 6 -3.98 6 -5 6 C-4.67 5.67 -4.34 5.34 -4 5 Z " fill="#343433" transform="translate(742,747)"/>
<path d="M0 0 C2.5 2.3125 2.5 2.3125 5 5 C5 5.99 5 6.98 5 8 C3.68 7.67 2.36 7.34 1 7 C0.67 4.69 0.34 2.38 0 0 Z " fill="#333231" transform="translate(815,660)"/>
<path d="M0 0 C3.5786304 1.65167557 6.74820188 3.78286492 10 6 C9.67 6.99 9.34 7.98 9 9 C7.49704815 7.69088122 5.99770689 6.37761608 4.5 5.0625 C3.6646875 4.33160156 2.829375 3.60070312 1.96875 2.84765625 C1.3190625 2.23792969 0.669375 1.62820313 0 1 C0 0.67 0 0.34 0 0 Z " fill="#3A3939" transform="translate(450,569)"/>
<path d="M0 0 C2.64 0 5.28 0 8 0 C8 0.66 8 1.32 8 2 C4.37 2.33 0.74 2.66 -3 3 C-2.01 2.67 -1.02 2.34 0 2 C0 1.34 0 0.68 0 0 Z " fill="#1A1918" transform="translate(646,538)"/>
<path d="M0 0 C2.96404505 2.80804268 5.44499019 5.18315774 7 9 C1.21538462 5.67692308 1.21538462 5.67692308 0.125 2.25 C0.08375 1.5075 0.0425 0.765 0 0 Z " fill="#323230" transform="translate(429,499)"/>
<path d="M0 0 C-0.54226981 3.79588866 -2.20127563 5.47211993 -5 8 C-5.1875 5.125 -5.1875 5.125 -5 2 C-2 0 -2 0 0 0 Z " fill="#302F2F" transform="translate(461,370)"/>
<path d="M0 0 C0.99 0.33 1.98 0.66 3 1 C2.01 3.97 1.02 6.94 0 10 C-0.33 10 -0.66 10 -1 10 C-1.125 2.25 -1.125 2.25 0 0 Z " fill="#312F2F" transform="translate(249,289)"/>
<path d="M0 0 C3.98069267 2.87494471 6.43571997 5.82117329 9 10 C7.25 9.875 7.25 9.875 5 9 C2.74744924 6.03950471 1.17732107 3.5319632 0 0 Z " fill="#3F3F3E" transform="translate(414,263)"/>
<path d="M0 0 C1.0326802 2.78823655 1.04509293 3.8677274 0.0625 6.75 C-0.288125 7.4925 -0.63875 8.235 -1 9 C-1.99 8.67 -2.98 8.34 -4 8 C-2.87548273 5.0280615 -1.77706209 2.66559313 0 0 Z " fill="#2E2F2E" transform="translate(234,258)"/>
<path d="M0 0 C0.99 0.33 1.98 0.66 3 1 C3 1.66 3 2.32 3 3 C3.66 3 4.32 3 5 3 C5.33 4.65 5.66 6.3 6 8 C1.3125 4.38671875 1.3125 4.38671875 0 3 C0 2.01 0 1.02 0 0 Z " fill="#2F2F2E" transform="translate(348,238)"/>
<path d="M0 0 C-1.65 1.32 -3.3 2.64 -5 4 C-5.66 3.67 -6.32 3.34 -7 3 C-7 2.01 -7 1.02 -7 0 C-4.3333581 -1.33332095 -2.83319697 -0.67102033 0 0 Z M0 -1 C2 0 2 0 2 0 Z " fill="#313030" transform="translate(299,194)"/>
<path d="M0 0 C3.91211733 1.15585285 6.8745041 2.35534962 10 5 C3.49955237 4.38675022 3.49955237 4.38675022 1.0625 2.5 C0 1 0 1 0 0 Z " fill="#343332" transform="translate(496,739)"/>
<path d="M0 0 C0 3 0 3 -2.5 5.6875 C-3.325 6.450625 -4.15 7.21375 -5 8 C-5.99 7.67 -6.98 7.34 -8 7 C-5.36 4.69 -2.72 2.38 0 0 Z " fill="#1C1C1B" transform="translate(604,570)"/>
<path d="M0 0 C2.9375 1.1875 2.9375 1.1875 6 3 C6.875 5.6875 6.875 5.6875 7 8 C5.8274869 7.04882866 4.66212985 6.08882991 3.5 5.125 C2.8503125 4.59132813 2.200625 4.05765625 1.53125 3.5078125 C1.0259375 3.01023437 0.520625 2.51265625 0 2 C0 1.34 0 0.68 0 0 Z " fill="#383736" transform="translate(371,264)"/>
<path d="M0 0 C3.07536854 0.65900754 5.07735566 1.53867783 8 3 C4.7 3.33 1.4 3.66 -2 4 C-1.01 3.67 -0.02 3.34 1 3 C0.67 2.01 0.34 1.02 0 0 Z " fill="#424241" transform="translate(675,803)"/>
<path d="M0 0 C3.55780196 0.60990891 6.6828589 1.5783681 10 3 C9.01 4.485 9.01 4.485 8 6 C7.01 5.67 6.02 5.34 5 5 C4.67 4.01 4.34 3.02 4 2 C1.99983534 0.79117904 1.99983534 0.79117904 0 0 Z " fill="#3D3D3B" transform="translate(539,759)"/>
<path d="M0 0 C3.36720387 1.39332574 4.9859524 2.9789286 7 6 C4.03824877 5.38722388 2.61941217 4.74627478 0 3 C0 2.01 0 1.02 0 0 Z " fill="#323231" transform="translate(742,592)"/>
<path d="M0 0 C0.66 0.66 1.32 1.32 2 2 C2.66 1.34 3.32 0.68 4 0 C4.625 2.3125 4.625 2.3125 5 5 C4.01 6.485 4.01 6.485 3 8 C2.71125 7.38125 2.4225 6.7625 2.125 6.125 C1.06279958 3.86674235 1.06279958 3.86674235 -1 2 C-0.67 1.34 -0.34 0.68 0 0 Z " fill="#3C3B3B" transform="translate(230,509)"/>
<path d="M0 0 C1.74627478 2.61941217 2.38722388 4.03824877 3 7 C2.01 7.33 1.02 7.66 0 8 C-0.66 6.02 -1.32 4.04 -2 2 C-1.34 2 -0.68 2 0 2 C0 1.34 0 0.68 0 0 Z " fill="#2F2F2E" transform="translate(254,486)"/>
<path d="M0 0 C0.33 0.66 0.66 1.32 1 2 C-3.75 6.875 -3.75 6.875 -6 8 C-4.55746343 4.63408134 -2.66735273 2.48952921 0 0 Z " fill="#2F2F2F" transform="translate(433,356)"/>
<path d="M0 0 C0.33 0 0.66 0 1 0 C1.33 2.64 1.66 5.28 2 8 C1.01 8 0.02 8 -1 8 C-1.33 8.66 -1.66 9.32 -2 10 C-1.125 2.25 -1.125 2.25 0 0 Z " fill="#1C1C1C" transform="translate(238,320)"/>
<path d="M0 0 C2.31 1.98 4.62 3.96 7 6 C6.34 6.66 5.68 7.32 5 8 C2.5 5.6875 2.5 5.6875 0 3 C0 2.01 0 1.02 0 0 Z " fill="#212020" transform="translate(380,272)"/>
<path d="M0 0 C-5.2734375 3.22265625 -5.2734375 3.22265625 -7 4 C-7.66 3.67 -8.32 3.34 -9 3 C-5.83583464 -0.30799106 -4.50236011 -1.35070803 0 0 Z " fill="#393838" transform="translate(752,779)"/>
<path d="M0 0 C0.66 0.33 1.32 0.66 2 1 C1.67 2.32 1.34 3.64 1 5 C-0.98 5 -2.96 5 -5 5 C-3.35 3.35 -1.7 1.7 0 0 Z " fill="#393838" transform="translate(755,738)"/>
<path d="M0 0 C2.91517292 1.07401108 4.77810176 1.77810176 7 4 C5.35 4.33 3.7 4.66 2 5 C1.01 3.68 0.02 2.36 -1 1 C-0.67 0.67 -0.34 0.34 0 0 Z " fill="#2F2F2E" transform="translate(489,735)"/>
<path d="M0 0 C2.64752004 2.57784846 4.94432065 4.91648098 7 8 C5.1875 7.8125 5.1875 7.8125 3 7 C0 2.82142857 0 2.82142857 0 0 Z " fill="#343432" transform="translate(332,604)"/>
<path d="M0 0 C0 3 0 3 -1.3125 4.38671875 C-2.875 5.59114583 -4.4375 6.79557292 -6 8 C-5.65120368 4.74456771 -4.97866739 3.98126893 -2.4375 1.75 C-1.633125 1.1725 -0.82875 0.595 0 0 Z " fill="#20201F" transform="translate(429,362)"/>
<path d="M0 0 C1.0625 1.8125 1.0625 1.8125 2 4 C1.67 4.99 1.34 5.98 1 7 C-1.0625 7.6875 -1.0625 7.6875 -3 8 C-1.125 2.25 -1.125 2.25 0 0 Z " fill="#343332" transform="translate(222,280)"/>
<path d="M0 0 C-0.25561323 2.3431213 -0.59270772 4.67843403 -1 7 C-1.99 7.495 -1.99 7.495 -3 8 C-3 5.69 -3 3.38 -3 1 C-1 0 -1 0 0 0 Z " fill="#20201F" transform="translate(226,276)"/>
<path d="M0 0 C0.66 0.33 1.32 0.66 2 1 C0.68 2.65 -0.64 4.3 -2 6 C-3.32 5.67 -4.64 5.34 -6 5 C-4.02 3.35 -2.04 1.7 0 0 Z " fill="#383837" transform="translate(763,732)"/>
<path d="M0 0 C1.32 0 2.64 0 4 0 C4.99 1.98 5.98 3.96 7 6 C3.63279613 4.60667426 2.0140476 3.0210714 0 0 Z " fill="#1E1E1C" transform="translate(381,657)"/>
<path d="M0 0 C3.37503669 1.1858237 5.64722731 2.27573689 8 5 C4.33776842 4.50510384 2.33006074 3.94323463 0 1 C0 0.67 0 0.34 0 0 Z " fill="#201F1E" transform="translate(670,571)"/>
<path d="M0 0 C2.5 2.3125 2.5 2.3125 5 5 C5 5.99 5 6.98 5 8 C2.5 5.6875 2.5 5.6875 0 3 C0 2.01 0 1.02 0 0 Z " fill="#343433" transform="translate(299,563)"/>
<path d="M0 0 C3.36720387 1.39332574 4.9859524 2.9789286 7 6 C4.625 5.8125 4.625 5.8125 2 5 C0.6875 2.4375 0.6875 2.4375 0 0 Z " fill="#3F3F3E" transform="translate(477,551)"/>
<path d="M0 0 C4 1 4 1 6 4 C5.67 4.99 5.34 5.98 5 7 C3.35 4.69 1.7 2.38 0 0 Z " fill="#323130" transform="translate(403,518)"/>
<path d="M0 0 C2.0625 1.75 2.0625 1.75 4 4 C3.75 6.25 3.75 6.25 3 8 C0.37613513 4.93882432 0 4.26826873 0 0 Z " fill="#2D2D2C" transform="translate(388,494)"/>
<path d="M0 0 C1.32 0 2.64 0 4 0 C4.66 1.98 5.32 3.96 6 6 C5.01 5.67 4.02 5.34 3 5 C3 4.34 3 3.68 3 3 C2.01 2.67 1.02 2.34 0 2 C0 1.34 0 0.68 0 0 Z " fill="#2D2D2C" transform="translate(403,462)"/>
<path d="M0 0 C0 3.61029169 -0.96092582 6.55806676 -2 10 C-2.33 10 -2.66 10 -3 10 C-3.29296875 3.9453125 -3.29296875 3.9453125 -3 2 C-2.01 1.34 -1.02 0.68 0 0 Z " fill="#3E3E3D" transform="translate(407,434)"/>
<path d="M0 0 C1.875 0.125 1.875 0.125 4 1 C5.25 4.0625 5.25 4.0625 6 7 C3.95880212 5.38405168 1.95927063 3.7143618 0 2 C0 1.34 0 0.68 0 0 Z " fill="#1E1D1D" transform="translate(434,287)"/>
<path d="M0 0 C0.33 0 0.66 0 1 0 C1 1.98 1 3.96 1 6 C0.67 6 0.34 6 0 6 C0 4.02 0 2.04 0 0 Z " fill="#3A3939" transform="translate(369,443)"/>
<path d="M0 0 C1.485 0.99 1.485 0.99 3 2 C1.68 1.67 0.36 1.34 -1 1 C-0.67 0.67 -0.34 0.34 0 0 Z " fill="#3B3938" transform="translate(578,805)"/>
<path d="M0 0 C4 1 4 1 4 1 Z " fill="#403F3E" transform="translate(625,812)"/>
<path d="M0 0 C0.66 0.66 1.32 1.32 2 2 C1.01 2.495 1.01 2.495 0 3 C0 2.01 0 1.02 0 0 Z " fill="#393837" transform="translate(433,738)"/>
<path d="M0 0 C0.66 0.66 1.32 1.32 2 2 C1.01 1.67 0.02 1.34 -1 1 C-0.67 0.67 -0.34 0.34 0 0 Z " fill="#3C3A38" transform="translate(402,716)"/>
<path d="M0 0 C0.66 0.66 1.32 1.32 2 2 C1.01 1.67 0.02 1.34 -1 1 C-0.67 0.67 -0.34 0.34 0 0 Z " fill="#383636" transform="translate(681,582)"/>
<path d="M0 0 C0.66 0.66 1.32 1.32 2 2 C1.01 2.495 1.01 2.495 0 3 C0 2.01 0 1.02 0 0 Z " fill="#393736" transform="translate(408,307)"/>
<path d="M0 0 C0.99 0.495 0.99 0.495 2 1 C1.67 1.66 1.34 2.32 1 3 C0.67 2.01 0.34 1.02 0 0 Z " fill="#3C3A3B" transform="translate(208,306)"/>
<path d="M0 0 C3 1 3 1 3 1 Z " fill="#3A3837" transform="translate(651,776)"/>
<path d="M0 0 C3 1 3 1 3 1 Z " fill="#3B3A38" transform="translate(574,768)"/>
<path d="M0 0 C0.66 0 1.32 0 2 0 C1.67 0.66 1.34 1.32 1 2 C0.67 1.34 0.34 0.68 0 0 Z " fill="#393736" transform="translate(533,754)"/>
<path d="" fill="#3A3939" transform="translate(0,0)"/>
<path d="M0 0 C0.33 0.66 0.66 1.32 1 2 C0.34 1.67 -0.32 1.34 -1 1 C-0.67 0.67 -0.34 0.34 0 0 Z " fill="#383837" transform="translate(446,704)"/>
<path d="M0 0 C0.66 0 1.32 0 2 0 C1.67 0.66 1.34 1.32 1 2 C0.67 1.34 0.34 0.68 0 0 Z " fill="#3B3A39" transform="translate(537,634)"/>
<path d="M0 0 C0.99 0.495 0.99 0.495 2 1 C1.01 1.495 1.01 1.495 0 2 C0 1.34 0 0.68 0 0 Z " fill="#393836" transform="translate(489,604)"/>
<path d="M0 0 C0.33 0.66 0.66 1.32 1 2 C0.34 1.67 -0.32 1.34 -1 1 C-0.67 0.67 -0.34 0.34 0 0 Z " fill="#3D3A39" transform="translate(564,600)"/>
<path d="M0 0 C3 1 3 1 3 1 Z " fill="#3B3A38" transform="translate(547,600)"/>
<path d="M0 0 C0.66 0.66 1.32 1.32 2 2 C1.34 2 0.68 2 0 2 C0 1.34 0 0.68 0 0 Z " fill="#3C3C3C" transform="translate(690,545)"/>
<path d="M0 0 C0.66 0 1.32 0 2 0 C1.67 0.66 1.34 1.32 1 2 C0.67 1.34 0.34 0.68 0 0 Z " fill="#3B3A39" transform="translate(469,538)"/>
<path d="M0 0 C0.66 0 1.32 0 2 0 C1.67 0.66 1.34 1.32 1 2 C0.67 1.34 0.34 0.68 0 0 Z " fill="#3B3A3A" transform="translate(208,465)"/>
<path d="M0 0 C0.66 0 1.32 0 2 0 C1.67 0.66 1.34 1.32 1 2 C0.67 1.34 0.34 0.68 0 0 Z " fill="#3A3A39" transform="translate(369,459)"/>
<path d="" fill="#3A3938" transform="translate(0,0)"/>
<path d="" fill="#373936" transform="translate(0,0)"/>
<path d="M0 0 C0.33 0.66 0.66 1.32 1 2 C0.34 1.67 -0.32 1.34 -1 1 C-0.67 0.67 -0.34 0.34 0 0 Z " fill="#373534" transform="translate(433,337)"/>
<path d="M0 0 C0.66 0.66 1.32 1.32 2 2 C1.34 2 0.68 2 0 2 C0 1.34 0 0.68 0 0 Z " fill="#373735" transform="translate(336,229)"/>
<path d="M0 0 C3 1 3 1 3 1 Z " fill="#3A3937" transform="translate(322,222)"/>
<path d="M0 0 C2 1 2 1 2 1 Z " fill="#3C3C3A" transform="translate(525,789)"/>
<path d="M0 0 C2 1 2 1 2 1 Z " fill="#3D3C3B" transform="translate(506,783)"/>
<path d="M0 0 C2 1 2 1 2 1 Z " fill="#3E3D3B" transform="translate(648,776)"/>
<path d="M0 0 C2 1 2 1 2 1 Z " fill="#3F3F3C" transform="translate(632,776)"/>
<path d="M0 0 C2 1 2 1 2 1 Z " fill="#3F3E3D" transform="translate(625,776)"/>
<path d="M0 0 C2 1 2 1 2 1 Z " fill="#3C3A3A" transform="translate(622,776)"/>
<path d="M0 0 C2 1 2 1 2 1 Z " fill="#3B3A39" transform="translate(557,762)"/>
<path d="M0 0 C2 1 2 1 2 1 Z " fill="#383838" transform="translate(547,760)"/>
<path d="" fill="#3F3F3C" transform="translate(0,0)"/>
<path d="" fill="#3C3B3A" transform="translate(0,0)"/>
<path d="M0 0 C2 1 2 1 2 1 Z " fill="#383636" transform="translate(469,720)"/>
<path d="" fill="#3B3937" transform="translate(0,0)"/>
<path d="" fill="#3D3A39" transform="translate(0,0)"/>
<path d="" fill="#3D3D3B" transform="translate(0,0)"/>
<path d="M0 0 C2 1 2 1 2 1 Z " fill="#3B3938" transform="translate(564,638)"/>
<path d="" fill="#3C3A38" transform="translate(0,0)"/>
<path d="" fill="#3A3737" transform="translate(0,0)"/>
<path d="" fill="#393837" transform="translate(0,0)"/>
<path d="M0 0 C2 1 2 1 2 1 Z " fill="#3C3B3A" transform="translate(265,575)"/>
<path d="" fill="#3C3938" transform="translate(0,0)"/>
<path d="" fill="#393737" transform="translate(0,0)"/>
<path d="" fill="#403D3D" transform="translate(0,0)"/>
<path d="M0 0 C2 1 2 1 2 1 Z " fill="#393836" transform="translate(420,542)"/>
<path d="M0 0 C2 1 2 1 2 1 Z " fill="#423F3D" transform="translate(672,537)"/>
<path d="" fill="#353535" transform="translate(0,0)"/>
<path d="M0 0 C2 1 2 1 2 1 Z " fill="#393737" transform="translate(224,503)"/>
<path d="" fill="#3B3A39" transform="translate(0,0)"/>
<path d="" fill="#3D3D3B" transform="translate(0,0)"/>
<path d="M0 0 C2 1 2 1 2 1 Z " fill="#3A3B39" transform="translate(420,481)"/>
<path d="" fill="#393836" transform="translate(0,0)"/>
<path d="M0 0 C2 1 2 1 2 1 Z " fill="#3B3937" transform="translate(413,472)"/>
<path d="" fill="#3B3B3A" transform="translate(0,0)"/>
<path d="" fill="#3B3A39" transform="translate(0,0)"/>
<path d="" fill="#3B3939" transform="translate(0,0)"/>
<path d="" fill="#3A3B3A" transform="translate(0,0)"/>
<path d="M0 0 C2 1 2 1 2 1 Z " fill="#393737" transform="translate(432,348)"/>
<path d="" fill="#393837" transform="translate(0,0)"/>
<path d="" fill="#3C3B3B" transform="translate(0,0)"/>
<path d="M0 0 C2 1 2 1 2 1 Z " fill="#3D3B3B" transform="translate(200,336)"/>
<path d="" fill="#393835" transform="translate(0,0)"/>
<path d="M0 0 C2 1 2 1 2 1 Z " fill="#383635" transform="translate(401,301)"/>
<path d="M0 0 C2 1 2 1 2 1 Z " fill="#3E3B3B" transform="translate(216,285)"/>
<path d="" fill="#3E3D3A" transform="translate(0,0)"/>
<path d="M0 0 C2 1 2 1 2 1 Z " fill="#3B3B3B" transform="translate(236,249)"/>
<path d="M0 0 C2 1 2 1 2 1 Z " fill="#3E3C3B" transform="translate(240,240)"/>
<path d="" fill="#393736" transform="translate(0,0)"/>
<path d="" fill="#403E3D" transform="translate(0,0)"/>
<path d="" fill="#424140" transform="translate(0,0)"/>
<path d="" fill="#3A3A39" transform="translate(0,0)"/>
<path d="" fill="#3E3C3B" transform="translate(0,0)"/>
<path d="" fill="#3E3C3C" transform="translate(0,0)"/>
<path d="" fill="#3B3A39" transform="translate(0,0)"/>
<path d="" fill="#3C3C3B" transform="translate(0,0)"/>
<path d="" fill="#3D3A3A" transform="translate(0,0)"/>
<path d="" fill="#3C3C3A" transform="translate(0,0)"/>
<path d="" fill="#413F3E" transform="translate(0,0)"/>
<path d="" fill="#3D3C3C" transform="translate(0,0)"/>
<path d="" fill="#373433" transform="translate(0,0)"/>
<path d="" fill="#3F3C3B" transform="translate(0,0)"/>
<path d="" fill="#3B3A39" transform="translate(0,0)"/>
<path d="" fill="#3D3D3C" transform="translate(0,0)"/>
<path d="" fill="#393735" transform="translate(0,0)"/>
<path d="" fill="#3A3837" transform="translate(0,0)"/>
<path d="" fill="#3D3B3B" transform="translate(0,0)"/>
<path d="" fill="#3E3C3B" transform="translate(0,0)"/>
<path d="" fill="#3D3C3A" transform="translate(0,0)"/>
<path d="" fill="#3E3C3B" transform="translate(0,0)"/>
<path d="" fill="#3E3D3D" transform="translate(0,0)"/>
<path d="" fill="#41403C" transform="translate(0,0)"/>
<path d="" fill="#3E3F3D" transform="translate(0,0)"/>
<path d="" fill="#353131" transform="translate(0,0)"/>
<path d="" fill="#3B3A3C" transform="translate(0,0)"/>
<path d="" fill="#3C3938" transform="translate(0,0)"/>
<path d="" fill="#3A3938" transform="translate(0,0)"/>
<path d="" fill="#3B3838" transform="translate(0,0)"/>
<path d="" fill="#383835" transform="translate(0,0)"/>
<path d="" fill="#3A3B3A" transform="translate(0,0)"/>
<path d="" fill="#3D3A39" transform="translate(0,0)"/>
<path d="" fill="#3A3B39" transform="translate(0,0)"/>
<path d="" fill="#3A393A" transform="translate(0,0)"/>
<path d="" fill="#3D3C3B" transform="translate(0,0)"/>
<path d="" fill="#3B3B39" transform="translate(0,0)"/>
<path d="" fill="#3A3A38" transform="translate(0,0)"/>
<path d="" fill="#3C3B39" transform="translate(0,0)"/>
<path d="" fill="#3B3B39" transform="translate(0,0)"/>
<path d="" fill="#393737" transform="translate(0,0)"/>
<path d="" fill="#3C3938" transform="translate(0,0)"/>
<path d="" fill="#3D3C3C" transform="translate(0,0)"/>
<path d="" fill="#3E3C3A" transform="translate(0,0)"/>
<path d="" fill="#393736" transform="translate(0,0)"/>
<path d="" fill="#383535" transform="translate(0,0)"/>
<path d="" fill="#3D3C3B" transform="translate(0,0)"/>
<path d="" fill="#3A3A37" transform="translate(0,0)"/>
<path d="" fill="#393935" transform="translate(0,0)"/>
<path d="" fill="#413E3F" transform="translate(0,0)"/>
<path d="" fill="#3C383C" transform="translate(0,0)"/>
<path d="" fill="#3B3938" transform="translate(0,0)"/>
<path d="" fill="#3A3A38" transform="translate(0,0)"/>
<path d="" fill="#393A39" transform="translate(0,0)"/>
<path d="" fill="#3C3938" transform="translate(0,0)"/>
<path d="" fill="#3C3C39" transform="translate(0,0)"/>
<path d="" fill="#363333" transform="translate(0,0)"/>
<path d="" fill="#3B3738" transform="translate(0,0)"/>
<path d="" fill="#3D3A38" transform="translate(0,0)"/>
<path d="" fill="#383635" transform="translate(0,0)"/>
<path d="" fill="#3B3C39" transform="translate(0,0)"/>
<path d="" fill="#3B3A39" transform="translate(0,0)"/>
<path d="" fill="#363434" transform="translate(0,0)"/>
<path d="" fill="#3C3A38" transform="translate(0,0)"/>
<path d="" fill="#3C393B" transform="translate(0,0)"/>
<path d="" fill="#3B3B38" transform="translate(0,0)"/>
<path d="" fill="#434040" transform="translate(0,0)"/>
<path d="" fill="#373638" transform="translate(0,0)"/>
<path d="" fill="#3A3A39" transform="translate(0,0)"/>
<path d="" fill="#3B3B38" transform="translate(0,0)"/>
<path d="" fill="#353536" transform="translate(0,0)"/>
<path d="" fill="#363835" transform="translate(0,0)"/>
<path d="" fill="#383737" transform="translate(0,0)"/>
<path d="" fill="#3D3D3B" transform="translate(0,0)"/>
<path d="" fill="#3B3A3B" transform="translate(0,0)"/>
<path d="" fill="#3B3A37" transform="translate(0,0)"/>
<path d="" fill="#373938" transform="translate(0,0)"/>
<path d="" fill="#322F2E" transform="translate(0,0)"/>
<path d="" fill="#373735" transform="translate(0,0)"/>
<path d="" fill="#3A3739" transform="translate(0,0)"/>
<path d="" fill="#3A3836" transform="translate(0,0)"/>
<path d="" fill="#434244" transform="translate(0,0)"/>
<path d="" fill="#3C3938" transform="translate(0,0)"/>
<path d="" fill="#393738" transform="translate(0,0)"/>
<path d="" fill="#3D3D3B" transform="translate(0,0)"/>
<path d="" fill="#3B3A3A" transform="translate(0,0)"/>
<path d="" fill="#3B3736" transform="translate(0,0)"/>
<path d="" fill="#41403F" transform="translate(0,0)"/>
<path d="" fill="#3D3C3A" transform="translate(0,0)"/>
<path d="" fill="#3C3839" transform="translate(0,0)"/>
<path d="" fill="#424040" transform="translate(0,0)"/>
<path d="" fill="#3C3B3B" transform="translate(0,0)"/>
<path d="" fill="#3B3839" transform="translate(0,0)"/>
<path d="" fill="#373837" transform="translate(0,0)"/>
<path d="" fill="#3C3A38" transform="translate(0,0)"/>
<path d="" fill="#3D3D3C" transform="translate(0,0)"/>
<path d="" fill="#393A37" transform="translate(0,0)"/>
<path d="" fill="#3C3B37" transform="translate(0,0)"/>
<path d="" fill="#373536" transform="translate(0,0)"/>
<path d="" fill="#3B3837" transform="translate(0,0)"/>
<path d="" fill="#393737" transform="translate(0,0)"/>
<path d="" fill="#464644" transform="translate(0,0)"/>
<path d="" fill="#403E3B" transform="translate(0,0)"/>
<path d="" fill="#3C3A3B" transform="translate(0,0)"/>
<path d="" fill="#3B393A" transform="translate(0,0)"/>
<path d="" fill="#343332" transform="translate(0,0)"/>
<path d="" fill="#393637" transform="translate(0,0)"/>
<path d="" fill="#363634" transform="translate(0,0)"/>
<path d="" fill="#3C3A38" transform="translate(0,0)"/>
<path d="" fill="#3C3A38" transform="translate(0,0)"/>
<path d="" fill="#3B3B39" transform="translate(0,0)"/>
<path d="" fill="#393737" transform="translate(0,0)"/>
<path d="" fill="#393934" transform="translate(0,0)"/>
<path d="" fill="#3E3C3B" transform="translate(0,0)"/>
<path d="" fill="#3C3D3C" transform="translate(0,0)"/>
<path d="" fill="#403F3E" transform="translate(0,0)"/>
<path d="" fill="#3F3F3D" transform="translate(0,0)"/>
<path d="" fill="#3E3939" transform="translate(0,0)"/>
<path d="" fill="#3E3B3A" transform="translate(0,0)"/>
<path d="" fill="#3D3D3D" transform="translate(0,0)"/>
<path d="" fill="#3A3B37" transform="translate(0,0)"/>
<path d="" fill="#3A3736" transform="translate(0,0)"/>
<path d="" fill="#3D3B39" transform="translate(0,0)"/>
<path d="" fill="#3A3937" transform="translate(0,0)"/>
<path d="" fill="#3E3B3C" transform="translate(0,0)"/>
<path d="" fill="#3D3A38" transform="translate(0,0)"/>
<path d="" fill="#393737" transform="translate(0,0)"/>
<path d="" fill="#393939" transform="translate(0,0)"/>
<path d="" fill="#3B3A38" transform="translate(0,0)"/>
<path d="" fill="#3A3B39" transform="translate(0,0)"/>
<path d="" fill="#3C3A3A" transform="translate(0,0)"/>
<path d="" fill="#3B3C3A" transform="translate(0,0)"/>
<path d="" fill="#373738" transform="translate(0,0)"/>
<path d="" fill="#3B3938" transform="translate(0,0)"/>
<path d="" fill="#3D3C3C" transform="translate(0,0)"/>
<path d="" fill="#3B3B37" transform="translate(0,0)"/>
<path d="" fill="#3E3B39" transform="translate(0,0)"/>
<path d="" fill="#3D3A3A" transform="translate(0,0)"/>
<path d="" fill="#3B3A3A" transform="translate(0,0)"/>
<path d="" fill="#393738" transform="translate(0,0)"/>
<path d="" fill="#3E3A39" transform="translate(0,0)"/>
<path d="" fill="#3A3A37" transform="translate(0,0)"/>
<path d="" fill="#3D3C3A" transform="translate(0,0)"/>
<path d="" fill="#383937" transform="translate(0,0)"/>
<path d="" fill="#3A3A38" transform="translate(0,0)"/>
<path d="" fill="#383636" transform="translate(0,0)"/>
<path d="" fill="#393738" transform="translate(0,0)"/>
<path d="" fill="#3A3839" transform="translate(0,0)"/>
<path d="" fill="#393736" transform="translate(0,0)"/>
<path d="" fill="#3C383A" transform="translate(0,0)"/>
<path d="" fill="#3B3938" transform="translate(0,0)"/>
<path d="" fill="#3B3638" transform="translate(0,0)"/>
<path d="" fill="#3A3838" transform="translate(0,0)"/>
<path d="" fill="#403E3C" transform="translate(0,0)"/>
<path d="" fill="#3F3B3A" transform="translate(0,0)"/>
<path d="" fill="#373533" transform="translate(0,0)"/>
<path d="" fill="#3A393A" transform="translate(0,0)"/>
<path d="" fill="#3A3B3A" transform="translate(0,0)"/>
<path d="" fill="#363533" transform="translate(0,0)"/>
<path d="" fill="#363533" transform="translate(0,0)"/>
<path d="" fill="#3E3C39" transform="translate(0,0)"/>
<path d="" fill="#3B3938" transform="translate(0,0)"/>
<path d="" fill="#3B3738" transform="translate(0,0)"/>
<path d="" fill="#3B393A" transform="translate(0,0)"/>
<path d="" fill="#353331" transform="translate(0,0)"/>
<path d="" fill="#3A3637" transform="translate(0,0)"/>
<path d="" fill="#3F3F3D" transform="translate(0,0)"/>
<path d="" fill="#3A3A38" transform="translate(0,0)"/>
<path d="" fill="#3C3B3A" transform="translate(0,0)"/>
<path d="" fill="#3B3738" transform="translate(0,0)"/>
<path d="" fill="#343130" transform="translate(0,0)"/>
<path d="" fill="#3D3D3B" transform="translate(0,0)"/>
<path d="" fill="#3E3E3D" transform="translate(0,0)"/>
<path d="" fill="#3B3C3A" transform="translate(0,0)"/>
<path d="" fill="#3A3838" transform="translate(0,0)"/>
<path d="" fill="#3B3B39" transform="translate(0,0)"/>
<path d="" fill="#3D3A3B" transform="translate(0,0)"/>
<path d="" fill="#3A383A" transform="translate(0,0)"/>
<path d="" fill="#3E3C3B" transform="translate(0,0)"/>
<path d="" fill="#393636" transform="translate(0,0)"/>
<path d="" fill="#3E3B3A" transform="translate(0,0)"/>
<path d="" fill="#3D3B3C" transform="translate(0,0)"/>
<path d="" fill="#3D3B3A" transform="translate(0,0)"/>
<path d="" fill="#3B3B3A" transform="translate(0,0)"/>
<path d="" fill="#3B393A" transform="translate(0,0)"/>
<path d="" fill="#3C3A3B" transform="translate(0,0)"/>
<path d="" fill="#3B3B39" transform="translate(0,0)"/>
<path d="" fill="#3A3B3A" transform="translate(0,0)"/>
<path d="" fill="#343434" transform="translate(0,0)"/>
<path d="" fill="#383637" transform="translate(0,0)"/>
<path d="" fill="#3B3B39" transform="translate(0,0)"/>
<path d="" fill="#3B3838" transform="translate(0,0)"/>
<path d="" fill="#3B3A3A" transform="translate(0,0)"/>
<path d="" fill="#3E3A3A" transform="translate(0,0)"/>
<path d="" fill="#3C3838" transform="translate(0,0)"/>
<path d="" fill="#393937" transform="translate(0,0)"/>
<path d="" fill="#383737" transform="translate(0,0)"/>
<path d="" fill="#3E3F3C" transform="translate(0,0)"/>
<path d="" fill="#3B3B3A" transform="translate(0,0)"/>
<path d="" fill="#363133" transform="translate(0,0)"/>
<path d="" fill="#3C383A" transform="translate(0,0)"/>
<path d="" fill="#333231" transform="translate(0,0)"/>
<path d="" fill="#3C3B38" transform="translate(0,0)"/>
<path d="" fill="#3B3A3A" transform="translate(0,0)"/>
<path d="" fill="#414141" transform="translate(0,0)"/>
<path d="" fill="#413E3E" transform="translate(0,0)"/>
<path d="" fill="#42403E" transform="translate(0,0)"/>
<path d="" fill="#3B3838" transform="translate(0,0)"/>
<path d="" fill="#3E3D3D" transform="translate(0,0)"/>
<path d="" fill="#3E3C3C" transform="translate(0,0)"/>
<path d="" fill="#3A3B39" transform="translate(0,0)"/>
<path d="" fill="#383736" transform="translate(0,0)"/>
<path d="" fill="#3C3A38" transform="translate(0,0)"/>
<path d="" fill="#3B3836" transform="translate(0,0)"/>
<path d="" fill="#383636" transform="translate(0,0)"/>
<path d="" fill="#3A393A" transform="translate(0,0)"/>
<path d="" fill="#3D3B3B" transform="translate(0,0)"/>
<path d="" fill="#393637" transform="translate(0,0)"/>
<path d="" fill="#373535" transform="translate(0,0)"/>
<path d="" fill="#373736" transform="translate(0,0)"/>
<path d="" fill="#3B3B3A" transform="translate(0,0)"/>
<path d="" fill="#373635" transform="translate(0,0)"/>
<path d="" fill="#3A3A3B" transform="translate(0,0)"/>
<path d="" fill="#393837" transform="translate(0,0)"/>
<path d="" fill="#3A3939" transform="translate(0,0)"/>
<path d="" fill="#3B3839" transform="translate(0,0)"/>
<path d="" fill="#3A3A39" transform="translate(0,0)"/>
<path d="" fill="#3A3736" transform="translate(0,0)"/>
<path d="" fill="#343232" transform="translate(0,0)"/>
<path d="" fill="#423F3E" transform="translate(0,0)"/>
<path d="" fill="#3B3A38" transform="translate(0,0)"/>
<path d="" fill="#3B3837" transform="translate(0,0)"/>
<path d="" fill="#373635" transform="translate(0,0)"/>
<path d="" fill="#323131" transform="translate(0,0)"/>
<path d="" fill="#383737" transform="translate(0,0)"/>
<path d="" fill="#3C3B3A" transform="translate(0,0)"/>
<path d="" fill="#343233" transform="translate(0,0)"/>
<path d="" fill="#3C3A39" transform="translate(0,0)"/>
<path d="" fill="#393A39" transform="translate(0,0)"/>
<path d="" fill="#373736" transform="translate(0,0)"/>
<path d="" fill="#3E3C3B" transform="translate(0,0)"/>
<path d="" fill="#383536" transform="translate(0,0)"/>
<path d="" fill="#383837" transform="translate(0,0)"/>
<path d="" fill="#3A3837" transform="translate(0,0)"/>
<path d="" fill="#383837" transform="translate(0,0)"/>
<path d="" fill="#3A3738" transform="translate(0,0)"/>
<path d="" fill="#353533" transform="translate(0,0)"/>
<path d="" fill="#3C3938" transform="translate(0,0)"/>
<path d="" fill="#3A3737" transform="translate(0,0)"/>
<path d="" fill="#3A393A" transform="translate(0,0)"/>
<path d="" fill="#3C393A" transform="translate(0,0)"/>
<path d="" fill="#3A3C3A" transform="translate(0,0)"/>
<path d="" fill="#3B3A39" transform="translate(0,0)"/>
<path d="" fill="#3C3D3A" transform="translate(0,0)"/>
<path d="" fill="#3E3C3C" transform="translate(0,0)"/>
<path d="" fill="#383735" transform="translate(0,0)"/>
<path d="" fill="#393836" transform="translate(0,0)"/>
<path d="" fill="#3C3B3C" transform="translate(0,0)"/>
<path d="" fill="#393736" transform="translate(0,0)"/>
<path d="" fill="#3C3B39" transform="translate(0,0)"/>
<path d="" fill="#3C3A39" transform="translate(0,0)"/>
<path d="" fill="#3B393A" transform="translate(0,0)"/>
<path d="" fill="#393B3A" transform="translate(0,0)"/>
<path d="" fill="#3B3838" transform="translate(0,0)"/>
<path d="" fill="#363837" transform="translate(0,0)"/>
<path d="" fill="#3A3938" transform="translate(0,0)"/>
<path d="" fill="#363435" transform="translate(0,0)"/>
<path d="" fill="#363535" transform="translate(0,0)"/>
<path d="" fill="#3C3A39" transform="translate(0,0)"/>
<path d="" fill="#3A3938" transform="translate(0,0)"/>
<path d="" fill="#3C3E3C" transform="translate(0,0)"/>
<path d="" fill="#3A3838" transform="translate(0,0)"/>
<path d="" fill="#3E3A3B" transform="translate(0,0)"/>
<path d="" fill="#383837" transform="translate(0,0)"/>
<path d="" fill="#3D3C3B" transform="translate(0,0)"/>
<path d="" fill="#3B3A3B" transform="translate(0,0)"/>
<path d="" fill="#3F3B3E" transform="translate(0,0)"/>
<path d="" fill="#3A373A" transform="translate(0,0)"/>
<path d="" fill="#3A3838" transform="translate(0,0)"/>
<path d="" fill="#393837" transform="translate(0,0)"/>
<path d="" fill="#424241" transform="translate(0,0)"/>
<path d="" fill="#353533" transform="translate(0,0)"/>
<path d="" fill="#383633" transform="translate(0,0)"/>
<path d="" fill="#3C3A39" transform="translate(0,0)"/>
<path d="" fill="#383536" transform="translate(0,0)"/>
<path d="" fill="#373533" transform="translate(0,0)"/>
<path d="" fill="#373736" transform="translate(0,0)"/>
<path d="" fill="#383635" transform="translate(0,0)"/>
<path d="" fill="#3B3939" transform="translate(0,0)"/>
<path d="" fill="#3B3B38" transform="translate(0,0)"/>
<path d="" fill="#393735" transform="translate(0,0)"/>
<path d="" fill="#3A3838" transform="translate(0,0)"/>
<path d="" fill="#383532" transform="translate(0,0)"/>
<path d="" fill="#3F3C3D" transform="translate(0,0)"/>
<path d="" fill="#393637" transform="translate(0,0)"/>
<path d="" fill="#383938" transform="translate(0,0)"/>
<path d="" fill="#373433" transform="translate(0,0)"/>
<path d="" fill="#3B3C3A" transform="translate(0,0)"/>
<path d="" fill="#373634" transform="translate(0,0)"/>
<path d="" fill="#3A3837" transform="translate(0,0)"/>
<path d="" fill="#3E3C3F" transform="translate(0,0)"/>
<path d="" fill="#3B3B3B" transform="translate(0,0)"/>
<path d="" fill="#3A3837" transform="translate(0,0)"/>
<path d="" fill="#3E3D3C" transform="translate(0,0)"/>
<path d="" fill="#363635" transform="translate(0,0)"/>
<path d="" fill="#383736" transform="translate(0,0)"/>
<path d="" fill="#383233" transform="translate(0,0)"/>
<path d="" fill="#373635" transform="translate(0,0)"/>
<path d="" fill="#3D3A3B" transform="translate(0,0)"/>
<path d="" fill="#3A3736" transform="translate(0,0)"/>
<path d="" fill="#3B3A3B" transform="translate(0,0)"/>
<path d="" fill="#3E3C3C" transform="translate(0,0)"/>
<path d="" fill="#3C3A38" transform="translate(0,0)"/>
<path d="" fill="#3B3739" transform="translate(0,0)"/>
<path d="" fill="#363734" transform="translate(0,0)"/>
<path d="" fill="#3E3E3D" transform="translate(0,0)"/>
<path d="" fill="#353532" transform="translate(0,0)"/>
<path d="" fill="#393938" transform="translate(0,0)"/>
<path d="" fill="#373636" transform="translate(0,0)"/>
<path d="" fill="#393738" transform="translate(0,0)"/>
<path d="" fill="#3B3B3A" transform="translate(0,0)"/>
<path d="" fill="#3D3C3B" transform="translate(0,0)"/>
<path d="" fill="#3E3C3A" transform="translate(0,0)"/>
<path d="" fill="#3A3A3A" transform="translate(0,0)"/>
<path d="" fill="#3F3D3D" transform="translate(0,0)"/>
<path d="" fill="#434342" transform="translate(0,0)"/>
<path d="" fill="#3F3E3D" transform="translate(0,0)"/>
<path d="" fill="#424444" transform="translate(0,0)"/>
<path d="" fill="#434241" transform="translate(0,0)"/>
<path d="" fill="#454140" transform="translate(0,0)"/>
</svg>
