<?xml version="1.0" standalone="no"?>
<!DOCTYPE svg PUBLIC "-//W3C//DTD SVG 20010904//EN"
 "http://www.w3.org/TR/2001/REC-SVG-20010904/DTD/svg10.dtd">
<svg version="1.0" xmlns="http://www.w3.org/2000/svg"
 width="1024.000000pt" height="1024.000000pt" viewBox="0 0 1024.000000 1024.000000"
 preserveAspectRatio="xMidYMid meet">

<g transform="translate(0.000000,1024.000000) scale(0.100000,-0.100000)"
fill="#000000" stroke="none">
<path d="M2175 8144 c-87 -19 -234 -89 -300 -144 -112 -94 -200 -229 -247
-380 l-23 -75 -3 -2340 c-2 -1648 0 -2365 8 -2424 20 -153 90 -304 191 -416
92 -100 205 -167 347 -208 l77 -22 2800 -1 c1540 -1 2854 2 2920 6 90 5 141
14 203 34 190 64 358 223 436 416 60 147 57 -4 54 2590 -3 2676 5 2409 -83
2585 -100 200 -283 339 -501 381 -115 22 -5774 20 -5879 -2z m5847 -235 c151
-32 288 -150 350 -299 21 -52 23 -70 26 -352 l3 -298 -3280 0 -3281 0 0 263
c0 288 6 330 59 435 58 113 155 196 279 239 l67 22 2862 1 c2083 0 2876 -3
2915 -11z m378 -3147 c0 -1726 -2 -1965 -15 -2017 -46 -175 -192 -318 -363
-354 -72 -15 -5746 -15 -5812 0 -122 28 -249 126 -309 239 -65 122 -61 -22
-61 2132 l0 1958 3280 0 3280 0 0 -1958z"/>
<path d="M2364 7556 c-37 -16 -71 -61 -74 -96 -6 -64 1 -83 39 -121 34 -34 44
-39 85 -39 58 0 101 21 126 63 36 58 19 141 -37 181 -33 24 -100 30 -139 12z"/>
<path d="M3031 7552 c-66 -35 -90 -125 -51 -189 28 -46 72 -66 133 -60 68 6
108 46 114 114 12 116 -95 189 -196 135z"/>
<path d="M3711 7553 c-93 -46 -94 -190 -2 -238 92 -47 201 17 201 120 0 103
-104 164 -199 118z"/>
<path d="M3540 6320 c-645 -3 -1113 -9 -1125 -14 -46 -22 -86 -61 -110 -109
l-25 -51 0 -1265 c0 -862 4 -1278 11 -1304 13 -48 70 -112 123 -139 41 -21 45
-21 1187 -20 1247 0 1176 -3 1247 57 18 15 43 46 55 69 l22 41 0 1285 0 1285
-22 41 c-43 80 -106 119 -208 126 -27 2 -547 1 -1155 -2z m740 -616 c-206
-207 -443 -445 -526 -529 l-152 -152 -528 528 -529 529 1055 0 1055 0 -375
-376z m-1303 -1312 l-457 -457 0 915 0 916 457 -458 458 -458 -458 -458z
m1708 463 l0 -915 -458 457 -457 458 457 457 c252 252 458 458 458 458 0 0 0
-412 0 -915z m-55 -1195 c0 -3 -459 -5 -1020 -5 -561 0 -1019 3 -1017 7 1 3
229 237 506 518 l504 511 514 -513 c282 -282 513 -515 513 -518z"/>
<path d="M5464 6120 c-28 -11 -61 -54 -69 -89 -9 -41 18 -97 57 -121 33 -20
47 -20 1198 -20 1151 0 1165 0 1198 20 45 28 68 82 53 130 -6 20 -22 47 -37
61 l-26 24 -1176 2 c-647 1 -1187 -2 -1198 -7z"/>
<path d="M5441 5504 c-17 -14 -36 -43 -42 -64 -10 -32 -9 -44 7 -77 39 -78
-54 -73 1249 -73 1146 0 1160 0 1193 20 46 28 68 82 53 131 -6 21 -25 49 -42
63 l-31 26 -1178 0 -1178 0 -31 -26z"/>
<path d="M5774 4741 c-47 -29 -60 -70 -47 -155 21 -142 284 -1662 294 -1698
19 -71 102 -112 180 -89 32 10 65 41 186 176 80 91 149 165 152 165 3 0 75
-96 159 -214 172 -239 191 -256 285 -256 56 0 56 0 214 119 87 65 168 129 180
142 44 48 56 125 28 179 -9 17 -83 121 -165 232 -83 111 -147 205 -143 209 5
4 87 45 183 90 96 45 187 90 203 101 62 44 76 134 30 188 -20 24 -217 127
-825 431 -862 431 -843 423 -914 380z m1366 -895 c-14 -6 -88 -40 -166 -77
-167 -79 -188 -99 -182 -175 4 -44 14 -63 89 -165 219 -294 262 -353 263 -365
1 -16 -155 -139 -163 -127 -50 79 -317 439 -347 471 -35 35 -48 42 -80 42 -22
0 -52 -8 -69 -19 -16 -10 -84 -79 -150 -154 -66 -74 -121 -134 -123 -133 -3 4
-222 1278 -222 1297 0 2 264 -128 588 -290 534 -268 585 -295 562 -305z"/>
</g>
</svg>
