<?xml version="1.0" standalone="no"?>
<!DOCTYPE svg PUBLIC "-//W3C//DTD SVG 20010904//EN"
 "http://www.w3.org/TR/2001/REC-SVG-20010904/DTD/svg10.dtd">
<svg version="1.0" xmlns="http://www.w3.org/2000/svg"
 width="1024.000000pt" height="1024.000000pt" viewBox="0 0 1024.000000 1024.000000"
 preserveAspectRatio="xMidYMid meet">

<g transform="translate(0.000000,1024.000000) scale(0.100000,-0.100000)"
fill="#000000" stroke="none">
<path d="M1660 8545 c-217 -44 -401 -185 -496 -380 -80 -166 -74 97 -74 -3035
0 -3047 -3 -2858 55 -3002 82 -202 258 -355 481 -420 l79 -23 3410 0 c3229 0
3414 1 3485 18 261 61 460 256 536 527 18 62 19 180 22 2840 2 1980 0 2797 -8
2853 -23 160 -86 291 -194 406 -110 115 -241 187 -394 217 -106 20 -6801 19
-6902 -1z m6885 -259 c172 -46 313 -195 345 -365 7 -35 10 -1001 10 -2800 0
-3017 4 -2820 -61 -2942 -37 -69 -119 -149 -190 -185 -114 -57 121 -54 -3525
-54 -3296 0 -3352 0 -3427 20 -43 10 -98 31 -123 46 -110 64 -204 202 -224
329 -14 88 -13 5512 1 5591 31 172 173 325 337 363 21 5 1503 9 3422 10 2797
1 3394 -2 3435 -13z"/>
<path d="M2181 7592 c-19 -9 -44 -30 -55 -45 -21 -28 -21 -38 -24 -730 -2
-666 -1 -704 16 -736 10 -19 34 -43 53 -53 32 -17 74 -18 719 -18 661 0 686 1
717 20 56 34 58 40 63 350 l5 285 245 3 c135 2 354 0 488 -3 l242 -7 0 -449 0
-449 -272 0 c-395 0 -382 11 -386 -306 l-3 -214 -597 0 c-581 0 -598 -1 -630
-20 -61 -37 -62 -45 -62 -505 l0 -415 -248 0 c-278 0 -298 -4 -334 -71 -17
-32 -18 -71 -16 -746 l3 -713 33 -32 32 -33 696 -3 c692 -2 696 -2 733 19 75
42 71 -5 71 781 0 687 -1 704 -20 736 -36 59 -56 62 -390 62 l-300 0 0 346 0
346 508 -7 c279 -4 512 -8 518 -10 7 -2 12 -80 13 -241 3 -261 7 -281 61 -309
24 -13 86 -17 310 -22 l280 -6 0 -442 c0 -433 0 -443 21 -469 46 -58 13 -56
809 -56 l730 0 0 -312 c0 -295 1 -315 20 -346 11 -18 34 -41 52 -52 32 -19 52
-20 718 -20 764 0 729 -3 777 69 l23 34 0 699 c0 771 3 738 -63 778 -30 19
-52 20 -314 20 l-283 0 0 825 0 825 403 0 c473 0 477 1 562 83 87 85 85 64 85
757 0 656 1 648 -61 723 -17 21 -54 50 -83 65 l-51 27 -971 3 -972 2 -63 -33
c-69 -35 -119 -95 -139 -165 -6 -23 -10 -258 -10 -633 0 -662 -1 -649 67 -728
19 -23 58 -54 87 -69 l51 -27 418 -3 417 -3 0 -384 0 -385 -655 0 -655 0 0
228 c0 201 -3 232 -19 269 -33 71 -41 73 -359 73 l-279 0 -7 543 c-8 594 -5
569 -69 607 -31 19 -55 20 -599 20 l-568 0 0 291 c0 324 -3 341 -65 379 -32
20 -48 20 -711 20 -627 0 -682 -1 -713 -18z m1231 -309 c3 -38 5 -281 7 -540
l2 -473 -531 0 -530 0 0 540 0 540 524 0 524 0 4 -67z m4528 -96 c0 -90 -3
-347 -7 -570 l-6 -407 -919 0 -918 0 0 509 c0 279 3 536 6 570 l7 61 918 0
919 0 0 -163z m-2627 -1944 c9 -316 9 -531 1 -560 l-6 -23 -529 0 -529 0 0
420 0 420 528 0 529 0 6 -257z m1575 -630 l3 -313 -291 0 c-315 0 -326 -2
-369 -56 -20 -26 -21 -38 -21 -289 l0 -262 -152 -6 c-83 -4 -375 -7 -648 -7
l-497 0 -7 183 c-4 100 -6 261 -5 358 l3 177 286 4 c279 3 286 4 318 27 58 41
62 58 62 285 l0 206 568 3 c312 1 608 2 657 2 l90 0 3 -312z m654 -1111 l3
-542 -537 0 -538 0 0 540 0 540 533 2 c292 2 533 3 534 2 1 0 4 -244 5 -542z
m-4122 -2 l0 -540 -535 0 -535 0 0 540 0 540 535 0 535 0 0 -540z"/>
</g>
</svg>
