<?xml version="1.0" standalone="no"?>
<!DOCTYPE svg PUBLIC "-//W3C//DTD SVG 20010904//EN"
 "http://www.w3.org/TR/2001/REC-SVG-20010904/DTD/svg10.dtd">
<svg version="1.0" xmlns="http://www.w3.org/2000/svg"
 width="1024.000000pt" height="1024.000000pt" viewBox="0 0 1024.000000 1024.000000"
 preserveAspectRatio="xMidYMid meet">

<g transform="translate(0.000000,1024.000000) scale(0.100000,-0.100000)"
fill="#000000" stroke="none">
<path d="M7580 8426 c-47 -13 -171 -48 -276 -79 -104 -31 -291 -81 -415 -112
-241 -61 -260 -68 -301 -112 -51 -54 -62 -127 -29 -198 10 -22 60 -80 110
-130 50 -49 91 -92 91 -95 0 -3 -375 -383 -834 -844 l-833 -839 -49 19 c-36
14 -75 19 -149 19 -88 0 -107 -3 -159 -27 -32 -16 -80 -44 -106 -63 -26 -19
-50 -35 -54 -35 -5 0 -514 231 -648 295 -56 26 -56 27 -66 85 -6 32 -23 85
-38 117 -33 69 -129 168 -194 200 -57 28 -153 53 -202 53 -203 0 -401 -162
-438 -359 -12 -65 -13 -153 -1 -203 l9 -37 -595 -598 c-327 -329 -599 -608
-604 -621 -26 -68 5 -152 66 -178 51 -21 86 -17 136 15 24 16 295 281 603 590
l559 560 50 -25 c109 -56 202 -67 312 -39 84 22 151 62 215 126 l55 56 136
-61 c75 -34 176 -78 225 -100 49 -21 137 -61 195 -88 l107 -50 4 -91 c8 -147
63 -256 173 -339 83 -63 144 -82 265 -82 99 -1 109 1 172 32 78 38 168 116
205 179 73 125 83 283 26 416 l-17 38 820 820 c450 451 830 829 844 839 l25
18 80 -75 c44 -41 120 -113 169 -159 49 -46 108 -93 131 -104 90 -43 201 -14
259 68 36 51 61 172 176 851 35 205 37 254 10 298 -40 66 -105 80 -220 49z
m-60 -303 c0 -6 -7 -50 -35 -223 -17 -108 -16 -101 -46 -270 -12 -69 -24 -133
-28 -142 -5 -13 -22 -1 -87 60 -44 42 -107 102 -140 132 -32 30 -112 105 -177
166 l-118 112 108 26 c59 14 196 53 303 85 201 61 220 66 220 54z m-4043
-1734 c66 -24 116 -97 115 -166 -1 -53 -21 -91 -66 -131 -86 -75 -208 -41
-256 71 -20 46 -21 57 -11 96 29 108 125 165 218 130z m1513 -637 c34 -26 68
-78 76 -117 21 -112 -99 -228 -205 -197 -109 33 -159 144 -112 248 42 93 161
125 241 66z"/>
<path d="M1355 8324 c-42 -23 -65 -50 -76 -87 -5 -19 -9 -1293 -9 -3156 0
-3114 0 -3124 20 -3156 11 -18 36 -40 54 -49 31 -15 298 -16 3008 -16 2811 0
2975 1 3007 18 19 9 43 28 53 42 18 26 60 260 74 412 7 76 7 78 34 78 15 0 57
16 93 35 36 19 72 35 79 35 7 0 57 -38 111 -85 121 -104 171 -122 271 -93 33
9 79 49 244 212 112 111 212 218 223 238 20 39 25 111 10 150 -5 14 -45 72
-90 131 l-80 106 28 58 c16 32 37 89 47 126 13 46 23 67 34 67 8 0 66 5 127
10 124 10 184 30 227 76 54 59 57 85 54 385 -3 259 -4 276 -25 315 -44 81
-103 110 -264 126 l-119 12 -11 36 c-6 19 -31 75 -55 123 l-44 88 52 75 c102
143 118 174 118 226 0 27 -6 63 -13 81 -20 48 -403 436 -452 458 -51 24 -109
24 -160 0 -22 -10 -80 -52 -129 -94 -49 -43 -94 -77 -100 -77 -6 0 -19 7 -28
14 -17 12 -18 55 -18 637 0 378 -4 638 -10 658 -12 42 -52 86 -103 112 -36 19
-58 20 -411 17 l-374 -3 -38 -31 c-84 -68 -79 -36 -82 -487 l-3 -401 -25 -33
c-49 -64 -72 -133 -89 -268 -9 -71 -17 -130 -18 -132 -1 -1 -31 -13 -67 -26
-36 -14 -79 -30 -95 -37 -29 -12 -34 -10 -130 57 -159 112 -193 124 -277 99
-49 -14 -67 -30 -262 -231 -214 -222 -235 -250 -236 -325 0 -47 20 -85 111
-205 l76 -101 -27 -54 c-15 -30 -36 -81 -46 -112 l-18 -58 -53 -2 c-29 -1 -62
-2 -73 -2 -19 -1 -20 6 -23 119 -3 130 -14 164 -65 212 -57 53 -71 54 -436 53
-372 -1 -381 -2 -443 -62 -66 -64 -64 -24 -61 -1074 3 -871 4 -952 20 -980 22
-40 81 -92 116 -101 15 -5 185 -8 377 -8 310 0 354 2 381 17 40 22 92 81 101
116 5 15 8 195 8 401 l0 373 44 -6 c24 -3 60 -6 80 -6 l36 0 49 -115 48 -115
-65 -83 c-108 -139 -118 -158 -118 -220 0 -30 6 -70 15 -90 15 -37 140 -168
323 -340 161 -151 206 -154 389 -23 l116 83 68 -28 c37 -16 90 -34 119 -40 28
-6 51 -11 52 -12 0 -1 6 -57 13 -125 l12 -122 -2498 0 -2498 0 0 3040 c0 3322
4 3084 -58 3129 -41 29 -109 36 -147 15z m6018 -2277 c1 -191 2 -347 2 -347 0
0 -27 14 -59 30 -59 30 -59 30 -237 30 l-179 0 0 320 0 320 235 -2 236 -3 2
-348z m-169 -559 c3 -13 13 -86 22 -163 9 -77 20 -150 25 -162 11 -31 43 -49
119 -67 36 -8 124 -45 196 -82 105 -53 137 -65 160 -60 16 4 86 49 156 100
l126 94 136 -138 c75 -76 136 -141 136 -144 0 -4 -40 -63 -90 -132 -63 -88
-90 -134 -90 -154 0 -16 29 -85 64 -154 42 -82 70 -151 81 -202 12 -52 26 -86
44 -106 25 -27 35 -30 183 -50 l157 -21 3 -194 c3 -187 2 -193 -17 -194 -32
-1 -103 -9 -208 -24 -125 -17 -139 -29 -162 -134 -22 -99 -65 -207 -110 -273
-53 -80 -50 -115 21 -214 31 -44 72 -98 91 -122 l35 -42 -70 -78 c-125 -137
-199 -205 -213 -196 -8 4 -56 39 -107 76 -161 119 -178 125 -242 88 -70 -41
-179 -89 -260 -114 -45 -15 -90 -30 -99 -36 -27 -14 -38 -51 -57 -190 -9 -69
-18 -132 -20 -140 -1 -8 -3 -21 -3 -27 -1 -10 -48 -13 -200 -13 l-200 0 -10
52 c-5 29 -15 100 -22 157 -14 113 -35 159 -79 172 -14 4 -61 15 -105 25 -49
11 -120 39 -184 71 -58 29 -117 53 -132 53 -18 0 -68 -29 -148 -85 -66 -47
-125 -86 -130 -87 -5 -2 -70 57 -145 131 l-136 134 58 70 c82 101 132 179 132
204 0 12 -23 65 -50 116 -52 97 -93 204 -105 274 -7 44 -34 75 -77 92 -14 5
-81 17 -148 26 -67 10 -129 18 -137 19 -13 2 -15 33 -16 204 -2 193 -1 201 18
206 11 3 70 10 130 16 185 19 196 26 226 150 19 83 80 225 118 279 37 51 28
88 -45 197 -37 55 -78 114 -92 133 l-25 33 139 139 c76 76 142 139 146 139 4
0 63 -39 130 -86 67 -47 136 -88 153 -91 25 -4 58 8 146 51 68 34 150 65 202
77 116 28 122 37 142 194 15 125 25 210 25 217 0 5 92 8 205 8 204 0 205 0
209 -22z m-2094 -1903 l0 -845 -235 0 -235 0 0 845 0 845 235 0 235 0 0 -845z"/>
<path d="M6930 4748 c-327 -18 -597 -200 -740 -499 -154 -322 -105 -708 125
-989 207 -253 578 -366 910 -279 422 110 696 488 672 928 -7 123 -26 207 -72
308 -132 287 -412 496 -710 530 -38 4 -122 5 -185 1z m263 -301 c109 -35 204
-95 276 -174 304 -331 181 -847 -243 -1016 -363 -146 -770 77 -850 466 -20 96
-20 159 0 250 54 243 232 426 476 488 98 25 234 19 341 -14z"/>
<path d="M3067 5097 c-51 -16 -106 -62 -123 -103 -12 -27 -14 -229 -14 -1210
l0 -1177 25 -42 c17 -30 39 -50 72 -67 47 -23 55 -23 380 -26 210 -2 346 1
371 7 59 16 105 51 130 101 l22 44 0 1166 0 1166 -22 44 c-25 49 -70 84 -127
100 -52 14 -666 12 -714 -3z m593 -1312 l0 -1045 -235 0 -235 0 0 1045 0 1045
235 0 235 0 0 -1045z"/>
<path d="M2229 4100 l-346 -5 -36 -28 c-21 -16 -47 -47 -60 -70 l-22 -42 -3
-630 c-2 -346 0 -649 3 -671 9 -60 57 -128 109 -154 42 -20 55 -21 402 -18
l359 3 42 29 c27 18 51 46 68 79 l25 51 0 641 c0 453 -3 652 -11 676 -25 73
-82 124 -154 138 -16 3 -186 4 -376 1z m271 -806 l0 -544 -235 0 -235 0 0 545
0 546 235 -1 235 -1 0 -545z"/>
</g>
</svg>
