<?xml version="1.0" standalone="no"?>
<!DOCTYPE svg PUBLIC "-//W3C//DTD SVG 20010904//EN"
 "http://www.w3.org/TR/2001/REC-SVG-20010904/DTD/svg10.dtd">
<svg version="1.0" xmlns="http://www.w3.org/2000/svg"
 width="1024.000000pt" height="1024.000000pt" viewBox="0 0 1024.000000 1024.000000"
 preserveAspectRatio="xMidYMid meet">

<g transform="translate(0.000000,1024.000000) scale(0.100000,-0.100000)"
fill="#000000" stroke="none">
<path d="M2105 8304 c-266 -57 -505 -293 -575 -568 -20 -78 -20 -113 -20
-2611 0 -2503 0 -2533 20 -2610 57 -223 210 -411 415 -510 169 -82 -112 -76
3210 -73 l2960 3 88 31 c114 41 185 84 270 164 89 83 140 152 187 254 76 164
70 -77 70 2738 0 2502 0 2526 -20 2604 -61 238 -217 425 -443 529 -152 70 92
65 -3159 64 -2548 -1 -2942 -3 -3003 -15z m5978 -239 c168 -44 310 -174 376
-344 25 -65 26 -70 29 -383 l3 -318 -3376 0 -3377 0 4 313 c4 306 4 313 29
378 55 142 141 246 256 306 123 66 -106 61 3088 62 2550 1 2918 -1 2968 -14z
m407 -3352 c0 -2279 4 -2132 -63 -2256 -62 -118 -161 -204 -295 -256 l-67 -26
-2918 -3 c-3236 -3 -2981 -8 -3117 64 -120 63 -207 166 -258 305 l-27 74 -3
2083 -2 2082 3375 0 3375 0 0 -2067z"/>
<path d="M2246 7670 c-85 -75 -65 -196 38 -235 120 -46 226 74 169 192 -22 47
-66 73 -125 73 -38 0 -54 -6 -82 -30z"/>
<path d="M2928 7685 c-62 -34 -87 -129 -48 -192 39 -65 105 -85 175 -54 77 34
104 127 58 199 -35 56 -126 79 -185 47z"/>
<path d="M3593 7680 c-105 -64 -71 -233 53 -256 45 -8 113 25 138 67 23 40 24
110 1 145 -40 61 -130 82 -192 44z"/>
<path d="M3422 6411 c-43 -11 -71 -37 -93 -86 -24 -52 -26 -271 -4 -442 69
-546 290 -1021 643 -1385 l55 -56 -26 -84 c-41 -130 -50 -185 -44 -283 5 -103
30 -177 85 -260 20 -30 167 -185 326 -345 l289 -290 48 0 c36 0 55 6 78 26 37
31 41 46 87 294 l36 195 51 53 c55 56 67 62 67 34 0 -19 130 -152 167 -171 57
-29 149 -3 207 58 l29 31 36 -108 c50 -148 106 -239 210 -342 171 -168 377
-253 713 -294 154 -18 179 -5 219 119 41 123 30 352 -24 480 -72 172 -222 315
-331 315 -54 0 -96 -43 -96 -99 0 -39 6 -47 83 -124 51 -51 95 -106 115 -144
39 -74 67 -205 57 -270 l-6 -44 -37 7 c-345 61 -549 188 -661 412 -33 64 -61
186 -61 261 l0 66 123 123 123 122 89 -15 c335 -58 511 -157 607 -340 66 -127
94 -238 128 -510 22 -176 47 -280 86 -358 47 -94 89 -120 158 -97 63 20 82 83
51 169 -21 61 -51 225 -70 386 -45 386 -145 610 -343 766 -125 100 -236 146
-412 170 -52 7 -97 14 -99 16 -3 2 15 24 40 49 41 42 44 48 44 99 l0 55 -98
98 -97 98 42 40 43 41 165 18 c291 31 327 38 360 70 16 15 32 41 35 56 15 67
4 82 -274 363 -146 147 -289 285 -316 306 -133 99 -280 141 -424 120 -73 -10
-215 -53 -239 -73 -9 -7 -26 4 -65 39 -368 346 -842 569 -1377 649 -121 18
-449 29 -498 16z m459 -237 c99 -15 306 -62 326 -73 8 -4 -96 -111 -279 -289
l-292 -283 -18 50 c-41 121 -88 418 -88 555 l0 69 129 -7 c71 -4 171 -13 222
-22z m722 -228 c155 -75 304 -172 438 -285 81 -67 442 -431 687 -691 l61 -66
-474 -475 -475 -474 -398 400 c-466 467 -536 553 -673 825 l-50 101 268 262
c147 144 315 308 373 364 58 57 107 103 108 103 2 0 63 -29 135 -64z m1202
-421 c40 -19 108 -78 255 -222 110 -107 200 -199 200 -203 0 -7 -198 -30 -267
-30 -39 0 -44 5 -262 229 l-222 230 38 10 c106 27 183 23 258 -14z m53 -978
l42 -43 -325 -324 -326 -323 -45 44 -44 44 322 322 c178 178 325 323 328 323
3 0 25 -19 48 -43z m-1189 -895 c-12 -67 -25 -122 -29 -122 -3 0 -96 91 -207
203 -257 259 -280 301 -253 463 l13 76 249 -249 250 -250 -23 -121z"/>
<path d="M4487 5541 c-109 -36 -188 -105 -240 -211 -30 -60 -32 -72 -32 -170
0 -97 2 -110 32 -172 40 -85 106 -151 191 -191 63 -30 74 -32 177 -32 98 0
116 3 167 27 172 80 268 270 227 447 -28 123 -134 248 -246 291 -81 32 -199
36 -276 11z m209 -230 c18 -11 45 -36 60 -57 25 -32 29 -47 29 -99 0 -53 -5
-68 -29 -100 -32 -41 -95 -75 -141 -75 -42 0 -107 32 -133 65 -67 84 -46 200
47 262 44 30 122 31 167 4z"/>
</g>
</svg>
