<?xml version="1.0" standalone="no"?>
<!DOCTYPE svg PUBLIC "-//W3C//DTD SVG 20010904//EN"
 "http://www.w3.org/TR/2001/REC-SVG-20010904/DTD/svg10.dtd">
<svg version="1.0" xmlns="http://www.w3.org/2000/svg"
 width="1024.000000pt" height="1024.000000pt" viewBox="0 0 1024.000000 1024.000000"
 preserveAspectRatio="xMidYMid meet">

<g transform="translate(0.000000,1024.000000) scale(0.100000,-0.100000)"
fill="#000000" stroke="none">
<path d="M5541 8432 c-19 -9 -44 -30 -55 -45 -21 -28 -21 -37 -24 -814 l-2
-785 21 -38 c41 -73 10 -70 753 -70 l666 0 0 -157 -1 -158 -345 -350 -345
-350 -209 -5 -210 -5 -32 -33 c-29 -29 -33 -39 -33 -87 0 -48 4 -58 33 -87
l32 -33 208 -3 207 -3 348 -347 347 -347 0 -372 0 -373 -347 0 c-388 0 -395
-1 -440 -69 -22 -33 -23 -40 -23 -302 l0 -269 -214 0 -215 0 -3 272 c-3 270
-3 273 -27 307 -45 63 -18 61 -818 61 -704 0 -728 -1 -768 -20 -22 -11 -49
-34 -60 -52 -19 -32 -20 -53 -20 -703 l0 -670 23 -36 c44 -72 6 -69 824 -69
830 0 780 -5 825 80 22 42 23 52 23 312 l0 268 215 0 215 0 0 -279 c0 -272 0
-279 23 -312 48 -73 -2 -69 907 -69 917 0 863 -4 907 75 22 39 23 49 23 312
l0 272 259 3 c289 3 288 3 339 78 l22 33 0 1165 c0 1161 0 1166 -21 1209 -11
23 -35 53 -52 65 -31 23 -39 23 -339 26 l-307 3 -350 345 -351 346 0 164 0
164 664 0 664 0 32 26 c63 54 60 8 60 863 l0 779 -27 33 c-15 17 -45 40 -68
50 -38 18 -104 19 -1470 19 -1342 0 -1432 -1 -1464 -18z m2779 -872 l0 -630
-1305 0 -1305 0 0 633 0 632 1305 -3 1305 -2 0 -630z m-1005 -2310 l-290 -290
-290 290 -290 290 290 290 290 290 290 -290 290 -290 -290 -290z m1005 -880
l0 -1040 -185 0 -185 0 0 269 c0 395 29 371 -457 371 l-343 0 0 377 0 378 342
342 343 343 242 0 243 0 0 -1040z m-2910 -1175 l0 -525 -600 0 -600 0 0 525 0
525 600 0 600 0 0 -525z m2290 0 l0 -525 -680 0 -680 0 0 525 0 525 680 0 680
0 0 -525z"/>
<path d="M6049 7917 c-48 -32 -68 -91 -48 -143 8 -22 29 -48 48 -61 l34 -23
934 0 c1025 0 975 -3 1008 60 32 61 14 128 -44 167 l-34 23 -932 0 -932 0 -34
-23z"/>
<path d="M6052 7417 c-52 -29 -71 -93 -47 -155 33 -82 -19 -77 779 -80 699 -2
709 -2 751 18 68 33 91 98 59 166 -32 67 3 64 -796 64 -561 -1 -728 -4 -746
-13z"/>
<path d="M3385 7774 c-476 -69 -784 -218 -1081 -526 -415 -430 -580 -1020
-450 -1608 57 -255 200 -539 370 -734 l66 -76 -137 -184 c-135 -182 -139 -185
-175 -186 -46 0 -120 -24 -170 -56 -35 -22 -243 -294 -686 -893 -165 -224
-192 -287 -192 -446 0 -217 98 -385 273 -469 89 -43 141 -55 234 -56 146 0
278 50 373 142 63 61 771 1017 810 1093 29 59 33 151 8 200 l-16 30 148 198
c81 109 150 200 153 203 3 3 43 -6 90 -21 47 -14 141 -38 209 -52 112 -25 142
-27 343 -27 200 0 231 2 346 27 353 75 660 246 915 508 246 255 395 543 461
892 25 132 25 495 0 622 -51 259 -147 488 -295 700 -31 44 -117 141 -191 216
-203 203 -391 320 -659 409 -207 69 -330 91 -537 95 -99 2 -193 1 -210 -1z
m306 -264 c677 -66 1197 -532 1334 -1195 42 -201 28 -470 -36 -687 -39 -136
-151 -359 -236 -473 -221 -294 -536 -496 -901 -577 -131 -30 -441 -32 -575 -5
-576 117 -1029 545 -1172 1109 -122 485 20 1012 374 1380 323 337 747 493
1212 448z m-1010 -2982 c15 -5 -238 -355 -253 -350 -5 1 -51 34 -103 73 -61
46 -92 75 -87 83 4 6 60 82 125 168 l118 155 93 -62 c51 -34 99 -64 107 -67z
m-673 -345 c132 -99 372 -285 377 -293 3 -6 -83 -130 -191 -278 -108 -147
-238 -323 -288 -391 -259 -351 -270 -365 -320 -396 -45 -27 -57 -30 -135 -30
-95 0 -130 13 -189 69 -58 54 -77 100 -77 191 0 66 5 90 26 135 24 50 741
1020 755 1020 3 0 22 -12 42 -27z"/>
<path d="M3364 7185 c-317 -49 -603 -235 -787 -511 -116 -174 -167 -319 -187
-533 -11 -108 -10 -123 6 -156 32 -68 113 -95 175 -58 44 26 69 87 69 165 0
196 83 392 234 555 81 88 165 148 281 204 128 61 194 78 330 86 129 7 174 24
199 77 31 65 12 130 -47 166 -38 24 -143 26 -273 5z"/>
</g>
</svg>
